<svg preserveAspectRatio="none" width="100%" height="100%" overflow="visible" style="display: block;" viewBox="0 0 80 80" fill="none" xmlns="http://www.w3.org/2000/svg">
<g id="Ellipse 1935">
<path d="M80 40C80 62.0914 62.0914 80 40 80C17.9086 80 0 62.0914 0 40C0 17.9086 17.9086 0 40 0C62.0914 0 80 17.9086 80 40ZM7.22996 40C7.22996 58.0984 21.9016 72.77 40 72.77C58.0984 72.77 72.77 58.0984 72.77 40C72.77 21.9016 58.0984 7.22996 40 7.22996C21.9016 7.22996 7.22996 21.9016 7.22996 40Z" fill="var(--fill-0, #141218)"/>
<path d="M80 40C80 62.0914 62.0914 80 40 80C17.9086 80 0 62.0914 0 40C0 17.9086 17.9086 0 40 0C62.0914 0 80 17.9086 80 40ZM7.22996 40C7.22996 58.0984 21.9016 72.77 40 72.77C58.0984 72.77 72.77 58.0984 72.77 40C72.77 21.9016 58.0984 7.22996 40 7.22996C21.9016 7.22996 7.22996 21.9016 7.22996 40Z" fill="var(--fill-1, #D0BCFF)" fill-opacity="0.05"/>
</g>
</svg>
