<svg width="21" height="28" viewBox="0 0 21 28" fill="none" xmlns="http://www.w3.org/2000/svg">
<path d="M20.2116 1.90836L17.0286 0.724429C16.7172 0.6086 16.3709 0.76714 16.2551 1.07853C14.9727 4.52609 13.6933 7.97551 12.4524 11.3309L13.5808 11.7482C14.7539 8.57637 15.9612 5.3207 17.1731 2.06181L19.2283 2.82629C18.1669 5.67913 17.1012 8.53672 16.0573 11.3289L17.1842 11.7502C18.2971 8.77341 19.4348 5.72238 20.5657 2.68197C20.6816 2.37053 20.523 2.02419 20.2116 1.90836Z" fill="#ED2A91"/>
<path d="M4.55768 3.3516L1.89254 0.826013C1.72711 0.669224 1.48719 0.619513 1.27298 0.697388C1.05877 0.775318 0.907067 0.967654 0.88109 1.19412L0.462894 4.84194C0.452284 4.93464 0.463331 5.02854 0.495269 5.1162L2.90809 11.7454L4.03864 11.3339L1.83156 5.27004L3.78435 4.55926L6.39989 11.7454L7.53045 11.3339L4.70917 3.58249C4.67723 3.49482 4.62539 3.4158 4.55768 3.3516ZM1.93919 2.52778L3.02391 3.55569L1.769 4.0125L1.93919 2.52778Z" fill="#ED2A91"/>
<path d="M9.11249 20.7197L8.26172 21.5705L9.63613 22.9449V27.3991H10.8393V22.6957C10.8393 22.5362 10.7759 22.3832 10.6631 22.2703L9.11249 20.7197Z" fill="#ED2A91"/>
<path d="M13.5781 17.584H12.375V27.3987H13.5781V17.584Z" fill="#ED2A91"/>
<path d="M7.60473 17.9287C6.42867 17.9287 5.47191 18.8855 5.47191 20.0615C5.47191 21.2376 6.42867 22.1943 7.60473 22.1943C8.78079 22.1943 9.73755 21.2376 9.73755 20.0615C9.73755 18.8855 8.78079 17.9287 7.60473 17.9287ZM7.60473 20.9912C7.09209 20.9912 6.67504 20.5742 6.67504 20.0615C6.67504 19.5489 7.09209 19.1318 7.60473 19.1318C8.11737 19.1318 8.53442 19.5489 8.53442 20.0615C8.53442 20.5742 8.11737 20.9912 7.60473 20.9912Z" fill="#F7F9FB"/>
<path d="M12.9766 13.9199C11.8005 13.9199 10.8438 14.8767 10.8438 16.0527C10.8438 17.2288 11.8005 18.1856 12.9766 18.1856C14.1526 18.1856 15.1094 17.2288 15.1094 16.0527C15.1094 14.8767 14.1526 13.9199 12.9766 13.9199ZM12.9766 16.9824C12.4639 16.9824 12.0469 16.5654 12.0469 16.0527C12.0469 15.5401 12.4639 15.123 12.9766 15.123C13.4892 15.123 13.9063 15.5401 13.9063 16.0527C13.9063 16.5654 13.4892 16.9824 12.9766 16.9824Z" fill="#F7F9FB"/>
<path d="M18.3831 14.9927C18.3113 13.654 17.9391 12.3913 17.2769 11.2396C17.1696 11.053 16.9707 10.9379 16.7554 10.9379H12.4295C12.3705 9.30395 12.2089 7.76739 11.9648 6.52664C12.5457 5.99486 12.9107 5.23087 12.9107 4.38359C12.9107 3.58778 12.5953 2.84507 12.0225 2.29234C11.5597 1.84571 11.3053 1.24556 11.3062 0.602438C11.3065 0.418907 11.2229 0.245273 11.0794 0.130976C10.9358 0.0166246 10.7479 -0.0259224 10.569 0.0155309C8.61038 0.468836 7.1849 2.18832 7.10254 4.19711C7.06907 5.01349 7.37248 5.81745 7.93499 6.40282C7.97158 6.44089 8.00904 6.47758 8.04721 6.51335C7.80156 7.75667 7.63908 9.29766 7.57985 10.9378H3.19571C2.98112 10.9378 2.78282 11.0521 2.67519 11.2378C1.95288 12.4843 1.5629 13.9038 1.54464 15.3496L0.0665401 19.4637C-0.0578742 19.81 -0.00581179 20.1964 0.205884 20.4973C0.417525 20.7982 0.763588 20.9779 1.13153 20.9779H1.94336V22.7908C1.94336 24.2693 3.14616 25.4721 4.62464 25.4721H7.01963V27.3984C7.01963 27.7307 7.28897 28 7.6212 28H15.9082C16.0816 28 16.2465 27.9252 16.3608 27.7948C16.475 27.6644 16.5274 27.491 16.5045 27.3192L16.2764 25.6032C15.994 23.4786 16.387 21.3363 17.4128 19.408C18.1303 18.0598 18.4658 16.533 18.3831 14.9927ZM8.30474 4.24638C8.35549 3.00875 9.10323 1.92118 10.1939 1.41083C10.346 2.07135 10.6857 2.67428 11.187 3.15805C11.5228 3.48196 11.7076 3.91722 11.7076 4.38354C11.7076 5.32149 10.9446 6.08536 10.0067 6.0864C10.006 6.0864 10.0055 6.0864 10.0048 6.0864C9.55003 6.0864 9.12308 5.90276 8.80261 5.56922C8.46606 5.219 8.28461 4.73682 8.30474 4.24638ZM11.2257 10.9378H8.78374C8.83521 9.55475 8.96203 8.25302 9.15119 7.16019C9.42392 7.2454 9.71081 7.28953 10.0047 7.28953C10.0057 7.28953 10.0069 7.28953 10.008 7.28953C10.3038 7.2892 10.5893 7.24414 10.8584 7.16129C11.0474 8.25389 11.1743 9.55557 11.2257 10.9378ZM16.3508 18.8429C15.2063 20.9942 14.7682 23.3867 15.0839 25.7617L15.2215 26.7969H8.22281V24.8705C8.22281 24.5383 7.95348 24.2689 7.62125 24.2689H4.6247C3.80963 24.2689 3.14655 23.6059 3.14655 22.7908V20.3764C3.14655 20.0442 2.87721 19.7748 2.54498 19.7748H1.23325L2.71172 15.6596C2.73519 15.5943 2.74716 15.5255 2.74716 15.4562C2.74716 14.2999 3.02454 13.161 3.55195 12.141H16.3981C16.8629 13.0452 17.1263 14.0245 17.1817 15.0571C17.2527 16.3788 16.9653 17.6879 16.3508 18.8429Z" fill="#F7F9FB"/>
</svg>
