<svg width="28" height="28" viewBox="0 0 28 28" fill="none" xmlns="http://www.w3.org/2000/svg">
<path d="M27.9851 15.9847L27.8252 15.2811C27.5347 14.0029 26.4163 13.1102 25.1055 13.1102H23.2894L22.4562 11.2437C21.9204 10.0433 20.7247 9.26758 19.41 9.26758H17.8739V10.4707H19.41C20.2505 10.4707 21.015 10.9666 21.3576 11.7341L23.046 15.5165H4.95411L6.64242 11.7341C6.98504 10.9666 7.74952 10.4707 8.59001 10.4707H10.1264V9.26758H8.59001C7.27538 9.26758 6.07969 10.0433 5.54375 11.2437L4.71059 13.1102H2.89458C1.58378 13.1102 0.465416 14.0029 0.174861 15.2811L0.0149551 15.9847C-0.0255684 16.1631 0.017252 16.3503 0.131385 16.4933C0.245518 16.6363 0.418549 16.7196 0.601533 16.7196H2.40365C1.70278 17.5188 1.31253 18.5435 1.31253 19.6327V23.8983C1.31253 24.1781 1.50535 24.4209 1.77781 24.4843L1.8594 24.5032V26.3046C1.8594 27.2394 2.61994 27.9999 3.55471 27.9999H5.41409C6.34886 27.9999 7.1094 27.2394 7.1094 26.3046V25.5937H8.99672H19.0033H20.8906V26.3046C20.8906 27.2394 21.6512 27.9999 22.586 27.9999H24.4453C25.3801 27.9999 26.1406 27.2394 26.1406 26.3046V24.5032L26.2222 24.4843C26.4947 24.4209 26.6875 24.1781 26.6875 23.8983V19.6327C26.6875 18.5435 26.2973 17.5187 25.5963 16.7196H27.3985C27.5814 16.7196 27.7545 16.6363 27.8686 16.4933C27.9827 16.3503 28.0256 16.1631 27.9851 15.9847ZM25.4844 21.4374H22.3657L22.49 21.164C22.7467 20.5992 23.3135 20.2343 23.9338 20.2343H25.4844V21.4374ZM23.9338 19.0312C22.8429 19.0312 21.8462 19.6729 21.3948 20.6661L20.8839 21.79C20.7993 21.9762 20.815 22.1926 20.9258 22.3646C21.0365 22.5366 21.2269 22.6405 21.4315 22.6405H25.4844V23.4206L21.3138 24.3905H19.3907L18.4572 22.3369C18.3596 22.1221 18.1454 21.9843 17.9096 21.9843H10.0905C9.8546 21.9843 9.64045 22.1221 9.54283 22.3369L8.60937 24.3905H6.68623L2.51565 23.4206V22.6405H6.56854C6.77307 22.6405 6.9636 22.5366 7.07435 22.3646C7.18509 22.1926 7.20084 21.9762 7.11624 21.79L6.60535 20.6661C6.15385 19.6729 5.15722 19.0312 4.06626 19.0312H2.5722C2.71581 18.2639 3.13181 17.5746 3.76324 17.0843L4.23295 16.7196H23.7671L24.2368 17.0843C24.8682 17.5746 25.2842 18.2638 25.4279 19.0312H23.9338ZM4.06626 20.2343C4.68663 20.2343 5.25336 20.5992 5.51001 21.164L5.63431 21.4374H2.51565V20.2343H4.06626ZM2.89458 14.3133H4.17356L3.63653 15.5164H1.35556C1.53166 14.8064 2.16002 14.3133 2.89458 14.3133ZM5.41409 26.7968H3.55471C3.28335 26.7968 3.06253 26.576 3.06253 26.3046V24.783L5.90628 25.4444V26.3046C5.90628 26.576 5.68545 26.7968 5.41409 26.7968ZM9.93095 24.3905L10.4778 23.1874H17.5222L18.0691 24.3905H9.93095ZM24.9375 26.3046C24.9375 26.576 24.7167 26.7968 24.4453 26.7968H22.586C22.3146 26.7968 22.0938 26.576 22.0938 26.3046V25.4444L24.9375 24.783V26.3046ZM24.3635 15.5164L23.8265 14.3133H25.1055C25.84 14.3133 26.4684 14.8064 26.6445 15.5164H24.3635Z" fill="#F7F9FB"/>
<path d="M17.9099 19.5781H10.0908C9.75859 19.5781 9.48926 19.8475 9.48926 20.1797C9.48926 20.5119 9.75859 20.7812 10.0908 20.7812H17.9099C18.2422 20.7812 18.5115 20.5119 18.5115 20.1797C18.5115 19.8475 18.2422 19.5781 17.9099 19.5781Z" fill="#F7F9FB"/>
<path d="M16.4847 4.6282L15.4682 4.32228L15.7871 3.16794C15.8371 2.98687 15.7996 2.79289 15.6858 2.64343C15.5721 2.49397 15.395 2.40625 15.2072 2.40625H12.6402C12.375 2.40625 12.1411 2.57994 12.0644 2.83385L11.1136 5.98106C11.0193 6.29311 11.1907 6.62342 11.5002 6.72602L12.6126 7.09488L13.0997 9.21692C13.1533 9.45027 13.3402 9.62965 13.5755 9.67367C13.6125 9.68056 13.6495 9.68395 13.6861 9.68395C13.8833 9.68395 14.071 9.58677 14.1842 9.41959L16.8095 5.54154C16.9167 5.38311 16.9423 5.18301 16.8781 5.00276C16.814 4.8224 16.668 4.68333 16.4847 4.6282ZM13.963 7.60009L13.7094 6.49573C13.6624 6.29092 13.5119 6.12549 13.3124 6.05938L12.4347 5.76833L13.0869 3.60932H14.4169L14.152 4.5687C14.0649 4.88381 14.2454 5.21068 14.5584 5.30491L15.3545 5.54449L13.963 7.60009Z" fill="#ED2A91"/>
<path d="M14.0001 0C10.6668 0 7.95496 2.71179 7.95496 6.0451C7.95496 9.37841 10.6668 12.0901 14.0001 12.0901C17.3333 12.0901 20.0452 9.37836 20.0452 6.0451C20.0452 2.71184 17.3333 0 14.0001 0ZM14.0001 10.887C11.3302 10.887 9.15808 8.71495 9.15808 6.0451C9.15808 3.37526 11.3302 1.20312 14.0001 1.20312C16.6699 1.20312 18.842 3.3752 18.842 6.0451C18.842 8.715 16.6699 10.887 14.0001 10.887Z" fill="#ED2A91"/>
</svg>
