<svg width="27" height="28" viewBox="0 0 27 28" fill="none" xmlns="http://www.w3.org/2000/svg">
<path d="M8.60725 27.9997C3.86117 27.9997 0 24.1135 0 19.3368C0 14.5907 3.86117 10.7295 8.60725 10.7295C13.3533 10.7295 17.2145 14.5907 17.2145 19.3368C17.2145 24.1135 13.3533 27.9997 8.60725 27.9997ZM8.60725 11.9326C4.52459 11.9326 1.20313 15.2541 1.20313 19.3368C1.20313 23.4501 4.52459 26.7965 8.60725 26.7965C12.6899 26.7965 16.0114 23.4501 16.0114 19.3368C16.0114 15.2541 12.6899 11.9326 8.60725 11.9326Z" fill="#F7F9FB"/>
<path d="M8.60719 24.8306C5.57783 24.8306 3.11328 22.366 3.11328 19.3367C3.11328 16.3073 5.57783 13.8428 8.60719 13.8428C11.6365 13.8428 14.1011 16.3073 14.1011 19.3367C14.1011 22.366 11.6365 24.8306 8.60719 24.8306ZM8.60719 15.0459C6.24124 15.0459 4.31641 16.9707 4.31641 19.3367C4.31641 21.7026 6.24124 23.6275 8.60719 23.6275C10.9731 23.6275 12.898 21.7026 12.898 19.3367C12.898 16.9707 10.9731 15.0459 8.60719 15.0459Z" fill="#ED2A91"/>
<path d="M25.8511 1.49751C24.4288 0.508703 22.9739 0.00617969 21.5272 0.00114844C21.5197 0.000875 21.5124 0 21.5049 0C21.5004 0 21.4961 0.000546875 21.4917 0.00065625C21.4771 0.000710937 21.4625 -5.46875e-05 21.4478 0.000109375C20.0125 0.0130156 18.5694 0.516797 17.1587 1.49751C16.945 1.64604 16.851 1.9151 16.9258 2.16431L18.2601 6.61188C18.3364 6.86629 18.5706 6.51268 18.8362 6.51268H24.1734C24.439 6.51268 24.6733 6.86629 24.7496 6.61188L26.0838 2.16431C26.1587 1.9151 26.0647 1.64604 25.8511 1.49751ZM23.7404 5.83745L21.5948 6.75998L19.2839 5.83745L18.2066 2.24629C19.1116 1.67727 20.0082 1.34094 20.9033 1.23681V2.43622C20.9033 2.76845 21.1727 3.03778 21.5049 3.03778C21.8371 3.03778 22.1065 2.76845 22.1065 2.43622V1.23681C23.0015 1.34099 23.8982 1.67732 24.8031 2.24629L23.7404 5.83745Z" fill="#ED2A91"/>
<path d="M7.71736 1.83432H6.98466V1.10156C6.98466 0.769336 6.71532 0.5 6.38309 0.5C6.05087 0.5 5.78153 0.769336 5.78153 1.10156V1.83427H5.04883C4.7166 1.83427 4.44727 2.1036 4.44727 2.43583C4.44727 2.76805 4.7166 3.03739 5.04883 3.03739H5.78153V3.77009C5.78153 4.10232 6.05087 4.37166 6.38309 4.37166C6.71532 4.37166 6.98466 4.10232 6.98466 3.77009V3.03745H7.71736C8.04959 3.03745 8.31892 2.76811 8.31892 2.43588C8.31892 2.10366 8.04959 1.83432 7.71736 1.83432Z" fill="#ED2A91"/>
<path d="M14.8336 6.72684H14.1009V5.99414C14.1009 5.66191 13.8315 5.39258 13.4993 5.39258C13.1671 5.39258 12.8977 5.66191 12.8977 5.99414V6.72684H12.165C11.8328 6.72684 11.5635 6.99618 11.5635 7.32841C11.5635 7.66063 11.8328 7.92997 12.165 7.92997H12.8977V8.66267C12.8977 8.9949 13.1671 9.26423 13.4993 9.26423C13.8315 9.26423 14.1009 8.9949 14.1009 8.66267V7.92997H14.8336C15.1658 7.92997 15.4351 7.66063 15.4351 7.32841C15.4351 6.99618 15.1658 6.72684 14.8336 6.72684Z" fill="#ED2A91"/>
<path d="M24.1741 5.83789H18.8369C18.5047 5.83789 18.2354 6.10723 18.2354 6.43946V9.10805C18.2354 9.1477 18.2392 9.18719 18.2471 9.22601L19.1249 13.6151V25.6198C19.1249 26.9325 20.1928 28.0004 21.5055 28.0004C22.8182 28.0004 23.8861 26.9325 23.8861 25.6198V13.6151L24.7639 9.22601C24.7717 9.18719 24.7756 9.14765 24.7756 9.10805V6.43946C24.7756 6.10723 24.5063 5.83789 24.1741 5.83789ZM19.4385 7.04102H23.5725V9.0485L22.7914 12.9541H20.2196L19.4385 9.04844V7.04102H19.4385ZM22.6829 25.6198C22.6829 26.2691 22.1548 26.7973 21.5055 26.7973C20.8563 26.7973 20.328 26.2691 20.328 25.6198V14.1572H22.6829V25.6198Z" fill="#F7F9FB"/>
</svg>
