<svg width="28" height="28" viewBox="0 0 28 28" fill="none" xmlns="http://www.w3.org/2000/svg">
<path d="M3.93139 21.0547H1.03132V22.2578H3.93134C4.26357 22.2578 4.5329 21.9885 4.5329 21.6562C4.5329 21.324 4.26362 21.0547 3.93139 21.0547Z" fill="#F7F9FB"/>
<path d="M3.93146 23.8984H1.03139V25.1016H3.93141C4.26363 25.1016 4.53297 24.8322 4.53297 24.5C4.53297 24.1678 4.26369 23.8984 3.93146 23.8984Z" fill="#F7F9FB"/>
<path d="M25.6427 21.6562C25.6427 21.324 25.3733 21.0547 25.0411 21.0547H21.9112V22.2578H25.0411C25.3733 22.2578 25.6427 21.9885 25.6427 21.6562Z" fill="#F7F9FB"/>
<path d="M25.0411 23.8984H21.9112V25.1016H25.0411C25.3733 25.1016 25.6427 24.8322 25.6427 24.5C25.6427 24.1678 25.3733 23.8984 25.0411 23.8984Z" fill="#F7F9FB"/>
<path d="M27.6992 0.0805751C27.5131 -0.026831 27.2838 -0.0268857 27.0976 0.0805751L19.7102 4.34571C19.5721 4.42549 19.4713 4.55685 19.43 4.71096C19.3887 4.86507 19.4103 5.0293 19.4901 5.16744L19.4994 5.18357L18.784 5.58744C18.3967 5.80613 17.9262 5.82139 17.5255 5.62834L15.4247 4.61619C14.5215 4.1811 13.4642 4.22058 12.596 4.72179L10.0857 6.17112L8.46928 5.23788L8.50992 5.16744C8.58965 5.0293 8.61131 4.86507 8.57002 4.71096C8.52873 4.55685 8.42788 4.42549 8.28974 4.34571L0.902343 0.0805751C0.716296 -0.026831 0.486937 -0.0268857 0.300781 0.0805751C0.11468 0.188036 0 0.386661 0 0.601583V10.0974C0 10.3123 0.11468 10.511 0.300781 10.6184L3.5764 12.5096C3.67111 12.5642 3.77458 12.5903 3.87663 12.5903C4.07427 12.5903 4.26579 12.4918 4.38003 12.3164L5.28264 12.8375C5.25207 12.9109 5.22582 12.9865 5.20488 13.0646C5.082 13.5231 5.14505 14.0021 5.38245 14.4133C5.6076 14.8032 5.95918 15.0754 6.35578 15.2084C6.26904 15.6338 6.33932 16.0706 6.55823 16.4498C6.88706 17.0194 7.48567 17.3381 8.10047 17.3381C8.17949 17.3381 8.25879 17.3326 8.33776 17.3218C8.36521 17.5602 8.44106 17.7927 8.56466 18.0067C8.802 18.4179 9.18531 18.712 9.64386 18.8349C9.79698 18.8759 9.95241 18.8962 10.1068 18.8962C10.1882 18.8962 10.2692 18.8902 10.3495 18.879C10.3773 19.1163 10.4531 19.3477 10.5761 19.5609C10.905 20.1304 11.5036 20.4492 12.1184 20.4492C12.4197 20.4492 12.7249 20.3726 13.004 20.2114L13.3983 19.9837C13.5873 19.8746 13.751 19.7338 13.8852 19.5701L14.996 20.2114C15.2698 20.3695 15.5737 20.4503 15.8817 20.4503C16.0361 20.4503 16.1916 20.4299 16.3447 20.3889C16.8032 20.266 17.1865 19.9719 17.4239 19.5608C17.5469 19.3477 17.6227 19.1162 17.6504 18.879C17.7308 18.8902 17.8118 18.8962 17.8932 18.8962C18.0476 18.8962 18.203 18.8758 18.3561 18.8348C18.8147 18.7119 19.1979 18.4178 19.4353 18.0067C19.5589 17.7926 19.6348 17.5602 19.6622 17.3218C19.7412 17.3325 19.8205 17.3381 19.8995 17.3381C20.5142 17.338 21.1129 17.0193 21.4417 16.4497C21.6607 16.0705 21.7309 15.6337 21.6442 15.2084C22.0408 15.0753 22.3924 14.8031 22.6175 14.4132C22.8549 14.0021 22.918 13.5231 22.7951 13.0645C22.7692 12.9677 22.7352 12.8745 22.6944 12.785L23.5897 12.2682L23.6018 12.2893C23.7133 12.4823 23.9155 12.5902 24.1234 12.5902C24.2255 12.5902 24.3289 12.5642 24.4236 12.5095L27.6993 10.6183C27.8854 10.5108 28 10.3123 28 10.0973V0.601583C28 0.386661 27.8853 0.188036 27.6992 0.0805751ZM1.20312 9.75003V1.64354L7.16723 5.08688L3.65701 11.1668L1.20312 9.75003ZM6.36704 13.3759C6.40675 13.2278 6.50174 13.104 6.63463 13.0273L7.29115 12.6482C7.38002 12.5969 7.47785 12.5709 7.577 12.5709C7.63322 12.5709 7.68993 12.5793 7.7456 12.5962C7.89938 12.6431 8.02309 12.7484 8.09385 12.8928C8.22631 13.1629 8.12596 13.4923 7.86537 13.6428L7.20885 14.0218C6.93459 14.1801 6.58273 14.0858 6.42446 13.8117C6.34774 13.6788 6.32734 13.5241 6.36704 13.3759ZM7.60019 15.8482C7.52352 15.7153 7.50312 15.5606 7.54282 15.4124C7.58253 15.2643 7.67752 15.1405 7.81041 15.0638L8.77788 14.5052C8.91072 14.4285 9.06549 14.4081 9.21363 14.4478C9.36178 14.4875 9.48559 14.5825 9.56227 14.7154C9.72053 14.9895 9.62636 15.3413 9.35227 15.4997L8.38463 16.0583C8.11037 16.2166 7.75846 16.1223 7.60019 15.8482ZM9.95531 17.6727C9.80716 17.633 9.68334 17.538 9.60667 17.4051C9.53 17.2723 9.5096 17.1175 9.5493 16.9694C9.58901 16.8213 9.68395 16.6975 9.81673 16.6208L10.5157 16.2172C10.7899 16.0589 11.1418 16.1532 11.3001 16.4274C11.3768 16.5602 11.3972 16.715 11.3575 16.8631C11.3178 17.0113 11.2228 17.1351 11.0899 17.2118L10.391 17.6152C10.2582 17.692 10.1035 17.7124 9.95531 17.6727ZM12.7967 18.9417L12.4025 19.1694C12.2696 19.2461 12.115 19.2664 11.9667 19.2268C11.8186 19.1871 11.6947 19.0921 11.6181 18.9592C11.5414 18.8264 11.521 18.6717 11.5607 18.5235C11.6004 18.3753 11.6954 18.2515 11.8282 18.1749L12.2225 17.9472C12.4564 17.8122 12.757 17.8601 12.9372 18.0612C13.0532 18.1907 13.104 18.3633 13.0766 18.535C13.0492 18.7065 12.9473 18.8548 12.7967 18.9417ZM21.5756 13.8117C21.4172 14.0859 21.0653 14.1802 20.7912 14.0218L17.9041 12.355C17.6164 12.1889 17.2485 12.2875 17.0824 12.5751C16.9163 12.8628 17.0149 13.2308 17.3026 13.3969L20.1896 15.0637C20.3225 15.1404 20.4175 15.2643 20.4572 15.4124C20.4969 15.5605 20.4765 15.7153 20.3998 15.8481C20.2415 16.1223 19.8896 16.2165 19.6155 16.0583L16.7284 14.3914C16.4407 14.2254 16.0728 14.3239 15.9067 14.6116C15.7406 14.8993 15.8391 15.2672 16.1268 15.4333L18.1834 16.6207C18.3161 16.6974 18.4111 16.8212 18.4508 16.9693C18.4905 17.1174 18.4701 17.2722 18.3935 17.405C18.3168 17.5379 18.1929 17.6329 18.0448 17.6725C17.8966 17.7123 17.7419 17.6919 17.6091 17.6152L15.5527 16.4279C15.265 16.2619 14.8971 16.3604 14.7309 16.6481C14.5648 16.9358 14.6634 17.3037 14.9511 17.4698L16.1719 18.1746C16.3047 18.2514 16.3997 18.3752 16.4394 18.5233C16.4791 18.6714 16.4588 18.8262 16.3821 18.959C16.3053 19.0919 16.1815 19.1869 16.0334 19.2265C15.8852 19.2663 15.7305 19.2459 15.5977 19.1692L14.2868 18.4123C14.2798 17.9885 14.1219 17.58 13.8333 17.258C13.5052 16.8919 13.0482 16.69 12.5802 16.6706C12.5734 16.3767 12.4932 16.0874 12.3421 15.8256C12.0205 15.2687 11.4409 14.9515 10.8406 14.9377C10.8309 14.6565 10.7545 14.3738 10.6043 14.1136C10.3669 13.7025 9.98363 13.4083 9.52508 13.2855C9.46738 13.27 9.40936 13.2575 9.35123 13.2479C9.36917 12.9509 9.31322 12.6463 9.1742 12.3628C8.9583 11.9224 8.56537 11.588 8.0962 11.445C7.6271 11.3021 7.11435 11.3608 6.68964 11.606L6.12308 11.9331L4.98356 11.2752L7.86777 6.27956L9.06111 6.96852C8.93593 7.148 8.84165 7.3498 8.78357 7.56756C8.65249 8.05915 8.7209 8.57217 8.97629 9.01219C9.50145 9.91699 10.6657 10.2275 11.5717 9.70448L13.5911 8.53854L21.3654 13.027C21.4982 13.1036 21.5932 13.2275 21.6329 13.3756C21.6726 13.5241 21.6522 13.6788 21.5756 13.8117ZM21.8201 11.9006L13.8919 7.32322C13.7058 7.21576 13.4765 7.21576 13.2904 7.32322L10.9701 8.66279C10.6374 8.85485 10.2097 8.74083 10.0168 8.40855C9.92299 8.24689 9.89783 8.05849 9.94601 7.87791C9.99419 7.69734 10.1099 7.54645 10.2717 7.45299L13.1975 5.7637C13.7208 5.4616 14.3581 5.43787 14.9024 5.70004L17.0032 6.7122C17.7585 7.07603 18.6454 7.04721 19.3754 6.63509L20.1008 6.22553L22.9879 11.2262L21.8201 11.9006ZM26.7969 9.75003L24.343 11.1668L20.8327 5.08688L26.7969 1.64354V9.75003Z" fill="#F7F9FB"/>
<path d="M10.2409 21.0365H6.89062V18.7578C6.89062 18.4256 6.62128 18.1562 6.28906 18.1562H0.601562C0.269336 18.1562 0 18.4256 0 18.7578V27.3984C0 27.7307 0.269336 28 0.601562 28H10.2409C10.5732 28 10.8425 27.7307 10.8425 27.3984V21.6381C10.8425 21.3059 10.5732 21.0365 10.2409 21.0365ZM5.6875 26.7969H1.20312V19.3594H5.6875V26.7969ZM9.63938 26.7969H6.89062V22.2397H9.63938V26.7969Z" fill="#ED2A91"/>
<path d="M27.3982 18.1562H21.7107C21.3784 18.1562 21.1091 18.4256 21.1091 18.7578V21.0365H17.7588C17.4266 21.0365 17.1572 21.3059 17.1572 21.6381V27.3984C17.1572 27.7307 17.4266 28 17.7588 28H27.3982C27.7304 28 27.9997 27.7307 27.9997 27.3984V18.7578C27.9997 18.4256 27.7304 18.1562 27.3982 18.1562ZM18.3604 22.2397H21.1091V26.7969H18.3604V22.2397ZM26.7966 26.7969H22.3122V19.3594H26.7966V26.7969Z" fill="#ED2A91"/>
</svg>
