<svg width="29" height="28" viewBox="0 0 29 28" fill="none" xmlns="http://www.w3.org/2000/svg">
<path d="M9.25191 21.7167C7.53743 21.7167 6.14258 20.3219 6.14258 18.6074C6.14258 18.2649 6.42022 17.9873 6.76269 17.9873C7.10516 17.9873 7.38279 18.2649 7.38279 18.6074C7.38279 19.638 8.22129 20.4765 9.25191 20.4765C10.2825 20.4765 11.121 19.638 11.121 18.6074C11.121 18.2649 11.3987 17.9873 11.7411 17.9873C12.0836 17.9873 12.3613 18.2649 12.3613 18.6074C12.3613 20.322 10.9664 21.7167 9.25191 21.7167Z" fill="#ED2A91"/>
<path d="M19.6109 21.9574C19.5509 21.9574 19.4909 21.9487 19.4327 21.9313C18.4901 21.6485 17.5801 21.2559 16.7281 20.7646C16.4314 20.5935 16.3296 20.2143 16.5007 19.9176C16.6718 19.621 17.0509 19.5191 17.3476 19.6903C18.0629 20.1027 18.8235 20.4381 19.611 20.6884C24.411 19.1657 27.623 14.7875 27.623 9.73538V1.44188C22.3634 2.86734 16.8584 2.86734 11.5988 1.44188V7.87917C11.5988 8.22164 11.3212 8.49928 10.9787 8.49928C10.6363 8.49928 10.3586 8.22164 10.3586 7.87917V0.620071C10.3586 0.42406 10.4513 0.23955 10.6086 0.122575C10.7659 0.00554346 10.9693 -0.0300846 11.1569 0.0261198C16.6876 1.6853 22.5343 1.6853 28.0649 0.0261198C28.2529 -0.030141 28.456 0.00559983 28.6133 0.122575C28.7705 0.239606 28.8633 0.42406 28.8633 0.620071V9.73538C28.8633 12.4943 27.9928 15.1225 26.3459 17.3361C24.699 19.5495 22.4317 21.1385 19.7892 21.9313C19.731 21.9487 19.671 21.9574 19.6109 21.9574Z" fill="#ED2A91"/>
<path d="M24.7894 8.14651C24.6712 8.14651 24.5517 8.1128 24.446 8.04227L21.8563 6.31583C21.5713 6.12586 21.4943 5.74088 21.6843 5.45591C21.8742 5.17089 22.2593 5.09394 22.5442 5.28392L25.1339 7.01036C25.4189 7.20034 25.4959 7.58531 25.3059 7.87028C25.1864 8.04955 24.9898 8.14651 24.7894 8.14651Z" fill="#F7F9FB"/>
<path d="M19.6109 10.359C19.2353 10.359 18.8629 10.4115 18.5046 10.5124V6.66306C18.5046 6.46705 18.4119 6.28254 18.2546 6.16557C18.0974 6.04859 17.8942 6.0128 17.7062 6.06911C12.1757 7.7283 6.32888 7.7283 0.798249 6.06911C0.610581 6.01285 0.407186 6.04859 0.249904 6.16557C0.092678 6.28254 0 6.46705 0 6.66306V15.7784C0 18.5373 0.870463 21.1655 2.51736 23.379C4.16425 25.5925 6.43154 27.1815 9.0741 27.9743C9.13222 27.9917 9.19226 28.0004 9.2523 28.0004C9.31234 28.0004 9.37237 27.9917 9.4305 27.9743C12.0731 27.1815 14.3403 25.5925 15.9872 23.379C17.6341 21.1656 18.5046 18.5373 18.5046 15.7784V11.8242C18.8526 11.6768 19.2291 11.5992 19.6109 11.5992C21.1729 11.5992 22.4437 12.87 22.4437 14.432C22.4437 14.7745 22.7213 15.0521 23.0638 15.0521C23.4063 15.0521 23.6839 14.7745 23.6839 14.432C23.6839 12.1861 21.8568 10.359 19.6109 10.359ZM17.2644 15.7784C17.2644 20.8308 14.0528 25.209 9.2523 26.7313C4.45176 25.209 1.24022 20.8308 1.24022 15.7784V7.48488C6.49975 8.91034 12.0048 8.91034 17.2644 7.48488V15.7784Z" fill="#F7F9FB"/>
<path d="M7.88463 16.3661C7.54216 16.3661 7.26452 16.0884 7.26452 15.746C7.26452 15.1359 6.76821 14.6396 6.15819 14.6396C5.54817 14.6396 5.05186 15.1359 5.05186 15.746C5.05186 16.0884 4.77422 16.3661 4.43175 16.3661C4.08928 16.3661 3.81165 16.0884 3.81165 15.746C3.81165 14.4521 4.86431 13.3994 6.15819 13.3994C7.45208 13.3994 8.50474 14.4521 8.50474 15.746C8.50474 16.0884 8.2271 16.3661 7.88463 16.3661Z" fill="#ED2A91"/>
<path d="M14.0728 16.3661C13.7304 16.3661 13.4527 16.0884 13.4527 15.746C13.4527 15.1359 12.9564 14.6396 12.3464 14.6396C11.7364 14.6396 11.2401 15.1359 11.2401 15.746C11.2401 16.0884 10.9624 16.3661 10.62 16.3661C10.2775 16.3661 9.99985 16.0884 9.99985 15.746C9.99985 14.4521 11.0525 13.3994 12.3464 13.3994C13.6403 13.3994 14.6929 14.4521 14.6929 15.746C14.6929 16.0884 14.4153 16.3661 14.0728 16.3661Z" fill="#ED2A91"/>
</svg>
