<svg width="28" height="28" viewBox="0 0 28 28" fill="none" xmlns="http://www.w3.org/2000/svg">
<path d="M5.96657 5.50793C6.18122 5.20272 6.30743 4.83096 6.30743 4.43032C6.30743 3.39498 5.46514 2.55273 4.4298 2.55273C3.39446 2.55273 2.55222 3.39498 2.55222 4.43032C2.55222 4.83096 2.67838 5.20272 2.89303 5.50793C2.33554 5.81992 1.873 6.29844 1.58769 6.89169C1.4437 7.1911 1.5697 7.55056 1.86911 7.69455C2.16847 7.83854 2.52799 7.71255 2.67198 7.41313C2.99414 6.74321 3.68184 6.30981 4.42493 6.30795C4.42657 6.30795 4.42821 6.30795 4.4298 6.30795C4.43138 6.30795 4.43308 6.30795 4.43466 6.30795C5.17776 6.30987 5.86545 6.74321 6.18761 7.41313C6.29119 7.62849 6.50617 7.75411 6.73017 7.75411C6.81761 7.75411 6.90643 7.73491 6.99048 7.6945C7.28989 7.55051 7.41584 7.19105 7.2719 6.89163C6.9866 6.29844 6.52405 5.81998 5.96657 5.50793ZM3.75534 4.43032C3.75534 4.05839 4.05787 3.75586 4.4298 3.75586C4.80173 3.75586 5.10431 4.05839 5.10431 4.43032C5.10431 4.80121 4.80342 5.10308 4.43291 5.10478C4.43188 5.10478 4.43084 5.10478 4.4298 5.10478C4.42876 5.10478 4.42772 5.10478 4.42668 5.10478C4.05617 5.10308 3.75534 4.80121 3.75534 4.43032Z" fill="#F7F9FB"/>
<path d="M21.0098 7.69358C21.3092 7.83757 21.6686 7.71157 21.8126 7.41215C22.1348 6.74223 22.8225 6.30884 23.5656 6.30698C23.5672 6.30698 23.5689 6.30698 23.5704 6.30698C23.572 6.30698 23.5737 6.30698 23.5753 6.30698C24.3184 6.30889 25.0061 6.74223 25.3283 7.41215C25.4318 7.62751 25.6468 7.75313 25.8708 7.75313C25.9583 7.75313 26.0471 7.73393 26.1311 7.69352C26.4305 7.54953 26.5565 7.19007 26.4125 6.89066C26.1272 6.29741 25.6647 5.81895 25.1073 5.50696C25.3219 5.20174 25.4481 4.82998 25.4481 4.42934C25.4481 3.394 24.6058 2.55176 23.5705 2.55176C22.5352 2.55176 21.6929 3.39405 21.6929 4.42939C21.6929 4.83003 21.819 5.2018 22.0337 5.50701C21.4762 5.819 21.0136 6.29752 20.7283 6.89077C20.5843 7.19012 20.7103 7.54964 21.0098 7.69358ZM22.896 4.42939C22.896 4.05747 23.1985 3.75494 23.5704 3.75494C23.9424 3.75494 24.245 4.05747 24.245 4.42939C24.245 4.80028 23.9441 5.10216 23.5736 5.10385C23.5725 5.10385 23.5715 5.10385 23.5704 5.10385C23.5694 5.10385 23.5684 5.10385 23.5673 5.10385C23.1968 5.10216 22.896 4.80028 22.896 4.42939Z" fill="#F7F9FB"/>
<path d="M5.96651 24.6476C6.18122 24.3424 6.30738 23.9707 6.30738 23.57C6.30738 22.5346 5.46508 21.6924 4.42974 21.6924C3.3944 21.6924 2.55216 22.5346 2.55216 23.57C2.55216 23.9707 2.67832 24.3424 2.89303 24.6476C2.33554 24.9596 1.873 25.4381 1.58769 26.0313C1.4437 26.3307 1.5697 26.6902 1.86911 26.8342C2.16847 26.9782 2.52799 26.8522 2.67198 26.5528C2.99486 25.8814 3.68485 25.4476 4.42985 25.4476C5.17486 25.4476 5.8648 25.8814 6.18772 26.5528C6.2913 26.7681 6.50628 26.8938 6.73028 26.8938C6.81772 26.8938 6.90654 26.8746 6.99059 26.8341C7.29 26.6902 7.41595 26.3307 7.27201 26.0313C6.98654 25.4381 6.52394 24.9596 5.96651 24.6476ZM3.75528 23.57C3.75528 23.198 4.05781 22.8955 4.42974 22.8955C4.80167 22.8955 5.10426 23.198 5.10426 23.57C5.10426 23.9419 4.80167 24.2445 4.42974 24.2445C4.05781 24.2445 3.75528 23.9419 3.75528 23.57Z" fill="#F7F9FB"/>
<path d="M25.1072 24.6476C25.3219 24.3424 25.448 23.9707 25.448 23.57C25.448 22.5346 24.6057 21.6924 23.5704 21.6924C22.535 21.6924 21.6928 22.5346 21.6928 23.57C21.6928 23.9707 21.819 24.3424 22.0337 24.6476C21.4762 24.9596 21.0136 25.4381 20.7283 26.0313C20.5843 26.3307 20.7103 26.6902 21.0098 26.8342C21.3092 26.9782 21.6686 26.8522 21.8126 26.5528C22.1355 25.8814 22.8255 25.4476 23.5705 25.4476C24.3155 25.4476 25.0054 25.8814 25.3284 26.5528C25.4319 26.7681 25.6469 26.8938 25.8709 26.8938C25.9584 26.8938 26.0472 26.8746 26.1312 26.8341C26.4306 26.6902 26.5566 26.3307 26.4127 26.0313C26.1272 25.4381 25.6646 24.9596 25.1072 24.6476ZM22.8959 23.57C22.8959 23.198 23.1985 22.8955 23.5704 22.8955C23.9423 22.8955 24.2449 23.198 24.2449 23.57C24.2449 23.9419 23.9423 24.2445 23.5704 24.2445C23.1985 24.2445 22.8959 23.9419 22.8959 23.57Z" fill="#F7F9FB"/>
<path d="M19.9695 2.77261C18.1381 1.7989 16.0739 1.28418 13.9997 1.28418C11.9257 1.28418 9.86137 1.79884 8.02999 2.77261C7.73665 2.92863 7.62531 3.29285 7.78122 3.58619C7.93724 3.87948 8.30141 3.99088 8.59481 3.83496C10.2529 2.95335 12.1219 2.4873 13.9997 2.4873C15.8776 2.4873 17.7466 2.95329 19.4047 3.83496C19.4947 3.88276 19.5913 3.90546 19.6866 3.90546C19.9019 3.90546 20.1101 3.78957 20.2183 3.58619C20.3742 3.29285 20.2629 2.92863 19.9695 2.77261Z" fill="#F7F9FB"/>
<path d="M3.58579 7.78139C3.29245 7.62558 2.92823 7.73682 2.77221 8.03016C1.79845 9.86153 1.28378 11.9258 1.28378 13.9999C1.28378 16.074 1.79845 18.1383 2.77221 19.9697C2.88038 20.1731 3.08858 20.2889 3.30394 20.2889C3.39915 20.2889 3.49583 20.2662 3.58579 20.2184C3.87914 20.0624 3.99048 19.6982 3.83457 19.4049C2.95295 17.7468 2.48691 15.8778 2.48691 13.9999C2.48691 12.1221 2.9529 10.253 3.83457 8.59497C3.99054 8.30163 3.87919 7.93741 3.58579 7.78139Z" fill="#F7F9FB"/>
<path d="M19.4047 24.1652C17.7467 25.0468 15.8776 25.5128 13.9997 25.5128C12.1219 25.5128 10.2529 25.0468 8.59483 24.1651C8.30154 24.0094 7.93732 24.1206 7.78125 24.4139C7.62528 24.7073 7.73668 25.0715 8.03002 25.2275C9.86139 26.2013 11.9257 26.7159 13.9997 26.7159C16.0739 26.7159 18.1382 26.2013 19.9695 25.2275C20.2629 25.0715 20.3742 24.7073 20.2183 24.4139C20.0623 24.1207 19.6983 24.0093 19.4047 24.1652Z" fill="#F7F9FB"/>
<path d="M24.4138 20.2184C24.5039 20.2662 24.6004 20.2889 24.6957 20.2889C24.9111 20.2889 25.1193 20.173 25.2274 19.9696C26.2012 18.1383 26.7159 16.074 26.7159 13.9999C26.7159 11.9258 26.2012 9.86149 25.2274 8.03011C25.0715 7.73688 24.7074 7.62559 24.4138 7.78134C24.1205 7.93736 24.0092 8.30158 24.1651 8.59493C25.0467 10.253 25.5127 12.122 25.5127 13.9999C25.5127 15.8778 25.0467 17.7468 24.1651 19.4048C24.0091 19.6982 24.1205 20.0624 24.4138 20.2184Z" fill="#F7F9FB"/>
<path d="M19.2161 9.39433C18.4194 8.78298 17.4334 8.46984 16.4388 8.51267C15.5476 8.551 14.7142 8.86491 14 9.42666C13.2857 8.86496 12.4524 8.551 11.5612 8.51267C10.5668 8.47006 9.58056 8.78298 8.78387 9.39433C7.32897 10.5107 6.26131 12.9077 8.04045 15.9894C9.43476 18.4044 12.2546 20.6853 13.8443 21.1112C13.8953 21.1248 13.9476 21.1317 14 21.1317C14.0523 21.1317 14.1046 21.1248 14.1557 21.1112C15.7454 20.6852 18.5653 18.4044 19.9595 15.9894C21.7382 12.9081 20.6708 10.5106 19.2161 9.39433ZM18.9175 15.3878C17.6593 17.5673 15.2148 19.471 14 19.9004C12.7851 19.4711 10.3407 17.5673 9.08241 15.3878C7.69417 12.9833 8.3963 11.2082 9.5163 10.3488C10.0193 9.96287 10.6876 9.70912 11.3953 9.70912C12.1261 9.70912 12.8989 9.97993 13.5746 10.6556C13.6874 10.7684 13.8404 10.8318 14 10.8318C14.1595 10.8318 14.3125 10.7684 14.4253 10.6556C15.7552 9.32576 17.4612 9.56436 18.4837 10.3489C19.6037 11.2083 20.3058 12.9833 18.9175 15.3878Z" fill="#ED2A91"/>
<path d="M15.8294 12.7148H12.1699C11.8377 12.7148 11.5684 12.9842 11.5684 13.3164C11.5684 13.6486 11.8377 13.918 12.1699 13.918H15.8294C16.1617 13.918 16.431 13.6486 16.431 13.3164C16.431 12.9842 16.1617 12.7148 15.8294 12.7148Z" fill="#ED2A91"/>
<path d="M15.8294 15.1758H12.1699C11.8377 15.1758 11.5684 15.4451 11.5684 15.7773C11.5684 16.1096 11.8377 16.3789 12.1699 16.3789H15.8294C16.1617 16.3789 16.431 16.1096 16.431 15.7773C16.431 15.4451 16.1617 15.1758 15.8294 15.1758Z" fill="#ED2A91"/>
<path d="M4.42968 8.85936C6.87224 8.85936 8.85941 6.87224 8.85941 4.42968C8.85941 1.98712 6.87224 0 4.42968 0C1.98718 0 0 1.98712 0 4.42968C0 6.87224 1.98718 8.85936 4.42968 8.85936ZM4.42968 1.20312C6.20882 1.20312 7.65629 2.65053 7.65629 4.42968C7.65629 6.20882 6.20882 7.65624 4.42968 7.65624C2.65059 7.65624 1.20312 6.20882 1.20312 4.42968C1.20312 2.65053 2.65059 1.20312 4.42968 1.20312Z" fill="#ED2A91"/>
<path d="M23.5703 8.85936C26.0128 8.85936 28 6.87224 28 4.42968C28 1.98712 26.0128 0 23.5703 0C21.1278 0 19.1406 1.98712 19.1406 4.42968C19.1406 6.87224 21.1278 8.85936 23.5703 8.85936ZM23.5703 1.20312C25.3494 1.20312 26.7969 2.65053 26.7969 4.42968C26.7969 6.20882 25.3494 7.65624 23.5703 7.65624C21.7912 7.65624 20.3437 6.20882 20.3437 4.42968C20.3437 2.65053 21.7912 1.20312 23.5703 1.20312Z" fill="#ED2A91"/>
<path d="M4.42968 19.1406C1.98718 19.1406 0 21.1278 0 23.5703C0 26.0129 1.98718 28 4.42968 28C6.87224 28 8.85941 26.0129 8.85941 23.5703C8.85941 21.1278 6.87224 19.1406 4.42968 19.1406ZM4.42968 26.7969C2.65059 26.7969 1.20312 25.3494 1.20312 23.5703C1.20312 21.7912 2.65059 20.3437 4.42968 20.3437C6.20882 20.3437 7.65629 21.7912 7.65629 23.5703C7.65629 25.3494 6.20882 26.7969 4.42968 26.7969Z" fill="#ED2A91"/>
<path d="M23.5703 19.1406C21.1278 19.1406 19.1406 21.1278 19.1406 23.5703C19.1406 26.0129 21.1278 28 23.5703 28C26.0128 28 28 26.0129 28 23.5703C28 21.1278 26.0128 19.1406 23.5703 19.1406ZM23.5703 26.7969C21.7912 26.7969 20.3437 25.3494 20.3437 23.5703C20.3437 21.7912 21.7912 20.3437 23.5703 20.3437C25.3494 20.3437 26.7969 21.7912 26.7969 23.5703C26.7969 25.3494 25.3494 26.7969 23.5703 26.7969Z" fill="#ED2A91"/>
</svg>
