<svg width="28" height="28" viewBox="0 0 28 28" fill="none" xmlns="http://www.w3.org/2000/svg">
<path d="M25.6037 17.4072H20.4364C18.5563 17.4072 16.7888 18.1403 15.4594 19.4715C14.8376 20.0941 14.3464 20.8129 13.9998 21.5942C13.6532 20.8128 13.1621 20.0941 12.5402 19.4715C11.2108 18.1403 9.4433 17.4072 7.5632 17.4072H2.396C2.06377 17.4072 1.79443 17.6766 1.79443 18.0088V19.771C1.79443 20.1032 2.06377 20.3725 2.396 20.3725C2.72822 20.3725 2.99756 20.1032 2.99756 19.771V18.6104H7.56325C9.12168 18.6104 10.5869 19.2181 11.689 20.3216C12.7912 21.4254 13.3982 22.8929 13.3982 24.454V24.8344C13.3982 25.1667 13.6676 25.436 13.9998 25.436C14.332 25.436 14.6014 25.1667 14.6014 24.8344V24.454C14.6014 22.893 15.2085 21.4254 16.3107 20.3217C17.4127 19.2181 18.878 18.6104 20.4364 18.6104H25.0021V19.8457C25.0021 20.1779 25.2714 20.4472 25.6037 20.4472C25.9359 20.4472 26.2052 20.1779 26.2052 19.8457V18.0088C26.2052 17.6766 25.9359 17.4072 25.6037 17.4072Z" fill="#ED2A91"/>
<path d="M27.7431 18.712C27.582 18.5995 27.3762 18.5726 27.1917 18.6402L17.4521 22.2043C16.57 22.527 15.9517 23.3291 15.8492 24.2496H12.1508C12.0483 23.3291 11.43 22.527 10.5478 22.2043L0.808281 18.6402C0.623765 18.5727 0.417922 18.5995 0.256922 18.712C0.0959218 18.8246 0 19.0087 0 19.2051V21.4817C0 21.9915 0.320687 22.4535 0.798054 22.6315L8.4199 25.4735C8.45337 26.8723 9.60039 27.9997 11.0055 27.9997H16.9945C18.3996 27.9997 19.5466 26.8722 19.5801 25.4736L27.202 22.6316C27.6793 22.4536 28 21.9915 28 21.4818V19.2051C28 19.0087 27.9041 18.8246 27.7431 18.712ZM26.7969 21.4818C26.7969 21.4918 26.7907 21.5009 26.7816 21.5043L18.984 24.4119C18.6214 24.5471 18.3777 24.8981 18.3777 25.2852V25.4108C18.3777 26.175 17.7572 26.7966 16.9946 26.7966H11.0055C10.2428 26.7966 9.62232 26.175 9.62232 25.4108V25.2852C9.62232 24.8981 9.37868 24.5471 9.01605 24.4119L1.21844 21.5043C1.2093 21.5009 1.20312 21.4918 1.20312 21.4818V20.0658L10.1344 23.3342C10.6299 23.5154 10.9627 23.9923 10.9627 24.5208C10.9627 25.0347 11.3806 25.4528 11.8943 25.4528H16.1057C16.6194 25.4528 17.0373 25.0347 17.0373 24.5208C17.0373 23.9923 17.3701 23.5154 17.8656 23.3342L26.7969 20.0658V21.4818Z" fill="#F7F9FB"/>
<path d="M26.2569 3.78089L14.3097 0.0276855C14.1923 -0.00922851 14.0665 -0.00922851 13.9491 0.0276855L2.00643 3.77947C1.75848 3.85264 1.57774 4.09611 1.58064 4.35478V7.81081C0.850287 8.06171 0.323701 8.75548 0.323701 9.57049C0.323701 9.94624 0.43592 10.296 0.628092 10.5888L0.00892025 14.145C-0.0215407 14.3199 0.0268578 14.4994 0.141155 14.6353C0.255451 14.7712 0.423944 14.8497 0.601568 14.8497H3.76289C3.94051 14.8497 4.109 14.7712 4.2233 14.6353C4.3376 14.4994 4.386 14.3199 4.35554 14.145L3.73642 10.5888C3.92859 10.296 4.04081 9.94619 4.04081 9.57049C4.04081 8.75548 3.51417 8.06171 2.78382 7.81086V5.21638L7.55557 6.96769V11.8274C7.55557 12.08 7.7134 12.3057 7.95063 12.3924L9.49588 12.9572C10.9899 13.5033 12.5596 13.7763 14.1294 13.7763C15.6992 13.7763 17.269 13.5033 18.7631 12.9572L20.3083 12.3924C20.5455 12.3057 20.7033 12.08 20.7033 11.8274V6.96769L26.2839 4.91953C26.5257 4.83078 26.6841 4.59803 26.678 4.34056C26.6719 4.08309 26.5026 3.85811 26.2569 3.78089ZM1.31694 13.6466L1.7132 11.3706C1.8631 11.4097 2.02027 11.4307 2.1822 11.4307C2.34418 11.4307 2.50136 11.4097 2.65125 11.3706L3.04752 13.6466H1.31694ZM2.1822 10.2276C1.82083 10.2276 1.52683 9.93279 1.52683 9.57049C1.52683 9.20818 1.82083 8.91342 2.1822 8.91342C2.54358 8.91342 2.83763 9.20818 2.83763 9.57049C2.83763 9.93279 2.54363 10.2276 2.1822 10.2276ZM19.5001 11.4067L18.35 11.8272C15.6283 12.8219 12.6305 12.8219 9.90888 11.8272L8.7587 11.4067V7.40924L13.9221 9.30427C13.9891 9.32882 14.0592 9.34107 14.1294 9.34107C14.1996 9.34107 14.2697 9.32877 14.3367 9.30427L19.5001 7.40924V11.4067H19.5001ZM14.1294 8.09879L4.04868 4.39902L14.1294 1.23212L24.2102 4.39902L14.1294 8.09879Z" fill="#F7F9FB"/>
</svg>
