<svg width="33" height="28" viewBox="0 0 33 28" fill="none" xmlns="http://www.w3.org/2000/svg">
<path d="M31.4765 8.69466L29.8712 5.91428C29.6761 5.57646 29.2442 5.46075 28.9063 5.65576C28.4771 5.90349 27.9262 5.756 27.6783 5.32668C27.4304 4.89736 27.5781 4.34648 28.0074 4.09862C28.1696 4.00494 28.288 3.8507 28.3365 3.66969C28.3849 3.48874 28.3596 3.29597 28.2659 3.13371L26.6606 0.353265C26.4655 0.0153818 26.0335 -0.100264 25.6957 0.0947478L7.56812 10.5608C7.2303 10.7559 7.11453 11.1878 7.30961 11.5256C7.44047 11.7522 7.67786 11.8789 7.922 11.8789C8.04182 11.8789 8.1633 11.8484 8.27452 11.7842L25.7903 1.67135L26.7445 3.32397C26.0885 4.04822 25.9407 5.14239 26.4549 6.03301C26.9691 6.92363 27.9905 7.34261 28.9458 7.13675L29.9545 8.88389C29.3517 9.54586 29.1724 10.5185 29.555 11.3771C29.7138 11.7335 30.1313 11.8936 30.4876 11.7348C30.8439 11.5761 31.0041 11.1585 30.8454 10.8022C30.658 10.3816 30.8181 9.89035 31.2179 9.65958C31.5558 9.4645 31.6716 9.03248 31.4765 8.69466Z" fill="#ED2A91"/>
<path d="M20.4839 15.0296C20.4839 14.815 20.3863 14.612 20.2188 14.478C20.0513 14.344 19.8318 14.2934 19.6225 14.3404L13.2013 15.7852C12.879 15.8577 12.6501 16.144 12.6501 16.4743V20.079C12.3736 19.97 12.0698 19.9097 11.7511 19.9097C10.4764 19.9097 9.43945 20.8746 9.43945 22.0608C9.43945 23.2469 10.4764 24.2119 11.7511 24.2119C13.0258 24.2119 14.0627 23.2469 14.0627 22.0608C14.0627 22.0592 14.0627 22.0577 14.0627 22.0561V17.0394L19.0713 15.9125V18.6342C18.7948 18.5252 18.491 18.4649 18.1723 18.4649C16.8976 18.4649 15.8607 19.4299 15.8607 20.616C15.8607 21.8021 16.8976 22.7671 18.1723 22.7671C19.447 22.7671 20.4839 21.8021 20.4839 20.616C20.4839 20.6145 20.4839 20.6129 20.4839 20.6114V15.0296H20.4839ZM11.7511 22.7992C11.2638 22.7992 10.8521 22.461 10.8521 22.0608C10.8521 21.6605 11.2638 21.3223 11.7511 21.3223C12.2368 21.3223 12.6474 21.6583 12.6501 22.0569V22.0608C12.6501 22.0613 12.6501 22.0618 12.6501 22.0623C12.649 22.4619 12.2377 22.7992 11.7511 22.7992ZM18.1722 21.3544C17.6849 21.3544 17.2733 21.0162 17.2733 20.616C17.2733 20.2158 17.6849 19.8776 18.1722 19.8776C18.6579 19.8776 19.0685 20.2135 19.0712 20.6121V20.616C19.0712 20.6165 19.0712 20.617 19.0712 20.6175C19.0702 21.0171 18.6589 21.3544 18.1722 21.3544Z" fill="#ED2A91"/>
<path d="M32.1702 15.1574C32.5603 15.1574 32.8765 14.8412 32.8765 14.4511V11.2405C32.8765 10.8504 32.5603 10.5342 32.1702 10.5342H0.706332C0.316244 10.5342 0 10.8504 0 11.2405V14.4511C0 14.8412 0.316244 15.1574 0.706332 15.1574C1.20205 15.1574 1.6053 15.5607 1.6053 16.0564C1.6053 16.5521 1.20205 16.9554 0.706332 16.9554C0.316244 16.9554 0 17.2716 0 17.6617V20.8722C0 21.2623 0.316244 21.5786 0.706332 21.5786C1.20205 21.5786 1.6053 21.9818 1.6053 22.4775C1.6053 22.9733 1.20205 23.3765 0.706332 23.3765C0.316244 23.3765 0 23.6928 0 24.0828V27.2934C0 27.6835 0.316244 27.9998 0.706332 27.9998H32.1702C32.5603 27.9998 32.8765 27.6835 32.8765 27.2934V24.0828C32.8765 23.6928 32.5603 23.3765 32.1702 23.3765C31.6745 23.3765 31.2712 22.9732 31.2712 22.4775C31.2712 21.9819 31.6746 21.5786 32.1702 21.5786C32.5603 21.5786 32.8765 21.2623 32.8765 20.8722V17.6617C32.8765 17.2716 32.5603 16.9554 32.1702 16.9554C31.6745 16.9554 31.2712 16.5521 31.2712 16.0564C31.2712 15.5608 31.6745 15.1574 32.1702 15.1574ZM1.41266 24.6789C2.3429 24.3798 3.01796 23.506 3.01796 22.4776C3.01796 21.4492 2.3429 20.5755 1.41266 20.2763V18.2577C2.3429 17.9586 3.01796 17.0848 3.01796 16.0564C3.01796 15.028 2.3429 14.1543 1.41266 13.8551V11.9468H6.54956V26.5872H1.41266V24.6789ZM31.4639 13.8551C30.5336 14.1543 29.8586 15.028 29.8586 16.0564C29.8586 17.0848 30.5336 17.9586 31.4639 18.2577V20.2763C30.5336 20.5755 29.8586 21.4492 29.8586 22.4776C29.8586 23.506 30.5336 24.3798 31.4639 24.6789V26.5872H7.96222V11.9468H31.4639V13.8551Z" fill="#F7F9FB"/>
<path d="M22.6663 17.0836H27.6749C28.065 17.0836 28.3812 16.7673 28.3812 16.3772C28.3812 15.9871 28.065 15.6709 27.6749 15.6709H22.6663C22.2762 15.6709 21.96 15.9871 21.96 16.3772C21.96 16.7673 22.2761 17.0836 22.6663 17.0836Z" fill="#F7F9FB"/>
<path d="M27.6758 18.5605H22.6673C22.2772 18.5605 21.9609 18.8768 21.9609 19.2669C21.9609 19.657 22.2772 19.9732 22.6673 19.9732H27.6758C28.0659 19.9732 28.3821 19.657 28.3821 19.2669C28.3821 18.8768 28.0659 18.5605 27.6758 18.5605Z" fill="#F7F9FB"/>
<path d="M25.1715 21.4502H22.6673C22.2772 21.4502 21.9609 21.7664 21.9609 22.1565C21.9609 22.5466 22.2772 22.8629 22.6673 22.8629H25.1715C25.5616 22.8629 25.8779 22.5466 25.8779 22.1565C25.8779 21.7664 25.5617 21.4502 25.1715 21.4502Z" fill="#F7F9FB"/>
</svg>
