<svg width="35" height="28" viewBox="0 0 35 28" fill="none" xmlns="http://www.w3.org/2000/svg">
<path d="M2.13024 18.0305C1.91734 18.0305 1.70607 17.9394 1.55933 17.7628C0.580298 16.5847 0.0410156 15.0619 0.0410156 13.4749C0.0410156 11.8227 0.892457 9.90016 2.11156 8.79955C2.41562 8.52508 2.88471 8.54902 3.15924 8.85309C3.43377 9.15716 3.40976 9.62624 3.10569 9.90077C2.18958 10.7279 1.5246 12.231 1.5246 13.4749C1.5246 14.7162 1.94216 15.9023 2.70034 16.8145C2.96219 17.1296 2.91903 17.5973 2.60397 17.8592C2.46546 17.9743 2.29734 18.0305 2.13024 18.0305Z" fill="#F7F9FB"/>
<path d="M14.511 16.6007C14.4394 16.6007 14.3666 16.5902 14.2946 16.5683C13.9027 16.4489 13.6818 16.0344 13.8011 15.6425C14.0054 14.9718 14.0671 14.2715 13.9844 13.5611C13.8117 12.0777 13.2869 10.7792 12.5066 9.90458C12.2339 9.5989 12.2606 9.12995 12.5663 8.85724C12.8721 8.58446 13.3409 8.61123 13.6136 8.91692C14.5954 10.0173 15.2504 11.6057 15.458 13.3896C15.5644 14.3041 15.4845 15.2075 15.2204 16.0748C15.1229 16.3947 14.8289 16.6007 14.511 16.6007Z" fill="#F7F9FB"/>
<path d="M32.9794 27.9674H21.8338C21.4241 27.9674 21.092 27.6352 21.092 27.2256C21.092 26.8159 21.4241 26.4838 21.8338 26.4838H32.2376V21.7504C32.2376 18.3088 29.4376 15.509 25.9961 15.509C24.1448 15.509 22.2134 16.5208 20.9557 18.1498C20.7052 18.474 20.2395 18.5339 19.9152 18.2835C19.5909 18.0332 19.531 17.5673 19.7814 17.2431C21.314 15.2583 23.6952 14.0254 25.9961 14.0254C30.2557 14.0254 33.7212 17.4908 33.7212 21.7504V27.2256C33.7212 27.6352 33.3891 27.9674 32.9794 27.9674Z" fill="#ED2A91"/>
<path d="M12.2612 27.9771H0.741791C0.33212 27.9771 0 27.645 0 27.2353V21.8299C0 17.5534 3.4792 14.0742 7.7557 14.0742C10.2478 14.0742 12.7194 15.3724 14.2058 17.4622C14.4433 17.7961 14.3651 18.2591 14.0313 18.4966C13.6974 18.734 13.2343 18.6559 12.9969 18.3221C11.8024 16.6428 9.74512 15.5578 7.7557 15.5578C4.29727 15.5578 1.48358 18.3714 1.48358 21.8299V26.4935H12.2612C12.6709 26.4935 13.003 26.8256 13.003 27.2353C13.003 27.645 12.6709 27.9771 12.2612 27.9771Z" fill="#ED2A91"/>
<path d="M13.6757 8.067C13.1196 5.34726 10.7083 3.29492 7.82669 3.29492C4.59113 3.29492 1.94873 5.88236 1.85938 9.09668C1.85014 9.16216 1.8492 9.22763 1.85722 9.2917C1.87179 12.571 4.54392 15.2345 7.82669 15.2345C11.1184 15.2345 13.7964 12.5565 13.7964 9.26479C13.7964 8.72396 13.6757 8.067 13.6757 8.067ZM7.82669 4.77857C9.81739 4.77857 11.5084 6.0823 12.0933 7.88047C11.7618 7.94009 11.4021 7.9792 11.1677 7.9792C10.2461 7.9792 9.36638 7.69779 8.69054 7.18676C8.53105 7.06619 8.32956 7.01507 8.1319 7.04508C7.93418 7.07509 7.75696 7.1836 7.64043 7.34612C6.98995 8.25285 5.78501 8.81614 4.49578 8.81614C4.30284 8.81614 3.87591 8.79935 3.38046 8.67487C3.67043 6.4791 5.5531 4.77857 7.82669 4.77857ZM7.82669 13.751C5.67516 13.751 3.87328 12.2283 3.44021 10.2042C3.88218 10.2827 4.25611 10.2997 4.49578 10.2997C6.01753 10.2997 7.42356 9.73246 8.38667 8.75518C9.20972 9.21462 10.1743 9.46272 11.1677 9.46272C11.4456 9.46272 11.8781 9.42354 12.3107 9.34828C12.2659 11.7834 10.2724 13.751 7.82669 13.751Z" fill="#F7F9FB"/>
<path d="M19.5278 21.6198C20.518 20.8586 21.158 19.663 21.158 18.3202C21.158 16.0257 19.2914 14.1592 16.997 14.1592C14.7027 14.1592 12.8361 16.0258 12.8361 18.3202C12.8361 19.6629 13.4759 20.8583 14.466 21.6196C12.7166 22.5352 11.5194 24.3672 11.5194 26.4748V27.2483C11.5194 27.6577 11.851 27.9897 12.2604 27.9901L21.7314 27.9999C21.7316 27.9999 21.7319 27.9999 21.7322 27.9999C21.9287 27.9999 22.1174 27.9219 22.2564 27.7829C22.3957 27.6437 22.474 27.455 22.474 27.2581V26.4749C22.474 24.3674 21.277 22.5355 19.5278 21.6198ZM16.997 15.6428C18.4733 15.6428 19.6744 16.8439 19.6744 18.3202C19.6744 19.7965 18.4733 20.9976 16.997 20.9976C15.5207 20.9976 14.3196 19.7965 14.3196 18.3202C14.3197 16.8439 15.5207 15.6428 16.997 15.6428ZM20.9904 26.5156L13.003 26.5073V26.4748C13.003 24.2727 14.7946 22.4811 16.9968 22.4811C19.1989 22.4811 20.9904 24.2727 20.9904 26.4748V26.5156Z" fill="#F7F9FB"/>
<path d="M34.5267 4.48393C34.5267 2.01154 32.5152 0 30.0428 0C28.253 0 26.529 1.24351 25.8221 2.97074C22.4436 3.06313 19.7236 5.84006 19.7236 9.2405C19.7236 12.699 22.5374 15.5127 25.9959 15.5127C29.4544 15.5127 32.2681 12.699 32.2681 9.2405C32.2681 8.97055 32.251 8.70465 32.2178 8.44361C33.6015 7.61577 34.5267 6.0661 34.5267 4.48393ZM25.9958 4.45189C27.0925 4.45189 28.1035 4.82333 28.9117 5.44583C27.8257 7.12976 25.8591 8.26706 23.9456 8.26706C23.2075 8.26706 22.2675 8.04743 21.4627 7.70034C22.1057 5.81349 23.8941 4.45189 25.9958 4.45189ZM25.9958 14.0292C23.3554 14.0292 21.2071 11.881 21.2071 9.2405C21.2071 9.22633 21.2081 9.21244 21.2082 9.19828C22.0117 9.5072 22.9891 9.75058 23.9456 9.75058C25.2867 9.75058 26.6344 9.33639 27.8433 8.55272C28.6678 8.01823 29.3927 7.32519 29.9531 6.54739C30.2616 6.99934 30.4951 7.50632 30.6348 8.05066C30.7341 8.43781 30.7845 8.84094 30.7845 9.24043C30.7845 11.881 28.6363 14.0292 25.9958 14.0292ZM31.8208 6.91498C31.0641 5.02631 29.4145 3.58831 27.3969 3.12618C27.9596 2.16198 29.0016 1.48365 30.0427 1.48365C31.6971 1.48365 33.043 2.8296 33.043 4.48399C33.0431 5.39451 32.5584 6.31791 31.8208 6.91498Z" fill="#F7F9FB"/>
</svg>
