<svg width="24" height="28" viewBox="0 0 24 28" fill="none" xmlns="http://www.w3.org/2000/svg">
<path d="M14.1302 26.7969H12.1953V24.3178C15.6494 20.7047 17.2924 17.2402 17.082 14.0039C16.8975 11.164 15.324 9.33778 14.5267 8.58616C15.6998 6.99874 16.3398 5.06778 16.3398 3.08416C16.3398 2.31366 15.7627 1.66529 14.9974 1.57604L13.8672 1.44424C13.6209 1.41553 13.4352 1.20684 13.4352 0.958836V0.601562C13.4352 0.269336 13.1659 0 12.8336 0H10.3426C10.0103 0 9.74101 0.269336 9.74101 0.601562V0.958836C9.74101 1.20684 9.55524 1.41553 9.30898 1.44424L8.17886 1.57604C7.41351 1.66529 6.8364 2.31366 6.8364 3.08416C6.8364 5.08216 7.48597 7.02658 8.67543 8.62055C7.05214 10.2323 6.13098 12.4264 6.13098 14.7268C6.13098 16.699 6.81119 18.6156 8.04947 20.1434C7.25317 21.7745 7.2524 22.9458 7.25333 23.023C7.25738 23.3523 7.52551 23.6172 7.85484 23.6172C9.47425 23.6172 10.0797 25.1404 10.1036 25.2024C10.1742 25.3918 10.3352 25.533 10.5322 25.5784C10.577 25.5888 10.6223 25.5938 10.6673 25.5938C10.7823 25.5938 10.8952 25.5607 10.9922 25.4984V26.7969H9.05731C8.72508 26.7969 8.45575 27.0662 8.45575 27.3984C8.45575 27.7307 8.72508 28 9.05731 28H14.1302C14.4625 28 14.7318 27.7307 14.7318 27.3984C14.7318 27.0662 14.4625 26.7969 14.1302 26.7969ZM8.31821 2.77102L9.44838 2.63922C10.2188 2.54931 10.8181 1.95098 10.9266 1.20312H12.2497C12.3581 1.95098 12.9574 2.54937 13.7279 2.63922L14.858 2.77102C14.917 2.77791 14.9705 2.80087 15.0146 2.83516C13.9814 3.45625 12.8061 3.78328 11.5881 3.78328C10.37 3.78328 9.19474 3.4563 8.16158 2.83516C8.20572 2.80087 8.2592 2.77791 8.31821 2.77102ZM8.11466 4.1802C9.189 4.71018 10.3707 4.98641 11.5881 4.98641C12.8055 4.98641 13.9872 4.71023 15.0616 4.1802C14.8661 5.60011 14.2936 6.94996 13.3988 8.08084H9.77749C8.88269 6.94991 8.31022 5.60005 8.11466 4.1802ZM7.33411 14.7268C7.33411 12.6563 8.20151 10.6853 9.72122 9.28402H13.2849C13.5806 10.3138 14.0789 13.4611 10.5661 16.7979C9.76546 17.5585 9.15865 18.3077 8.69812 19.0086C7.81492 17.763 7.33411 16.2647 7.33411 14.7268ZM10.8115 24.0114C10.6527 23.7814 10.4443 23.5278 10.1803 23.2917C10.6922 22.217 11.4622 21.187 12.4753 20.2248C12.7161 19.9959 12.7259 19.6152 12.4971 19.3743C12.2682 19.1334 11.8876 19.1236 11.6467 19.3524C10.5637 20.3811 9.72783 21.489 9.15329 22.653C8.9574 22.5757 8.7457 22.5135 8.51689 22.4721C8.6774 21.5819 9.26255 19.6955 11.3947 17.6702C13.9262 15.2655 14.5794 12.9055 14.6816 11.3492C14.698 11.1001 14.7012 10.8631 14.6947 10.6395C15.2488 11.4597 15.7861 12.6141 15.8814 14.0819C15.9733 15.4949 15.6414 17.0011 14.895 18.5584C14.0549 20.3113 12.6828 22.1431 10.8115 24.0114Z" fill="#F7F9FB"/>
<path d="M2.59361 9.9587C2.38481 9.9587 2.19089 9.85042 2.08141 9.67258C1.63379 8.94573 1.01298 8.32491 0.286125 7.87724C0.108281 7.76776 0 7.57389 0 7.36504C0 7.15624 0.108336 6.96232 0.286125 6.85284C1.01292 6.40527 1.63373 5.78452 2.08135 5.05761C2.19084 4.87982 2.38476 4.77148 2.59355 4.77148C2.80241 4.77148 2.99627 4.87977 3.10581 5.05761C3.55343 5.78446 4.17419 6.40527 4.90104 6.85289C5.07883 6.96238 5.18716 7.1563 5.18716 7.36509C5.18716 7.57395 5.07888 7.76781 4.90104 7.87735C4.17419 8.32491 3.55343 8.94573 3.10581 9.67258C2.99633 9.85042 2.80246 9.9587 2.59361 9.9587ZM1.63647 7.36509C1.98641 7.65095 2.3077 7.97229 2.59355 8.32223C2.87941 7.97223 3.2007 7.65094 3.55064 7.36515C3.2007 7.0793 2.87941 6.75801 2.59355 6.40801C2.30776 6.75795 1.98647 7.07924 1.63647 7.36509Z" fill="#ED2A91"/>
<path d="M20.3527 24.937C20.1439 24.937 19.95 24.8288 19.8405 24.6509C19.3327 23.8263 18.6284 23.122 17.8036 22.614C17.6259 22.5045 17.5176 22.3106 17.5176 22.1018C17.5176 21.893 17.6259 21.6991 17.8037 21.5896C18.6284 21.0817 19.3327 20.3774 19.8405 19.5527C19.95 19.3749 20.1439 19.2666 20.3527 19.2666C20.5615 19.2666 20.7555 19.3749 20.8649 19.5527C21.3728 20.3774 22.0771 21.0818 22.9018 21.5897C23.0796 21.6992 23.1879 21.8931 23.1879 22.1019C23.1879 22.3107 23.0796 22.5046 22.9018 22.6141C22.0772 23.1219 21.3728 23.8262 20.8649 24.651C20.7555 24.8288 20.5616 24.937 20.3527 24.937ZM19.1633 22.1018C19.6027 22.4519 20.0027 22.8519 20.3527 23.2912C20.7029 22.8519 21.1028 22.4519 21.5421 22.1018C21.1028 21.7518 20.7029 21.3518 20.3527 20.9124C20.0027 21.3518 19.6027 21.7517 19.1633 22.1018Z" fill="#ED2A91"/>
</svg>
