<svg width="25" height="28" viewBox="0 0 25 28" fill="none" xmlns="http://www.w3.org/2000/svg">
<path d="M14.389 27.9995C14.0568 27.9995 13.7875 27.7302 13.7875 27.398V18.1592H10.543V27.398C10.543 27.7302 10.2736 27.9995 9.94141 27.9995C9.60918 27.9995 9.33984 27.7302 9.33984 27.398V17.5576C9.33984 17.2254 9.60918 16.9561 9.94141 16.9561H14.389C14.7213 16.9561 14.9906 17.2254 14.9906 17.5576V27.398C14.9906 27.7302 14.7213 27.9995 14.389 27.9995Z" fill="#ED2A91"/>
<path d="M6.82848 27.9996C6.49626 27.9996 6.22692 27.7303 6.22692 27.3981V22.1621H2.98242V27.3981C2.98242 27.7303 2.71309 27.9996 2.38086 27.9996C2.04863 27.9996 1.7793 27.7303 1.7793 27.3981V21.5605C1.7793 21.2283 2.04863 20.959 2.38086 20.959H6.82848C7.16071 20.959 7.43005 21.2283 7.43005 21.5605V27.3981C7.43005 27.7303 7.16071 27.9996 6.82848 27.9996Z" fill="#ED2A91"/>
<path d="M21.9503 28.0003C21.6181 28.0003 21.3488 27.7309 21.3488 27.3987V12.666C21.3488 12.3338 21.6181 12.0644 21.9503 12.0644H22.2771L19.7265 9.51386L17.176 12.0644H17.5027C17.835 12.0644 18.1043 12.3338 18.1043 12.666V27.3987C18.1043 27.7309 17.835 28.0003 17.5027 28.0003C17.1705 28.0003 16.9012 27.7309 16.9012 27.3987V13.2676H15.7237C15.4804 13.2676 15.261 13.121 15.1679 12.8962C15.0748 12.6714 15.1262 12.4126 15.2983 12.2406L19.3011 8.23773C19.5361 8.00279 19.917 8.00279 20.1519 8.23773L24.1547 12.2406C24.3268 12.4126 24.3783 12.6714 24.2851 12.8962C24.192 13.1209 23.9727 13.2676 23.7293 13.2676H22.5519V27.3987C22.5519 27.7309 22.2826 28.0003 21.9503 28.0003Z" fill="#ED2A91"/>
<path d="M23.7291 28H0.601562C0.269336 28 0 27.7307 0 27.3984C0 27.0662 0.269336 26.7969 0.601562 26.7969H23.7291C24.0614 26.7969 24.3307 27.0662 24.3307 27.3984C24.3307 27.7307 24.0614 28 23.7291 28Z" fill="#F7F9FB"/>
<path d="M7.27316 14.6016C7.27311 14.6016 7.27322 14.6016 7.27316 14.6016C6.30607 14.6016 5.38256 14.2209 4.69662 13.5483C3.73609 13.539 2.81405 13.1552 2.13041 12.4716C1.44654 11.7878 1.06258 10.8656 1.05317 9.90495C0.38057 9.21906 0 8.29566 0 7.32884C0 6.36174 0.38057 5.43823 1.05317 4.75229C1.06258 3.7917 1.44638 2.86962 2.13002 2.18602C2.8134 1.50265 3.73494 1.11874 4.69487 1.10884C5.40477 0.400859 6.32975 0 7.27295 0C8.21614 0 9.14112 0.400859 9.85102 1.10879C10.8111 1.11858 11.7323 1.50238 12.4156 2.18564C13.0994 2.86945 13.4833 3.79165 13.4927 4.75223C14.1653 5.43818 14.5459 6.36158 14.5459 7.32834C14.5459 8.29538 14.1654 9.21895 13.4927 9.90484C13.4834 10.8654 13.0995 11.7875 12.4158 12.4712C11.7321 13.1549 10.8098 13.5388 9.84927 13.5483C9.16344 14.2209 8.23993 14.6016 7.27316 14.6016ZM4.94895 12.3378C5.12236 12.3378 5.28823 12.4128 5.40291 12.5448C5.87448 13.0873 6.55616 13.3984 7.27316 13.3984C7.9899 13.3984 8.67141 13.0873 9.14304 12.5448C9.26696 12.4023 9.45093 12.3262 9.639 12.3393C10.3559 12.3893 11.0581 12.1274 11.5651 11.6205C12.0719 11.1136 12.3338 10.4117 12.2837 9.69467C12.2705 9.50627 12.3466 9.32258 12.4891 9.19871C13.0316 8.72709 13.3428 8.04541 13.3428 7.32845C13.3428 6.61172 13.0316 5.9302 12.4891 5.45858C12.3466 5.33466 12.2705 5.15102 12.2837 4.96262C12.3338 4.24555 12.0718 3.54348 11.5648 3.03652C11.058 2.52973 10.3561 2.26789 9.639 2.31793C9.45109 2.33138 9.26696 2.25504 9.14304 2.11252C8.64073 1.53453 7.95911 1.20312 7.27295 1.20312C6.58678 1.20312 5.90516 1.53453 5.40285 2.11236C5.27898 2.25487 5.09534 2.33122 4.90689 2.31777C4.18972 2.26745 3.4877 2.52968 2.98074 3.03669C2.47395 3.54348 2.212 4.24545 2.26215 4.96251C2.27533 5.15091 2.19926 5.33455 2.05674 5.45847C1.51424 5.93004 1.20307 6.61177 1.20307 7.32878C1.20307 8.04552 1.51419 8.72703 2.05674 9.19866C2.19926 9.32258 2.27533 9.50622 2.26215 9.69462C2.212 10.4117 2.47406 11.1138 2.98107 11.6208C3.48791 12.1276 4.18988 12.3893 4.90684 12.3393C4.92095 12.3383 4.93495 12.3378 4.94895 12.3378Z" fill="#ED2A91"/>
<path d="M5.04984 5.70645C4.18523 5.69174 4.31659 4.3612 5.16692 4.51536C5.86348 4.63605 5.75662 5.72384 5.04984 5.70645Z" fill="#F7F9FB"/>
<path d="M9.49659 10.1537C8.63236 10.1381 8.76383 8.80847 9.61422 8.96263C10.3112 9.08366 10.2036 10.1711 9.49659 10.1537Z" fill="#F7F9FB"/>
<path d="M5.04879 10.1537C4.89484 10.1537 4.7409 10.095 4.62343 9.97753C4.38854 9.74259 4.38854 9.3617 4.62343 9.12676L9.07105 4.67913C9.30599 4.4442 9.68689 4.4442 9.92183 4.67913C10.1568 4.91407 10.1568 5.29497 9.92183 5.52991L5.4742 9.97753C5.35673 10.0951 5.20273 10.1537 5.04879 10.1537Z" fill="#F7F9FB"/>
</svg>
