<svg width="31" height="28" viewBox="0 0 31 28" fill="none" xmlns="http://www.w3.org/2000/svg">
<path d="M23.01 5.60747C23.1717 4.32187 22.7839 2.97658 21.946 1.91667C21.0993 0.845657 19.8614 0.172212 18.4602 0.0203299H18.4601C17.2947 -0.105744 16.1153 0.361472 15.1885 1.29051C14.2616 0.361472 13.0826 -0.106041 11.9169 0.0203299C10.5156 0.172212 9.27772 0.845657 8.43116 1.91661C7.59325 2.97658 7.20542 4.32187 7.36703 5.60747C8.00784 10.7051 14.8624 14.1272 14.931 14.1566C15.0132 14.1919 15.1009 14.2096 15.1885 14.2096C15.2761 14.2096 15.3638 14.192 15.4461 14.1566C15.5146 14.1271 22.3692 10.705 23.01 5.60747ZM15.1886 12.8187C13.9939 12.1567 9.13913 9.23924 8.66212 5.44467C8.5456 4.51789 8.84207 3.50158 9.45518 2.72598C9.89926 2.16419 10.7112 1.46387 12.0576 1.31798C12.1357 1.30949 12.2139 1.30534 12.2924 1.30534C13.1503 1.30534 14.0216 1.80531 14.6626 2.67804C14.7855 2.84546 14.9809 2.94431 15.1886 2.94431C15.3963 2.94431 15.5916 2.8454 15.7146 2.67798C16.4142 1.72539 17.3885 1.21694 18.3195 1.31798C19.6659 1.46387 20.4779 2.16425 20.922 2.72603C21.535 3.50164 21.8315 4.51795 21.7149 5.44467C21.238 9.23924 16.3833 12.1567 15.1886 12.8187Z" fill="#F7F9FB"/>
<path d="M29.7239 16.8635H26.6147V15.3997C26.6147 15.0393 26.3225 14.7471 25.9621 14.7471H20.792C20.4316 14.7471 20.1394 15.0393 20.1394 15.3997V18.5723H10.2371V15.3997C10.2371 15.0393 9.94493 14.7471 9.5845 14.7471H4.41444C4.05402 14.7471 3.76182 15.0393 3.76182 15.3997V16.8635H0.65262C0.292196 16.8635 0 17.1557 0 17.5161V25.2313C0 25.5917 0.292196 25.8839 0.65262 25.8839H3.76182V27.3477C3.76182 27.7082 4.05402 28.0004 4.41444 28.0004H9.5845C9.94493 28.0004 10.2371 27.7082 10.2371 27.3477V24.1751H20.1394V27.3477C20.1394 27.7082 20.4316 28.0004 20.792 28.0004H25.9621C26.3225 28.0004 26.6147 27.7082 26.6147 27.3477V25.8839H29.7239C30.0843 25.8839 30.3765 25.5917 30.3765 25.2313V17.5161C30.3765 17.1557 30.0843 16.8635 29.7239 16.8635ZM3.76182 24.5787H1.30524V18.1687H3.76182V24.5787ZM8.93188 26.6951H5.06706V16.0523H8.93188V26.6951ZM10.2371 22.8699V19.8775H20.1394V22.8699H10.2371ZM25.3094 26.6951H21.4446V16.0523H25.3094V26.6951ZM29.0713 24.5787H26.6147V18.1687H29.0713V24.5787Z" fill="#F7F9FB"/>
<path d="M16.3854 10.178C16.1641 10.178 15.9579 10.066 15.8377 9.88026L13.6101 6.44178L12.5266 8.2992C12.4097 8.49967 12.1951 8.62302 11.9629 8.62302H7.44754C7.08712 8.62302 6.79492 8.33082 6.79492 7.9704C6.79492 7.60998 7.08712 7.31778 7.44754 7.31778H11.5881L13.0171 4.86772C13.1313 4.67194 13.339 4.54942 13.5656 4.54408C13.792 4.53946 14.0054 4.65147 14.1286 4.84168L16.3833 8.32204L17.763 6.17646C17.8831 5.98976 18.0899 5.87685 18.3119 5.87685H23.7562C24.1167 5.87685 24.4088 6.16905 24.4088 6.52947C24.4088 6.8899 24.1167 7.18209 23.7562 7.18209H18.6682L16.9343 9.87848C16.8144 10.0649 16.6081 10.1777 16.3865 10.1781C16.3861 10.178 16.3857 10.178 16.3854 10.178Z" fill="#ED2A91"/>
</svg>
