<svg width="28" height="28" viewBox="0 0 28 28" fill="none" xmlns="http://www.w3.org/2000/svg">
<path d="M10.2686 0C9.2735 0 8.46391 0.857063 8.46391 1.91056C8.46391 2.96401 9.2735 3.82107 10.2686 3.82107C11.2637 3.82107 12.0733 2.96401 12.0733 1.91056C12.0733 0.857063 11.2637 0 10.2686 0ZM10.2686 2.61795C9.93691 2.61795 9.66703 2.30059 9.66703 1.91056C9.66703 1.52048 9.93691 1.20312 10.2686 1.20312C10.6003 1.20312 10.8702 1.52048 10.8702 1.91056C10.8702 2.30059 10.6003 2.61795 10.2686 2.61795Z" fill="#ED2A91"/>
<path d="M23.5641 5.24654C24.057 5.24654 24.5601 5.05152 24.9464 4.66515C25.6913 3.9202 25.7249 2.74174 25.0212 2.03808C24.6736 1.69037 24.205 1.51083 23.6979 1.53194C23.2114 1.55245 22.7484 1.75879 22.3942 2.11294C22.0401 2.4671 21.8337 2.93008 21.8132 3.41664C21.7919 3.92233 21.9717 4.39232 22.3194 4.74002C22.658 5.07865 23.1066 5.24654 23.5641 5.24654ZM23.245 2.96361C23.3853 2.82328 23.5642 2.74174 23.7486 2.73398C23.7579 2.73359 23.7672 2.73337 23.7765 2.73337C23.9307 2.73337 24.0698 2.78801 24.1705 2.8888C24.4051 3.12335 24.3716 3.53854 24.0957 3.81438C23.8199 4.09022 23.4046 4.12375 23.1701 3.88919C23.0633 3.78239 23.0084 3.63255 23.0153 3.46728C23.0231 3.28282 23.1046 3.10399 23.245 2.96361Z" fill="#ED2A91"/>
<path d="M4.61533 10.0995C3.5061 9.90538 2.46157 10.1678 1.67434 10.8383C0.083048 12.1935 0.0824465 14.8154 1.67292 16.6829C1.95478 17.0138 2.27454 17.3068 2.62328 17.5537L3.31841 16.5717C3.05132 16.3826 2.80588 16.1576 2.58883 15.9028C1.42852 14.5404 1.36826 12.6794 2.45441 11.7543C2.96409 11.3202 3.65786 11.1534 4.40806 11.2847C5.19994 11.4232 5.95304 11.8717 6.52857 12.5475C7.00463 13.1065 7.30754 13.7597 7.40456 14.4365L8.59548 14.2658C8.4662 13.3636 8.06813 12.4997 7.44453 11.7674C6.68749 10.8785 5.68277 10.2862 4.61533 10.0995Z" fill="#ED2A91"/>
<path d="M7.4001 16.7843C6.94155 15.7719 6.23006 14.8785 5.3427 14.2007C5.07878 13.9991 4.70127 14.0495 4.49953 14.3135C4.29785 14.5776 4.34838 14.9551 4.61241 15.1568C5.34238 15.7143 5.92737 16.4488 6.30422 17.2807L7.4001 16.7843Z" fill="#ED2A91"/>
<path d="M27.4949 12.7115C27.3736 11.9383 26.8847 11.2688 26.1277 10.817C26.5684 9.19509 26.1218 7.67505 24.9596 7.00409C23.7974 6.33312 22.2578 6.70631 21.0734 7.89894C20.3037 7.46926 19.4794 7.38061 18.7491 7.66219C17.695 8.06863 17.0382 9.15598 16.9805 10.5198C16.6256 10.562 16.2896 10.6718 15.9871 10.8465C15.5065 11.124 15.1243 11.5582 14.8818 12.1022L15.9807 12.592C16.1211 12.277 16.3257 12.0403 16.5887 11.8884C16.8586 11.7326 17.174 11.6746 17.5265 11.716C17.7066 11.7371 17.8869 11.6758 18.0168 11.5491C18.1467 11.4224 18.2124 11.2438 18.1957 11.0631C18.0942 9.96694 18.4906 9.05137 19.1819 8.78482C19.6625 8.59948 20.2557 8.7373 20.8093 9.16276C21.0683 9.36183 21.4391 9.31775 21.6442 9.06334C22.4678 8.04156 23.6089 7.61369 24.358 8.0461C25.1068 8.47846 25.307 9.68076 24.8339 10.9049C24.7161 11.2097 24.8632 11.5529 25.1653 11.6777C25.8105 11.9443 26.2264 12.3892 26.3063 12.898C26.4211 13.63 25.8263 14.431 24.8263 14.8913C24.6614 14.9672 24.5397 15.1134 24.4949 15.2892C24.4501 15.4651 24.487 15.6518 24.5955 15.7973C24.8076 16.0818 24.9151 16.384 24.9151 16.6957C24.9151 16.7768 24.9066 16.8622 24.8899 16.9493L26.0714 17.1759C26.1025 17.0142 26.1182 16.8527 26.1182 16.6957C26.1182 16.3464 26.0453 16.0006 25.9043 15.6721C27.0566 14.9401 27.67 13.8277 27.4949 12.7115Z" fill="#ED2A91"/>
<path d="M22.0264 12.0856C21.7387 11.9195 21.3708 12.0181 21.2047 12.3057L18.6318 16.762L19.6738 17.3636L22.2466 12.9073C22.4127 12.6196 22.3141 12.2516 22.0264 12.0856Z" fill="#ED2A91"/>
<path d="M15.7181 7.17495C16.6115 7.17495 17.5049 6.83491 18.185 6.15481C19.5451 4.79457 19.5451 2.58137 18.185 1.22113C18.0722 1.10836 17.9191 1.04492 17.7596 1.04492C17.6001 1.04492 17.4471 1.1083 17.3342 1.22113L13.2513 5.30409C13.1385 5.41691 13.0751 5.56993 13.0751 5.72945C13.0751 5.88898 13.1384 6.04199 13.2513 6.15481C13.9314 6.83491 14.8247 7.17495 15.7181 7.17495ZM17.7028 2.55402C18.201 3.42662 18.0782 4.56012 17.3342 5.30404C16.5903 6.04801 15.4569 6.17084 14.5842 5.67263L17.7028 2.55402Z" fill="#F7F9FB"/>
<path d="M7.95085 9.63882C8.84423 9.63882 9.7376 9.29877 10.4177 8.61868C10.5305 8.50586 10.5939 8.35284 10.5939 8.19332C10.5939 8.0338 10.5305 7.88078 10.4177 7.76796L6.33473 3.68499C6.22191 3.57217 6.06889 3.50879 5.90937 3.50879C5.74984 3.50879 5.59677 3.57217 5.48401 3.68499C4.12382 5.04523 4.12382 7.25844 5.48401 8.61868C6.1641 9.29877 7.05748 9.63882 7.95085 9.63882ZM5.96619 5.01789L9.0848 8.1365C8.21209 8.63476 7.0787 8.51187 6.33473 7.76791C5.59076 7.02399 5.46793 5.89048 5.96619 5.01789Z" fill="#F7F9FB"/>
<path d="M27.3984 16.461H18.9937C18.9297 14.812 17.7104 13.4554 16.1242 13.1783C16.1252 13.1449 16.1271 13.1115 16.1271 13.0782C16.1271 11.1639 14.5696 9.60645 12.6554 9.60645C10.7412 9.60645 9.18373 11.1639 9.18373 13.0782C9.18373 13.1115 9.18564 13.1449 9.18662 13.1783C7.6003 13.4554 6.38105 14.812 6.31701 16.461H0.601562C0.269336 16.461 0 16.7303 0 17.0625C0 23.0935 4.90656 28 10.9375 28H17.0625C23.0934 28 28 23.0935 28 17.0625C28 16.7303 27.7307 16.461 27.3984 16.461ZM15.5255 14.3287C16.7306 14.3287 17.7189 15.2733 17.7896 16.461H13.2614C13.3322 15.2733 14.3204 14.3287 15.5255 14.3287ZM12.6553 10.8096C13.9062 10.8096 14.9239 11.8273 14.9239 13.0782C14.9239 13.1119 14.9225 13.1456 14.9209 13.1793C13.9824 13.3449 13.1725 13.888 12.6553 14.6466C12.1381 13.888 11.3282 13.3449 10.3896 13.1793C10.3881 13.1456 10.3867 13.1118 10.3867 13.0782C10.3868 11.8273 11.4045 10.8096 12.6553 10.8096ZM9.78523 14.3287C10.9903 14.3287 11.9786 15.2733 12.0494 16.461H7.52106C7.59183 15.2733 8.58009 14.3287 9.78523 14.3287ZM17.0625 26.7969H10.9375C6.82516 26.7969 3.30034 24.2333 1.87655 20.6205H26.1234C24.6997 24.2333 21.1748 26.7969 17.0625 26.7969ZM26.5081 19.4174H1.49188C1.35056 18.8507 1.2583 18.2648 1.2215 17.6641H26.7785C26.7417 18.2648 26.6495 18.8507 26.5081 19.4174Z" fill="#F7F9FB"/>
</svg>
