<svg width="36" height="28" viewBox="0 0 36 28" fill="none" xmlns="http://www.w3.org/2000/svg">
<path d="M21.8875 5.49571V3.85352H20.3464V5.49571C20.3464 6.82617 19.264 7.90857 17.9335 7.90857C16.603 7.90857 15.5206 6.82617 15.5206 5.49571V3.85352H13.9795V5.49571C13.9795 7.67599 15.7532 9.44975 17.9335 9.44975C20.1138 9.44975 21.8875 7.67599 21.8875 5.49571Z" fill="#ED2A91"/>
<path d="M9.70566 7.55957C7.7485 7.55957 6.15625 9.15182 6.15625 11.109C6.15625 13.0662 7.7485 14.6585 9.70566 14.6585C11.6628 14.6585 13.2551 13.0662 13.2551 11.109C13.2551 9.15182 11.6628 7.55957 9.70566 7.55957ZM9.70566 13.1173C8.59832 13.1173 7.69743 12.2164 7.69743 11.109C7.69743 10.0016 8.59832 9.10075 9.70566 9.10075C10.8131 9.10075 11.714 10.0016 11.714 11.109C11.714 12.2164 10.813 13.1173 9.70566 13.1173Z" fill="#ED2A91"/>
<path d="M26.1608 7.55957C24.2036 7.55957 22.6113 9.15182 22.6113 11.109C22.6113 13.0662 24.2036 14.6585 26.1608 14.6585C28.118 14.6585 29.7102 13.0662 29.7102 11.109C29.7103 9.15182 28.118 7.55957 26.1608 7.55957ZM26.1608 13.1173C25.0534 13.1173 24.1525 12.2164 24.1525 11.109C24.1525 10.0016 25.0534 9.10075 26.1608 9.10075C27.2681 9.10075 28.169 10.0016 28.169 11.109C28.1691 12.2164 27.2681 13.1173 26.1608 13.1173Z" fill="#ED2A91"/>
<path d="M15.8317 16.2998H13.4513C13.0257 16.2998 12.6807 16.6448 12.6807 17.0704C12.6807 17.496 13.0257 17.841 13.4513 17.841H15.8317C16.2572 17.841 16.6023 17.496 16.6023 17.0704C16.6023 16.6448 16.2572 16.2998 15.8317 16.2998Z" fill="#ED2A91"/>
<path d="M22.4157 16.2998H20.0352C19.6097 16.2998 19.2646 16.6448 19.2646 17.0704C19.2646 17.496 19.6097 17.841 20.0352 17.841H22.4157C22.8412 17.841 23.1862 17.496 23.1862 17.0704C23.1862 16.6448 22.8413 16.2998 22.4157 16.2998Z" fill="#ED2A91"/>
<path d="M35.6998 20.3491L33.2759 10.0291C32.8136 8.06079 31.6862 6.28528 30.1015 5.02964C29.8559 4.83503 29.6006 4.65401 29.337 4.487V2.8722C29.337 1.2885 28.0485 0 26.4648 0H23.3823C22.9568 0 22.6117 0.345014 22.6117 0.77059V3.08243H13.2552V0.77059C13.2552 0.345014 12.9102 0 12.4847 0H9.40216C7.81846 0 6.52996 1.2885 6.52996 2.8722V4.48693C6.26642 4.65394 6.01108 4.83496 5.76547 5.02957C4.18072 6.28521 3.05341 8.06072 2.59113 10.029L0.167206 20.3491C-0.270349 22.2118 0.16027 24.1403 1.34859 25.6401C2.53684 27.1398 4.31578 28 6.22922 28C9.13428 28 11.6271 26.0248 12.2913 23.1968L12.6607 21.624H23.2062L23.5756 23.1968C24.2398 26.0248 26.7326 28 29.6377 28C31.5511 28 33.3301 27.1399 34.5183 25.6401C35.7067 24.1403 36.1373 22.2119 35.6998 20.3491ZM24.1529 1.54118H26.4648C27.1988 1.54118 27.7959 2.13825 27.7959 2.8722V3.70626C26.7535 3.29791 25.6367 3.08243 24.5087 3.08243H24.1529V1.54118ZM8.07114 2.8722C8.07114 2.13825 8.66821 1.54118 9.40216 1.54118H11.7141V3.08243H11.3583C10.2303 3.08243 9.1134 3.29791 8.07114 3.70626V2.8722ZM6.22922 26.4588C4.78934 26.4588 3.45069 25.8116 2.55652 24.683C1.66236 23.5545 1.33829 22.1032 1.66754 20.7015L2.3367 17.8526C3.77763 17.9676 5.03593 18.9228 5.52308 20.3021C6.26019 22.3891 8.24249 23.7912 10.4558 23.7912H10.4602C9.69772 25.4005 8.07387 26.4588 6.22922 26.4588ZM12.0502 20.0828C11.6925 20.0828 11.3818 20.329 11.3001 20.6772L10.9307 22.25H10.4559C8.89462 22.25 7.49628 21.2609 6.97634 19.7888C6.31203 17.9081 4.63634 16.5841 2.69187 16.3406L4.09147 10.3815C4.47466 8.75004 5.40911 7.27843 6.72261 6.23764C8.03612 5.19693 9.68244 4.62375 11.3583 4.62375H24.5088C26.1846 4.62375 27.831 5.19693 29.1445 6.23764C30.458 7.27843 31.3925 8.75004 31.7757 10.3815L33.1753 16.3406C31.2308 16.5841 29.5551 17.9081 28.8908 19.7888C28.3709 21.2609 26.9725 22.25 25.4112 22.25H24.9365L24.5671 20.6772C24.4853 20.329 24.1746 20.0828 23.8169 20.0828H12.0502ZM33.3105 24.683C32.4162 25.8116 31.0776 26.4588 29.6378 26.4588C27.7931 26.4588 26.1693 25.4005 25.4068 23.7912H25.4112C27.6245 23.7912 29.6068 22.389 30.3439 20.3021C30.8311 18.9228 32.0894 17.9676 33.5303 17.8526L34.1995 20.7015C34.5287 22.1032 34.2047 23.5545 33.3105 24.683Z" fill="#F7F9FB"/>
</svg>
