<svg width="28" height="28" viewBox="0 0 28 28" fill="none" xmlns="http://www.w3.org/2000/svg">
<path d="M16.6137 8.73326C16.3535 8.73326 16.1228 8.90055 16.042 9.14785L15.3068 11.3956L13.2649 5.15189C13.184 4.90459 12.9533 4.7373 12.6931 4.7373C12.4329 4.7373 12.2022 4.90459 12.1214 5.15189L10.9501 8.73326H4.08645V9.93639H11.3862C11.6464 9.93639 11.8771 9.7691 11.9579 9.5218L12.6931 7.27409L14.735 13.5178C14.8159 13.7651 15.0466 13.9323 15.3068 13.9323C15.567 13.9323 15.7977 13.7651 15.8785 13.5178L17.0498 9.93639H23.9135V8.73326H16.6137Z" fill="#ED2A91"/>
<path d="M27.3984 12.4258H26.7418C25.2039 12.4258 23.9527 13.6769 23.9527 15.2148V17.1304C23.467 16.7544 22.874 16.5506 22.2497 16.5506C21.5047 16.5506 20.8043 16.8408 20.2776 17.3676L16.9663 20.6788C15.923 21.7221 15.3485 23.1091 15.3485 24.5844V27.3984C15.3485 27.7307 15.6178 28 15.9501 28H21.2299C21.5621 28 21.8314 27.7307 21.8314 27.3984V25.5596L26.5743 20.8168C27.4937 19.8973 28 18.6749 28 17.3747V13.0273C28 12.6951 27.7307 12.4258 27.3984 12.4258ZM26.7969 17.3747C26.7969 18.3536 26.4157 19.2739 25.7235 19.966L20.8045 24.885C20.6917 24.9978 20.6283 25.1508 20.6283 25.3104V26.7969H16.5516V24.5845C16.5516 23.4305 17.001 22.3456 17.817 21.5296L21.1284 18.2183C21.4279 17.9188 21.8262 17.7538 22.2498 17.7538C22.6734 17.7538 23.0716 17.9188 23.3712 18.2183L23.4101 18.2573L20.8337 20.8337C20.5988 21.0686 20.5988 21.4495 20.8337 21.6845C21.0687 21.9194 21.4495 21.9194 21.6845 21.6845L24.5633 18.8056C24.9455 18.4234 25.156 17.9152 25.156 17.3747V15.2148C25.156 14.3403 25.8675 13.6289 26.7419 13.6289H26.7969V17.3747Z" fill="#F7F9FB"/>
<path d="M7.72242 17.3676C7.19567 16.8408 6.49529 16.5506 5.75028 16.5506C5.12597 16.5506 4.53305 16.7544 4.04726 17.1304V15.2148C4.04726 13.6769 2.79606 12.4258 1.25819 12.4258H0.601562C0.269336 12.4258 0 12.6951 0 13.0273V17.3748C0 18.675 0.506351 19.8974 1.4257 20.8168L6.16858 25.5596V27.3984C6.16858 27.7306 6.43792 28 6.77015 28H12.0499C12.3822 28 12.6515 27.7306 12.6515 27.3984V24.5845C12.6515 23.1091 12.077 21.7221 11.0337 20.6788L7.72242 17.3676ZM11.4484 26.7968H7.37171V25.3104C7.37171 25.1508 7.30833 24.9978 7.19551 24.885L2.27648 19.966C1.58435 19.2739 1.20312 18.3535 1.20312 17.3747V13.6288H1.25819C2.13265 13.6288 2.84413 14.3402 2.84413 15.2147V17.3746C2.84413 17.9151 3.05462 18.4232 3.43684 18.8056L6.31564 21.6844C6.55063 21.9193 6.93142 21.9193 7.16641 21.6844C7.40135 21.4494 7.40135 21.0685 7.16641 20.8336L4.58992 18.2572L4.62886 18.2183C4.92844 17.9187 5.32667 17.7538 5.75028 17.7538C6.17389 17.7538 6.57218 17.9188 6.8717 18.2183L10.183 21.5295C10.999 22.3455 11.4484 23.4305 11.4484 24.5845V26.7968H11.4484Z" fill="#F7F9FB"/>
<path d="M25.0436 7.98361C25.3125 6.75029 25.2179 5.45962 24.77 4.25113C23.8214 1.69132 21.5458 0.063164 18.8313 0.00207812C18.7707 0.000710937 18.7101 0 18.6492 0C16.9804 0 15.3474 0.530414 14 1.50199C12.6526 0.530414 11.0196 0 9.35082 0C9.28995 0 9.22925 0.000710937 9.1686 0.00207812C6.45424 0.063164 4.17864 1.69132 3.22998 4.25113C2.78214 5.45962 2.68748 6.75029 2.95638 7.98361C3.24551 9.30978 3.9501 10.5069 4.99403 11.4455L13.5978 19.1814C13.7121 19.2842 13.8561 19.3356 14 19.3356C14.1439 19.3356 14.2878 19.2842 14.4021 19.1814L23.006 11.4455C24.0499 10.5069 24.7545 9.30983 25.0436 7.98361ZM22.2016 10.5509L14 17.9251L5.79843 10.5509C3.79649 8.75082 3.7418 6.33232 4.35813 4.66922C5.13163 2.58207 6.98526 1.25464 9.19562 1.20482C9.24719 1.20367 9.29892 1.20307 9.35082 1.20307C10.9033 1.20307 12.4191 1.74387 13.619 2.72584C13.8407 2.90719 14.1594 2.90719 14.381 2.72584C15.5809 1.74393 17.0968 1.20312 18.6492 1.20312C18.7011 1.20312 18.7529 1.20373 18.8043 1.20487C21.0148 1.25464 22.8684 2.58212 23.6419 4.66927C24.2582 6.33237 24.2036 8.75082 22.2016 10.5509Z" fill="#F7F9FB"/>
</svg>
