<svg width="29" height="28" viewBox="0 0 29 28" fill="none" xmlns="http://www.w3.org/2000/svg">
<path d="M24.0713 12.5017V25.781C24.0713 26.3345 23.6239 26.7848 23.0739 26.7848H18.9095V16.8097C18.9095 16.4741 18.6374 16.202 18.3018 16.202H9.98264C9.64704 16.202 9.37497 16.4741 9.37497 16.8097V26.7848H5.21053C4.66054 26.7848 4.21313 26.3345 4.21313 25.781V12.5017C4.21313 12.1661 2.9978 12.1661 2.9978 12.5017V25.781C2.9978 27.0046 3.9904 28.0001 5.21053 28.0001H23.0739C24.294 28.0001 25.2866 27.0046 25.2866 25.781V12.5017C25.2866 12.1661 24.0713 12.1661 24.0713 12.5017ZM10.5903 17.4174H17.6942V26.7848H10.5903V17.4174Z" fill="#F7F9FB"/>
<path d="M25.6758 13.0777C25.1531 13.0777 24.6475 12.9217 24.2138 12.6267L14.1428 5.7758L4.07188 12.6267C3.63817 12.9217 3.13259 13.0776 2.60972 13.0776C1.74247 13.0776 0.934721 12.6479 0.448975 11.9281C0.0588543 11.3501 -0.083726 10.6541 0.0475849 9.96864C0.178896 9.28275 0.568575 8.68923 1.14475 8.29723L12.6793 0.450832C13.1129 0.155894 13.619 0 14.1428 0C14.6666 0 15.1728 0.155894 15.6064 0.450777L19.7947 3.30001C20.2194 2.42066 21.1211 1.81576 22.1441 1.81576C23.5819 1.81576 24.7517 2.98905 24.7517 4.43126V6.672L27.1409 8.29723C28.3298 9.10603 28.6419 10.7348 27.8367 11.9281C27.351 12.6478 26.5432 13.0776 25.6761 13.0776C25.676 13.0777 25.6759 13.0777 25.6758 13.0777ZM14.1428 4.43319C14.2621 4.43319 14.3815 4.46827 14.4846 4.53843L24.8973 11.6218C25.1287 11.7792 25.3979 11.8623 25.6759 11.8623C25.6759 11.8623 25.6759 11.8623 25.676 11.8623C26.1387 11.8623 26.5699 11.6328 26.8293 11.2483C27.261 10.6085 27.0942 9.7354 26.4573 9.30219L23.8022 7.49605C23.6358 7.38291 23.5363 7.19476 23.5363 6.99362V4.43132C23.5363 3.65925 22.9117 3.03114 22.1441 3.03114C21.4209 3.03114 20.8112 3.59854 20.756 4.32299C20.7395 4.5392 20.609 4.73023 20.4137 4.82431C20.2183 4.91839 19.9876 4.90121 19.8083 4.77923L14.9228 1.45574C14.6916 1.29853 14.4219 1.21539 14.1428 1.21539C13.8637 1.21539 13.594 1.29847 13.3629 1.45574L1.82838 9.30214C1.52012 9.51178 1.31164 9.8297 1.24126 10.1972C1.17083 10.565 1.24723 10.9384 1.45643 11.2483C1.7159 11.6327 2.14701 11.8622 2.60978 11.8622C2.88781 11.8622 3.15706 11.7791 3.38836 11.6217L13.801 4.53843C13.9042 4.46827 14.0235 4.43319 14.1428 4.43319Z" fill="#ED2A91"/>
</svg>
