<svg width="32" height="28" viewBox="0 0 32 28" fill="none" xmlns="http://www.w3.org/2000/svg">
<path d="M23.9996 24.0612C23.6315 24.0612 23.333 23.7627 23.333 23.3946V21.6976H7.69661V23.3946C7.69661 23.7627 7.39813 24.0612 7.02995 24.0612C6.66177 24.0612 6.36328 23.7627 6.36328 23.3946V21.0309C6.36328 20.6627 6.66177 20.3643 7.02995 20.3643H23.9996C24.3678 20.3643 24.6663 20.6627 24.6663 21.0309V23.3946C24.6663 23.7628 24.3679 24.0612 23.9996 24.0612Z" fill="#ED2A91"/>
<path d="M26.8354 16.9497C26.605 16.9497 26.3809 16.8302 26.2574 16.6163C26.0733 16.2974 26.1826 15.8897 26.5014 15.7056L28.4313 14.5914C28.7501 14.4073 29.1579 14.5165 29.342 14.8354C29.526 15.1542 29.4168 15.562 29.098 15.746L27.1681 16.8603C27.0632 16.9209 26.9485 16.9497 26.8354 16.9497Z" fill="#ED2A91"/>
<path d="M24.9355 15.0516C24.8224 15.0516 24.7078 15.0227 24.6027 14.9621C24.2839 14.778 24.1746 14.3703 24.3587 14.0514L25.473 12.1215C25.6572 11.8027 26.0648 11.6934 26.3836 11.8775C26.7025 12.0616 26.8118 12.4693 26.6276 12.7882L25.5134 14.7181C25.3899 14.932 25.1658 15.0516 24.9355 15.0516Z" fill="#ED2A91"/>
<path d="M29.7575 19.5423H27.529C27.1608 19.5423 26.8623 19.2438 26.8623 18.8757C26.8623 18.5075 27.1608 18.209 27.529 18.209H29.7575C30.1256 18.209 30.4241 18.5075 30.4241 18.8757C30.4241 19.2438 30.1257 19.5423 29.7575 19.5423Z" fill="#ED2A91"/>
<path d="M30.9887 27.1013L29.6388 23.4649C29.5418 23.2037 29.2925 23.0303 29.0138 23.0303H2.01657C1.73784 23.0303 1.48857 23.2037 1.3916 23.4649L0.0417201 27.1013C-0.0342193 27.3059 -0.00518904 27.5348 0.119417 27.7139C0.243962 27.8932 0.448447 28 0.66669 28H30.3637C30.582 28 30.7864 27.8931 30.911 27.7139C31.0356 27.5348 31.0646 27.306 30.9887 27.1013ZM1.6253 26.6666L2.48021 24.3636H28.5502L29.4051 26.6666H1.6253Z" fill="#F7F9FB"/>
<path d="M0.666667 9.93939C0.298485 9.93939 0 10.2379 0 10.6061C0 10.9742 0.298485 11.2727 0.666667 11.2727H10.0001V14.1818H9.45455C9.08636 14.1818 8.78788 14.4803 8.78788 14.8485V17.5152C8.78788 17.8833 9.08636 18.1818 9.45455 18.1818H21.5758C21.9439 18.1818 22.2424 17.8833 22.2424 17.5152V14.8485C22.2424 14.4803 21.9439 14.1818 21.5758 14.1818H21.0303V4H21.5758C21.9439 4 22.2424 3.70151 22.2424 3.33333V0.666667C22.2424 0.298485 21.9439 0 21.5758 0H9.45455C9.08636 0 8.78788 0.298485 8.78788 0.666667V3.33333C8.78788 3.70151 9.08636 4 9.45455 4H10.0001V6.90909H0.666667C0.298485 6.90909 0 7.20758 0 7.57576C0 7.94394 0.298485 8.24242 0.666667 8.24242H10.0001V9.93939H0.666667ZM20.9091 16.8485H10.1212V15.5152H20.9091V16.8485ZM10.1212 1.33333H20.9091V2.66667H10.1212V1.33333ZM19.697 4V14.1818H11.3334V4H19.697Z" fill="#F7F9FB"/>
</svg>
