<svg width="31" height="28" viewBox="0 0 31 28" fill="none" xmlns="http://www.w3.org/2000/svg">
<path d="M28.1708 7.58921H27.4711V4.97242C27.4711 4.60904 27.1765 4.31445 26.8131 4.31445H21.6305C21.2672 4.31445 21.6261 5.63039 21.9894 5.63039H26.1551V21.8306H17.3293C16.7641 21.8306 16.3196 21.9412 15.9706 22.1077V18.6094C15.9706 18.2461 14.6547 18.2461 14.6547 18.6094V22.1056C14.2962 21.9361 13.8492 21.8306 13.296 21.8306H4.47023V5.63039H8.44602C8.8094 5.63039 9.2281 4.31445 8.86473 4.31445H3.81226C3.44888 4.31445 3.15429 4.60904 3.15429 4.97242V7.58921H2.45452C1.10108 7.58921 0 8.69185 0 10.0472V24.3497C0 25.7051 1.10108 26.8077 2.45452 26.8077H12.5292C12.7947 27.504 13.4688 27.9999 14.2563 27.9999H16.369C17.1566 27.9999 17.8307 27.504 18.0961 26.8077H28.1708C29.5243 26.8077 30.6254 25.7051 30.6254 24.3497V10.0472C30.6254 8.69185 29.5243 7.58921 28.1708 7.58921ZM29.3094 24.3497C29.3094 24.9795 28.7987 25.4918 28.1708 25.4918H17.5589C17.1955 25.4918 16.901 25.7864 16.901 26.1497C16.901 26.4443 16.6624 26.6839 16.369 26.6839H14.2563C13.9631 26.6839 13.7244 26.4443 13.7244 26.1497C13.7244 25.7864 13.4298 25.4918 13.0664 25.4918H2.45452C1.8267 25.4918 1.31593 24.9795 1.31593 24.3497V10.0472C1.31593 9.41746 1.8267 8.90515 2.45452 8.90515H3.15429V22.4886C3.15429 22.852 3.44888 23.1466 3.81226 23.1466H13.296C14.5142 23.1466 14.6442 23.9068 14.655 24.1423C14.6641 24.4987 14.9557 24.7833 15.3126 24.7832H15.3142C15.6708 24.7824 15.9613 24.4977 15.9704 24.1421C15.9811 23.9067 16.1112 23.1465 17.3293 23.1465H26.8131C27.1765 23.1465 27.4711 22.852 27.4711 22.4886V8.90515H28.1708C28.7987 8.90515 29.3094 9.41746 29.3094 10.0472V24.3497Z" fill="#F7F9FB"/>
<path d="M21.7859 16.815H23.8569C24.2203 16.815 24.5148 16.5204 24.5148 16.157C24.5148 15.7936 24.2203 15.499 23.8569 15.499H21.7859C21.4225 15.499 21.1279 15.7936 21.1279 16.157C21.1279 16.5204 21.4225 16.815 21.7859 16.815Z" fill="#F7F9FB"/>
<path d="M21.7859 19.8921H23.8569C24.2203 19.8921 24.5148 19.5975 24.5148 19.2341C24.5148 18.8708 24.2203 18.5762 23.8569 18.5762H21.7859C21.4225 18.5762 21.1279 18.8708 21.1279 19.2341C21.1279 19.5975 21.4225 19.8921 21.7859 19.8921Z" fill="#F7F9FB"/>
<path d="M8.8393 15.499H6.76832C6.40494 15.499 6.11035 15.7936 6.11035 16.157C6.11035 16.5204 6.40494 16.815 6.76832 16.815H8.8393C9.20268 16.815 9.49727 16.5204 9.49727 16.157C9.49727 15.7936 9.20268 15.499 8.8393 15.499Z" fill="#F7F9FB"/>
<path d="M8.8393 18.5762H6.76832C6.40494 18.5762 6.11035 18.8708 6.11035 19.2341C6.11035 19.5975 6.40494 19.8921 6.76832 19.8921H8.8393C9.20268 19.8921 9.49727 19.5975 9.49727 19.2341C9.49727 18.8708 9.20268 18.5762 8.8393 18.5762Z" fill="#F7F9FB"/>
<path d="M20.4436 2.10488C19.0398 0.720519 17.1817 -0.0262137 15.2087 0.000703086C13.2957 0.0273806 11.4936 0.795706 10.1342 2.16416C8.77514 3.53237 8.01776 5.34046 8.00143 7.25545C7.98067 9.6907 9.16573 11.9697 11.1714 13.3519C11.656 13.6858 11.9453 14.2406 11.9453 14.836V15.6074C11.9453 17.4659 13.4559 18.9779 15.3127 18.9779C17.1695 18.9779 18.6801 17.4659 18.6801 15.6074V14.8362C18.6801 14.2431 18.9767 13.6831 19.4736 13.3384C21.4463 11.9694 22.6242 9.71929 22.6242 7.31927C22.6241 5.34345 21.8498 3.49164 20.4436 2.10488ZM17.3642 15.6074C17.3642 16.7403 16.4439 17.662 15.3127 17.662C14.1815 17.662 13.2612 16.7403 13.2612 15.6074V14.8361C13.2612 14.6967 13.2519 14.5586 13.2339 14.4225H17.392C17.3736 14.5588 17.3642 14.6969 17.3642 14.8362V15.6074ZM18.7233 12.2572C18.3892 12.4891 18.108 12.7785 17.8896 13.1066H15.9707V9.27259C15.9707 8.84156 16.3206 8.49099 16.7506 8.49099C17.114 8.49099 17.4086 8.1964 17.4086 7.83302C17.4086 7.46964 17.114 7.17505 16.7506 7.17505C16.1945 7.17505 15.6883 7.39296 15.3127 7.74796C14.9371 7.39302 14.4309 7.17505 13.8748 7.17505C13.5114 7.17505 13.2168 7.46964 13.2168 7.83302C13.2168 8.1964 13.5114 8.49099 13.8748 8.49099C14.3048 8.49099 14.6547 8.84162 14.6547 9.27259V13.1066H12.7412C12.5255 12.7812 12.2479 12.4956 11.9182 12.2684C10.2726 11.1344 9.30031 9.26464 9.31742 7.26675C9.34494 4.03087 11.996 1.36162 15.2272 1.31658C15.2559 1.31616 15.2845 1.31598 15.3132 1.31598C16.8982 1.31598 18.389 1.92693 19.5196 3.04189C20.673 4.17939 21.3082 5.6984 21.3082 7.31921C21.3082 9.28808 20.3419 11.134 18.7233 12.2572Z" fill="#ED2A91"/>
</svg>
