<svg width="28" height="28" viewBox="0 0 28 28" fill="none" xmlns="http://www.w3.org/2000/svg">
<path d="M22.9071 7.04373C23.9663 7.04373 24.8279 6.18207 24.8279 5.12294C24.8279 4.0638 23.9663 3.20215 22.9071 3.20215C21.848 3.20215 20.9863 4.0638 20.9863 5.12294C20.9863 6.18207 21.848 7.04373 22.9071 7.04373ZM22.9071 4.40533C23.3028 4.40533 23.6248 4.72727 23.6248 5.12299C23.6248 5.51871 23.3028 5.84066 22.9071 5.84066C22.5114 5.84066 22.1895 5.51871 22.1895 5.12299C22.1895 4.72727 22.5114 4.40533 22.9071 4.40533Z" fill="#F7F9FB"/>
<path d="M17.834 6.23153C17.7927 6.38564 17.8143 6.54987 17.8941 6.68801L19.0452 8.68181C19.125 8.81995 19.2563 8.92079 19.4105 8.96208C19.5646 9.00337 19.7288 8.98177 19.867 8.90198L20.2931 8.65599C20.5602 8.85331 20.8501 9.02087 21.154 9.15354V9.64502C21.154 9.97724 21.4233 10.2466 21.7556 10.2466H24.0578C24.39 10.2466 24.6593 9.97724 24.6593 9.64502V9.15354C24.9633 9.02087 25.2532 8.85336 25.5203 8.65599L25.9463 8.90198C26.0844 8.98171 26.2486 9.00337 26.4028 8.96208C26.5569 8.92079 26.6883 8.81995 26.7681 8.68181L27.9192 6.68801C28.0853 6.4003 27.9867 6.03236 27.699 5.86627L27.2731 5.62034C27.292 5.45492 27.3015 5.28877 27.3015 5.12324C27.3015 4.9577 27.292 4.79156 27.2731 4.62613L27.699 4.3802C27.9867 4.21406 28.0853 3.84617 27.9192 3.55846L26.7681 1.56472C26.6019 1.27695 26.234 1.17846 25.9463 1.34455L25.5203 1.59053C25.2532 1.39322 24.9633 1.22571 24.6594 1.09304V0.601563C24.6594 0.269336 24.39 0 24.0578 0H21.7556C21.4234 0 21.1541 0.269336 21.1541 0.601563V1.09304C20.8502 1.22571 20.5602 1.39327 20.2931 1.59059L19.867 1.3446C19.5793 1.17852 19.2114 1.27706 19.0453 1.56477L17.8942 3.55852C17.8145 3.69666 17.7928 3.86088 17.8341 4.01499C17.8754 4.1691 17.9762 4.30052 18.1144 4.38025L18.5403 4.62618C18.5214 4.79161 18.5119 4.95775 18.5119 5.12329C18.5119 5.28883 18.5214 5.45497 18.5403 5.6204L18.1144 5.86633C17.9761 5.94601 17.8753 6.07742 17.834 6.23153ZM19.7887 5.80552C19.7397 5.58037 19.7148 5.35079 19.7148 5.12324C19.7148 4.89568 19.7397 4.6661 19.7887 4.44095C19.8444 4.18524 19.7284 3.92284 19.5017 3.79203L19.2368 3.63907L19.7863 2.68729L20.0513 2.84025C20.2781 2.97123 20.5637 2.94033 20.7573 2.76391C21.1002 2.45137 21.4974 2.22184 21.9378 2.08168C22.1874 2.00222 22.357 1.7704 22.357 1.50845V1.20313H23.4561V1.50845C23.4561 1.77045 23.6256 2.00227 23.8753 2.08168C24.3157 2.22184 24.7129 2.45131 25.0558 2.76385C25.2493 2.94038 25.535 2.97123 25.7618 2.84025L26.0267 2.68729L26.5763 3.63907L26.3113 3.79203C26.0846 3.9229 25.9687 4.18524 26.0243 4.44095C26.0733 4.66605 26.0982 4.89557 26.0982 5.12324C26.0982 5.3509 26.0733 5.58042 26.0243 5.80552C25.9687 6.06124 26.0847 6.32357 26.3113 6.45444L26.5763 6.6074L26.0267 7.55924L25.7618 7.40622C25.535 7.27524 25.2494 7.30609 25.0557 7.48262C24.7129 7.7951 24.3157 8.02468 23.8752 8.16479C23.6256 8.24425 23.456 8.47607 23.456 8.73802V9.04334H22.357V8.73802C22.357 8.47607 22.1874 8.2442 21.9378 8.16479C21.4973 8.02463 21.1001 7.7951 20.7572 7.48256C20.5637 7.30609 20.2781 7.27519 20.0512 7.40616L19.7863 7.55918L19.2367 6.60734L19.5017 6.45438C19.7284 6.32357 19.8444 6.06118 19.7887 5.80552Z" fill="#F7F9FB"/>
<path d="M19.7247 18.5634V15.7048C19.7247 13.692 18.2899 12.0082 16.3893 11.622C16.842 11.0809 17.115 10.3847 17.115 9.6257C17.115 7.90758 15.7172 6.50977 13.9991 6.50977C12.2809 6.50977 10.8831 7.90758 10.8831 9.6257C10.8831 10.3846 11.1562 11.0809 11.6088 11.622C9.70828 12.0082 8.27344 13.692 8.27344 15.7048V18.5634C8.27344 18.8956 8.54277 19.1649 8.875 19.1649H19.1231C19.4554 19.1649 19.7247 18.8957 19.7247 18.5634ZM13.9991 7.71289C15.0538 7.71289 15.9119 8.57094 15.9119 9.6257C15.9119 10.6805 15.0538 11.5386 13.9991 11.5386C12.9443 11.5386 12.0863 10.6805 12.0863 9.6257C12.0863 8.57094 12.9443 7.71289 13.9991 7.71289ZM18.5216 17.9618H17.1949V16.6245C17.1949 16.2923 16.9256 16.0229 16.5933 16.0229C16.2611 16.0229 15.9918 16.2923 15.9918 16.6245V17.9618H12.0064V16.6245C12.0064 16.2923 11.7371 16.0229 11.4049 16.0229C11.0726 16.0229 10.8033 16.2923 10.8033 16.6245V17.9618H9.47662V15.7048C9.47662 14.071 10.8059 12.7417 12.4398 12.7417H15.5584C17.1923 12.7417 18.5216 14.071 18.5216 15.7048V17.9618Z" fill="#F7F9FB"/>
<path d="M6.2241 19.7273C5.63423 19.7529 5.07035 19.9619 4.60846 20.3164C4.14657 19.9619 3.58263 19.7529 2.99288 19.7273C2.21423 19.6936 1.47283 19.9741 0.905393 20.5176C0.335602 21.0632 0.00878906 21.8286 0.00878906 22.6177C0.00878906 23.8619 0.571634 25.0143 1.55295 25.7792L4.23866 27.8726C4.34738 27.9573 4.47792 27.9997 4.60851 27.9997C4.73911 27.9997 4.86959 27.9573 4.97837 27.8726L7.66408 25.7792C8.64539 25.0143 9.20818 23.8619 9.20818 22.6177C9.20818 21.8286 8.88137 21.0631 8.31158 20.5176C7.74408 19.9742 7.0023 19.6936 6.2241 19.7273ZM6.92437 24.8302L4.60846 26.6354L2.29255 24.8302C1.60572 24.2949 1.21186 23.4885 1.21186 22.6177C1.21186 22.1551 1.40343 21.7064 1.73741 21.3866C2.04798 21.0892 2.44731 20.9278 2.86879 20.9278C2.89269 20.9278 2.91664 20.9283 2.9407 20.9294C3.40724 20.9496 3.84606 21.1686 4.1446 21.5301C4.25889 21.6685 4.42903 21.7486 4.60846 21.7486C4.78794 21.7486 4.95808 21.6685 5.07232 21.5301C5.3708 21.1685 5.80962 20.9495 6.27621 20.9293C6.72323 20.91 7.15122 21.0723 7.4794 21.3865C7.81337 21.7064 8.00494 22.1551 8.00494 22.6177C8.005 23.4885 7.61114 24.2949 6.92437 24.8302Z" fill="#F7F9FB"/>
<path d="M4.07653 10.0519C4.40668 10.382 4.84029 10.5471 5.27391 10.5471C5.70753 10.5471 6.1412 10.382 6.47135 10.0519L10.0519 6.47142C10.3717 6.15156 10.5478 5.72631 10.5478 5.27399C10.5478 4.82167 10.3717 4.39642 10.0519 4.0766L9.62776 3.6525C9.84657 3.29424 9.94971 2.87036 9.9123 2.43986C9.83016 1.49349 9.05458 0.717916 8.10821 0.635666C7.67766 0.598314 7.25372 0.7014 6.89546 0.92026L6.47135 0.496158C5.81111 -0.164084 4.73677 -0.164084 4.07653 0.496158L3.2625 1.31013C3.14328 1.4294 3.07957 1.59319 3.0869 1.76163C3.09423 1.93012 3.17194 2.08778 3.30111 2.19617C3.50116 2.36417 3.60228 2.61071 3.57843 2.87266C3.54491 3.24153 3.24145 3.54493 2.87258 3.57851C2.61079 3.60235 2.36409 3.50124 2.19609 3.30119C2.0877 3.17207 1.93004 3.09436 1.76154 3.08698C1.59376 3.08003 1.42932 3.14336 1.31004 3.26258L0.495962 4.0766C0.176149 4.39647 0 4.82167 0 5.27399C0 5.72631 0.176149 6.15156 0.495962 6.47142L4.07653 10.0519ZM1.34674 4.92738L1.77358 4.50049C2.13167 4.71535 2.55397 4.81543 2.98152 4.77666C3.93494 4.68992 4.68985 3.93502 4.77653 2.98165C4.81541 2.5541 4.71528 2.13186 4.50036 1.77371L4.92719 1.34688C5.11833 1.15574 5.42934 1.15574 5.62052 1.34688L6.43537 2.16172C6.55541 2.28176 6.72068 2.34569 6.89004 2.33716C7.05957 2.3289 7.21773 2.24938 7.32547 2.11824C7.49259 1.91486 7.73973 1.81145 8.00398 1.83425C8.37618 1.86657 8.68123 2.17167 8.71355 2.54393C8.73646 2.80796 8.63299 3.05526 8.42961 3.22238C8.29847 3.33012 8.21895 3.48828 8.2107 3.65781C8.20244 3.82734 8.26615 3.99249 8.38613 4.11248L9.20098 4.92738C9.29357 5.01996 9.34453 5.14306 9.34453 5.27404C9.34453 5.40502 9.29351 5.52812 9.20092 5.62071L5.62041 9.20121C5.42928 9.39234 5.11822 9.39239 4.92708 9.20121L1.34657 5.62071C1.25415 5.52806 1.20313 5.40496 1.20313 5.27399C1.20313 5.14301 1.25415 5.01996 1.34674 4.92738Z" fill="#F7F9FB"/>
<path d="M23.3869 18.7734C20.843 18.7734 18.7734 20.843 18.7734 23.3869C18.7734 25.9307 20.843 28.0003 23.3869 28.0003C25.9307 28.0003 28.0003 25.9307 28.0003 23.3869C28.0003 20.843 25.9307 18.7734 23.3869 18.7734ZM23.3869 26.7972C21.5064 26.7972 19.9766 25.2673 19.9766 23.3869C19.9766 21.5064 21.5065 19.9766 23.3869 19.9766C25.2673 19.9766 26.7972 21.5064 26.7972 23.3869C26.7972 25.2673 25.2673 26.7972 23.3869 26.7972Z" fill="#F7F9FB"/>
<path d="M24.1282 22.7853H23.9883V21.7813C23.9883 21.449 23.7189 21.1797 23.3867 21.1797C23.0545 21.1797 22.7852 21.449 22.7852 21.7813V23.3869C22.7852 23.7191 23.0545 23.9884 23.3867 23.9884H24.1282C24.4604 23.9884 24.7297 23.7191 24.7297 23.3869C24.7297 23.0546 24.4604 22.7853 24.1282 22.7853Z" fill="#F7F9FB"/>
<path d="M26.8207 18.5036C26.7627 18.5036 26.7038 18.4952 26.6455 18.4774C26.3276 18.3808 26.1483 18.0448 26.2449 17.7269C26.6112 16.5221 26.7969 15.2681 26.7969 13.9997C26.7969 12.9263 26.6635 11.8589 26.4005 10.8275C26.3184 10.5056 26.5128 10.178 26.8347 10.096C27.1569 10.0138 27.4841 10.2083 27.5662 10.5302C27.854 11.6587 28 12.826 28 13.9996C28 15.3867 27.7967 16.7584 27.396 18.0768C27.3171 18.3364 27.0786 18.5036 26.8207 18.5036Z" fill="#ED2A91"/>
<path d="M1.25754 18.7515C1.00407 18.7515 0.768362 18.59 0.685619 18.3359C0.230673 16.9381 0 15.4793 0 14C0 12.5242 0.229633 11.0686 0.682502 9.67368C0.785151 9.3577 1.12449 9.18489 1.44042 9.28731C1.7564 9.38991 1.92938 9.72925 1.82679 10.0452C1.41297 11.3199 1.20313 12.6505 1.20313 14C1.20313 15.3526 1.41395 16.6862 1.82974 17.9636C1.93255 18.2795 1.75979 18.619 1.44386 18.7218C1.38201 18.7419 1.31929 18.7515 1.25754 18.7515Z" fill="#ED2A91"/>
<path d="M13.9994 28C12.3844 28 10.7998 27.7264 9.28922 27.1868C8.97636 27.0751 8.81328 26.7308 8.92506 26.4179C9.03684 26.1051 9.38104 25.942 9.69391 26.0538C11.0742 26.5469 12.5228 26.7969 13.9994 26.7969C15.2678 26.7969 16.5218 26.6112 17.7266 26.2449C18.0444 26.1483 18.3805 26.3277 18.4771 26.6455C18.5738 26.9633 18.3944 27.2994 18.0765 27.396C16.7582 27.7968 15.3865 28 13.9994 28Z" fill="#ED2A91"/>
<path d="M17.2447 1.59961C17.1966 1.59961 17.1479 1.59381 17.0991 1.58167C16.0891 1.33049 15.0465 1.20313 14.0001 1.20313C13.1529 1.20313 12.3041 1.28696 11.4772 1.45228C11.1515 1.51736 10.8345 1.30616 10.7694 0.980328C10.7042 0.6545 10.9155 0.337641 11.2413 0.272508C12.1457 0.091711 13.0739 0 14.0001 0C15.1442 0 16.2846 0.139344 17.3894 0.414148C17.7118 0.49432 17.9082 0.820695 17.828 1.14313C17.7599 1.41673 17.5145 1.59961 17.2447 1.59961Z" fill="#ED2A91"/>
</svg>
