<svg width="33" height="28" viewBox="0 0 33 28" fill="none" xmlns="http://www.w3.org/2000/svg">
<path d="M10.5367 27.901C10.1562 27.901 9.84766 27.5925 9.84766 27.212V23.3775C9.84766 22.997 10.1562 22.6885 10.5367 22.6885C10.9172 22.6885 11.2257 22.997 11.2257 23.3775V27.212C11.2257 27.5925 10.9172 27.901 10.5367 27.901Z" fill="#ED2A91"/>
<path d="M29.881 18.7051H23.7382C23.5671 18.7051 23.4021 18.6414 23.2753 18.5264C22.1774 17.5304 21.5477 16.1096 21.5477 14.6281C21.5477 11.7267 23.9082 9.36621 26.8097 9.36621C29.7111 9.36621 32.0716 11.7267 32.0716 14.6281C32.0716 16.1096 31.4419 17.5304 30.344 18.5264C30.2172 18.6414 30.0522 18.7051 29.881 18.7051ZM24.0169 17.327H29.6024C30.2987 16.6056 30.6935 15.6359 30.6935 14.6282C30.6935 12.4866 28.9513 10.7443 26.8097 10.7443C24.6681 10.7443 22.9257 12.4866 22.9257 14.6282C22.9257 15.6359 23.3206 16.6056 24.0169 17.327Z" fill="#ED2A91"/>
<path d="M30.3912 17.3271H23.2271C22.8469 17.3271 22.5381 17.6353 22.5381 18.0162V21.1551C22.5381 21.5353 22.8469 21.8441 23.2271 21.8441H24.2857L25.2516 27.4284C25.3093 27.7586 25.5955 27.9997 25.9307 27.9997H27.6877C28.0203 27.9997 28.3053 27.7623 28.3655 27.4353L29.3965 21.8441H30.3912C30.7721 21.8441 31.0803 21.5353 31.0803 21.1551V18.0162C31.0803 17.6353 30.7721 17.3271 30.3912 17.3271ZM27.1139 26.6216H26.5107L25.6839 21.8441H27.9953L27.1139 26.6216ZM29.7022 20.466H23.9162V18.7052H29.7022V20.466Z" fill="#F7F9FB"/>
<path d="M20.5408 11.0102C20.8829 10.5485 21.0727 9.98416 21.0727 9.40036C21.0727 8.29915 20.3905 7.31132 19.3977 6.9004C18.916 4.85834 17.9037 3.1583 16.4542 1.96438C14.8945 0.679016 12.8487 0 10.536 0C8.22461 0 6.17817 0.679016 4.61843 1.96438C3.16957 3.1583 2.15669 4.85834 1.67499 6.9004C0.682148 7.31132 0 8.29978 0 9.40036C0 9.99481 0.195436 10.5667 0.548725 11.0328C0.306935 11.5702 0.180403 12.1559 0.180403 12.7516C0.180403 13.5365 0.402774 14.3057 0.814318 14.9672C0.402774 15.628 0.180403 16.3972 0.180403 17.1821C0.180403 19.2404 1.67875 20.6617 3.9532 20.8158C2.98729 21.7272 2.38407 23.0183 2.38407 24.4477V27.311C2.38407 27.6912 2.69289 28 3.07311 28H17.9996C18.3804 28 18.6886 27.6912 18.6886 27.311V24.4477C18.6886 23.0189 18.086 21.7285 17.1207 20.8171C19.4089 20.6724 20.9186 19.2486 20.9186 17.1821C20.9186 16.3972 20.6962 15.628 20.2853 14.9672C20.6962 14.3063 20.9186 13.5365 20.9186 12.7516C20.9186 12.1471 20.7889 11.5545 20.5408 11.0102ZM17.3105 24.4477V26.6219H3.76215V24.4477C3.76215 22.4526 5.38515 20.8296 7.3796 20.8296H8.40626L9.92778 23.7004C10.0474 23.9259 10.2817 24.0668 10.536 24.0668C10.5429 24.0668 10.5498 24.0668 10.5567 24.0662C10.8191 24.0587 11.0547 23.9021 11.163 23.6634L12.4553 20.8296H13.6931C15.6875 20.8296 17.3105 22.4526 17.3105 24.4477ZM11.8496 17.0217C11.5408 17.0969 11.3228 17.3732 11.3228 17.6914V19.9909L10.4897 21.8187L9.74989 20.4225V17.6914C9.74989 17.3732 9.53253 17.0969 9.22309 17.0217C6.71937 16.4154 4.97047 14.186 4.97047 11.6015V9.59705C7.14971 9.57951 9.31579 9.40349 10.5467 7.25557C11.7725 9.38658 13.9248 9.58076 16.1022 9.59767V11.6015C16.1022 14.186 14.3533 16.4154 11.8496 17.0217ZM19.1196 11.2714C19.3952 11.7149 19.5405 12.2267 19.5405 12.7516C19.5405 13.4087 19.3213 14.0238 18.9066 14.5306C18.6986 14.7843 18.6986 15.1494 18.9066 15.4038C19.3156 15.903 19.5405 16.535 19.5405 17.1821C19.5405 18.8558 18.0891 19.4515 16.7305 19.4515H12.7008V18.2106C13.9787 17.7897 15.1244 16.9942 15.9688 15.9331C16.9434 14.7085 17.4803 13.17 17.4803 11.6015V8.91051C17.4803 8.72761 17.4076 8.55221 17.2779 8.42318C17.1489 8.29414 16.9735 8.22148 16.7912 8.22148H16.723C14.2061 8.22148 12.6157 8.13315 11.718 6.5277L11.1511 5.5123C11.0296 5.29494 10.8004 5.16027 10.5511 5.15964C10.5504 5.15964 10.5498 5.15964 10.5498 5.15964C10.3011 5.15964 10.0719 5.29369 9.94971 5.5098L9.36403 6.54774C8.46953 8.13378 6.89414 8.21709 4.39794 8.22148H4.28018C3.90058 8.2221 3.59239 8.53029 3.59239 8.91051V11.6015C3.59239 13.17 4.12922 14.7085 5.10389 15.9331C5.94828 16.9942 7.09459 17.7897 8.37181 18.2106V19.4515H4.36913C3.01047 19.4515 1.55848 18.8558 1.55848 17.1821C1.55848 16.535 1.78398 15.903 2.19302 15.4038C2.40098 15.1494 2.40098 14.7843 2.19302 14.5306C1.77772 14.0238 1.55848 13.4087 1.55848 12.7516C1.55848 12.2317 1.7013 11.7237 1.9719 11.2833C2.14855 10.9958 2.09092 10.6231 1.83597 10.402C1.54532 10.1502 1.37808 9.78497 1.37808 9.40036C1.37808 8.78398 1.81342 8.24027 2.41351 8.10684C2.68036 8.04734 2.88707 7.83624 2.94031 7.56814C3.71893 3.63436 6.48761 1.37808 10.5366 1.37808C14.5851 1.37808 17.3537 3.63436 18.1323 7.56814C18.1856 7.83624 18.3923 8.04734 18.6591 8.10684C19.2592 8.24027 19.6946 8.78398 19.6946 9.40036C19.6946 9.7787 19.5317 10.1408 19.248 10.3919C18.9968 10.6149 18.9429 10.9864 19.1196 11.2714Z" fill="#F7F9FB"/>
</svg>
