<svg width="35" height="28" viewBox="0 0 35 28" fill="none" xmlns="http://www.w3.org/2000/svg">
<path d="M34.9081 15.9862C34.9081 14.2775 34.3752 12.6452 33.3669 11.2657L31.2304 8.34227C31.0058 8.03484 30.8775 7.68692 30.8595 7.3362C30.82 6.56564 31.2739 5.85275 31.9889 5.56237C32.8564 5.21009 33.4169 4.36452 33.4169 3.4083C33.4169 2.67414 33.0553 1.98723 32.4498 1.57079C31.849 1.15768 31.0854 1.06632 30.4071 1.32622C29.2263 1.77873 28.2389 2.56185 27.5322 3.54384C27.8571 2.51903 27.7732 1.40238 27.2695 0.413843C27.1476 0.1746 26.9071 0.0188771 26.6389 0.00530936C25.5822 -0.0477345 24.5601 0.299232 23.763 0.968553C23.0318 0.71247 22.2613 0.582997 21.4655 0.582997C20.6697 0.582997 19.8991 0.71247 19.168 0.968553C18.3709 0.299301 17.3477 -0.0478027 16.292 0.00530936C16.0238 0.018809 15.7834 0.1746 15.6615 0.413843C15.0711 1.57249 15.0553 2.90745 15.6014 4.06371C15.2478 4.79719 15.0626 5.59687 15.0626 6.40016C15.0626 8.12641 15.8948 9.67907 17.2134 10.7454C16.1162 12.0728 15.3437 13.6111 14.9647 15.241L16.4257 15.5808C16.7663 14.1163 17.4784 12.7344 18.4949 11.552C19.3833 11.9766 20.394 12.2173 21.4655 12.2173C22.6304 12.2173 23.7236 11.9331 24.6656 11.4372C25.109 13.6025 26.3966 15.5437 28.2567 16.7831C30.004 17.9474 31.0472 19.8959 31.0472 21.9954V24.4289C31.0472 25.571 30.118 26.5 28.9759 26.5H24.8294V28H28.9759C30.9451 28 32.5471 26.398 32.5471 24.4289V21.9954C32.5471 21.8852 32.5439 21.7755 32.5394 21.666C34.0488 20.1668 34.9081 18.1175 34.9081 15.9862ZM16.5626 6.40003C16.5626 5.711 16.7431 5.05109 17.0992 4.43877C17.2372 4.2015 17.2345 3.90772 17.0921 3.67297C16.6934 3.01531 16.6021 2.23717 16.8251 1.51945C17.4433 1.59472 18.0177 1.88509 18.4469 2.3494C18.6635 2.5838 19.0048 2.65539 19.2973 2.52796C19.9751 2.23261 20.7046 2.08288 21.4655 2.08288C22.2265 2.08288 22.9559 2.23261 23.6338 2.52796C23.9261 2.65539 24.2674 2.58373 24.4841 2.34947C24.9134 1.88509 25.4877 1.59472 26.106 1.51945C26.329 2.23724 26.2378 3.01531 25.839 3.67297C25.6966 3.90772 25.694 4.2015 25.832 4.43877C26.188 5.05102 26.3685 5.71094 26.3685 6.40003C26.3685 8.78059 24.169 10.7172 21.4655 10.7172C18.7621 10.7172 16.5626 8.78059 16.5626 6.40003ZM29.0884 15.5348C27.3703 14.3899 26.2465 12.5168 26.033 10.4723C26.3184 10.2081 26.5764 9.91947 26.8026 9.61C27.0053 10.1085 27.2714 10.5874 27.5997 11.0366L29.7167 13.9334C30.1552 14.5333 30.3869 15.2444 30.3869 15.9899C30.3869 16.1845 30.3686 16.3781 30.3362 16.5691C29.9614 16.1862 29.5446 15.8387 29.0884 15.5348ZM31.4528 18.0191C31.7376 17.3825 31.8869 16.6894 31.8869 15.9899C31.8869 14.9241 31.5553 13.907 30.9278 13.0484L28.8107 10.1516C28.1994 9.31492 27.8628 8.35208 27.8375 7.36723C27.785 5.32374 29.0334 3.45889 30.9439 2.72671C31.1641 2.64237 31.4033 2.67134 31.5998 2.80654C31.8014 2.94515 31.9169 3.16442 31.9169 3.40816C31.9169 3.74572 31.7191 4.05294 31.4245 4.17253C30.1183 4.70296 29.2893 6.0052 29.3615 7.41291C29.3945 8.05605 29.6219 8.68337 30.0194 9.2271L32.1558 12.1507C32.9751 13.2716 33.4081 14.5979 33.4081 15.9862C33.4081 17.3376 32.9825 18.6484 32.2124 19.7383C32.0296 19.135 31.7742 18.5579 31.4528 18.0191Z" fill="#ED2A91"/>
<path d="M25.1473 23.8065C25.1473 22.7582 25.6567 21.7676 26.5098 21.1567C26.8465 20.9156 26.9241 20.4471 26.6829 20.1103C26.4418 19.7735 25.9734 19.696 25.6365 19.9371C24.3909 20.829 23.6473 22.2755 23.6473 23.8065H25.1473Z" fill="#ED2A91"/>
<path d="M22.21 6.81511C22.1943 6.80434 22.1553 6.77229 22.109 6.69484C21.9735 6.46855 21.7292 6.33001 21.4654 6.33008C21.2017 6.33015 20.9574 6.46862 20.822 6.69498C20.7757 6.77236 20.7367 6.8044 20.7211 6.81518C20.3165 6.82629 19.992 7.15764 19.992 7.56488C19.992 7.97907 20.3278 8.31486 20.742 8.31486C20.9981 8.31486 21.2436 8.24668 21.4656 8.11857C21.6876 8.24668 21.9332 8.31486 22.1892 8.31486C22.6034 8.31486 22.9392 7.97907 22.9392 7.56488C22.9391 7.15758 22.6145 6.82615 22.21 6.81511Z" fill="#ED2A91"/>
<path d="M26.1922 27.0254L23.8168 19.4446C23.7187 19.1318 23.429 18.9188 23.1011 18.9188H23.0725C23.0506 18.1209 22.7296 17.3472 22.15 16.7676C21.5103 16.128 20.6449 15.7995 19.7596 15.8441C19.0782 14.949 18.0115 14.4105 16.8686 14.4105C15.7255 14.4105 14.6589 14.9489 13.9776 15.8441C13.6898 15.8298 13.4043 15.8555 13.1278 15.9177V12.5761C13.1278 12.162 12.792 11.8262 12.3778 11.8262H0.749978C0.335785 11.8262 0 12.162 0 12.5761V27.2496C0 27.6638 0.335785 27.9996 0.749978 27.9996H25.4765C25.7152 27.9996 25.9396 27.8859 26.0809 27.6936C26.2222 27.5012 26.2635 27.2531 26.1922 27.0254ZM14.1853 17.3801C14.5095 17.4512 14.8414 17.3013 15.0022 17.0112C15.3786 16.3322 16.0938 15.9104 16.8686 15.9104C17.6433 15.9104 18.3585 16.3322 18.735 17.0112C18.8957 17.3012 19.2275 17.4514 19.5518 17.3801C20.1112 17.2572 20.6859 17.4248 21.0893 17.8282C21.384 18.1229 21.552 18.5135 21.573 18.9189H12.1642C12.1852 18.5135 12.3532 18.1229 12.6478 17.8282C13.0513 17.4247 13.6259 17.257 14.1853 17.3801ZM11.0901 13.3261L10.2392 14.8261H2.88905L2.03817 13.3261H11.0901ZM1.49996 15.4173L1.79995 15.9461C1.9331 16.181 2.18223 16.326 2.45222 16.326H10.6759C10.9459 16.326 11.1951 16.181 11.3282 15.9461L11.6278 15.4181V16.729C11.6143 16.742 11.6004 16.7543 11.5871 16.7676C11.0076 17.3471 10.6866 18.1209 10.6646 18.9188H10.565C10.2371 18.9188 9.94729 19.1317 9.84932 19.4445L7.63873 26.4996H1.49996V15.4173ZM9.21068 26.4996L11.116 20.4188H22.5501L24.4555 26.4996H9.21068Z" fill="#F7F9FB"/>
</svg>
