<svg width="27" height="28" viewBox="0 0 27 28" fill="none" xmlns="http://www.w3.org/2000/svg">
<path d="M22.8103 12.2502H18.2309L17.0481 10.5227C16.7384 10.0704 16.2262 9.80038 15.678 9.80038H15.2113V8.57773H18.0867C18.8402 8.57773 19.4532 7.96474 19.4532 7.21126V1.36648C19.4532 0.612992 18.8402 0 18.0867 0H8.86647C8.11299 0 7.5 0.612992 7.5 1.36648V7.21126C7.5 7.96474 8.11299 8.57773 8.86647 8.57773H11.7418V9.80038H11.4421C10.894 9.80038 10.3818 10.0704 10.0721 10.5227L8.95999 12.1469V10.9354C8.95999 10.3095 8.48218 9.80033 7.8949 9.80033H5.5628C4.97551 9.80033 4.49771 10.3095 4.49771 10.9354V12.2502H4.30986C2.96411 12.2502 1.86926 13.345 1.86926 14.6908V24.351C1.86926 25.6963 2.96378 26.7908 4.30904 26.7908H9.6969C10.7944 27.5527 12.1259 28 13.5601 28C14.9943 28 16.3258 27.5527 17.4232 26.7908H22.8103C24.1561 26.7908 25.2509 25.696 25.2509 24.3502V14.6908C25.2509 13.345 24.1561 12.2502 22.8103 12.2502ZM8.70318 7.21126V1.36648C8.70318 1.27641 8.77646 1.20312 8.86653 1.20312H18.0867C18.1768 1.20312 18.2501 1.27641 18.2501 1.36648V7.21126C18.2501 7.30133 18.1768 7.37461 18.0867 7.37461H8.86647C8.7764 7.37461 8.70318 7.30133 8.70318 7.21126ZM12.945 8.57773H14.0082V9.80038H12.945V8.57773ZM5.701 11.0035H7.75686V12.2502H5.70094L5.701 11.0035ZM4.30986 13.4533H8.91629C9.29654 13.4533 9.65179 13.266 9.8666 12.9523L11.0648 11.2024C11.1501 11.0779 11.2912 11.0035 11.4421 11.0035H15.678C15.829 11.0035 15.97 11.0779 16.0553 11.2025L17.2535 12.9523C17.4683 13.266 17.8235 13.4533 18.2038 13.4533H22.8102C23.4925 13.4533 24.0477 14.0085 24.0477 14.6908V17.0988H18.9614C17.7197 15.471 15.7606 14.4186 13.56 14.4186C11.3593 14.4186 9.40022 15.471 8.15854 17.0988H3.07239V14.6908C3.07239 14.0084 3.62752 13.4533 4.30986 13.4533ZM3.07239 24.351V18.3019H7.42409C7.00458 19.1837 6.76932 20.1695 6.76932 21.2093C6.76932 22.8763 7.37345 24.4046 8.37385 25.5877H4.30904C3.62714 25.5877 3.07239 25.0329 3.07239 24.351ZM7.9725 21.2093C7.9725 18.1283 10.4791 15.6217 13.5601 15.6217C16.6411 15.6217 19.1477 18.1283 19.1477 21.2093C19.1477 24.2903 16.6411 26.7969 13.5601 26.7969C10.4791 26.7969 7.9725 24.2903 7.9725 21.2093ZM22.8103 25.5877H18.7463C19.7467 24.4046 20.3508 22.8763 20.3508 21.2093C20.3508 20.1695 20.1156 19.1837 19.6961 18.3019H24.0478V24.3502C24.0478 25.0325 23.4926 25.5877 22.8103 25.5877Z" fill="#F7F9FB"/>
<path d="M16.4312 2.4209H10.5226C10.1904 2.4209 9.92102 2.69023 9.92102 3.02246V5.55575C9.92102 5.88798 10.1904 6.15731 10.5226 6.15731H16.4312C16.7635 6.15731 17.0328 5.88798 17.0328 5.55575V3.02246C17.0328 2.69018 16.7635 2.4209 16.4312 2.4209ZM15.8297 4.95413H11.1241V3.62402H15.8297V4.95413Z" fill="#F7F9FB"/>
<path d="M23.8042 1.13965C23.472 1.13965 23.2027 1.40898 23.2027 1.74121V2.78886C23.2027 3.12109 23.472 3.39042 23.8042 3.39042C24.1365 3.39042 24.4058 3.12109 24.4058 2.78886V1.74121C24.4058 1.40898 24.1365 1.13965 23.8042 1.13965Z" fill="#ED2A91"/>
<path d="M23.8042 5.18652C23.472 5.18652 23.2026 5.45586 23.2026 5.78809V6.83568C23.2026 7.16791 23.472 7.43724 23.8042 7.43724C24.1364 7.43724 24.4058 7.16791 24.4058 6.83568V5.78809C24.4058 5.4558 24.1364 5.18652 23.8042 5.18652Z" fill="#ED2A91"/>
<path d="M22.3044 3.6875H21.2568C20.9246 3.6875 20.6553 3.95684 20.6553 4.28906C20.6553 4.62129 20.9246 4.89062 21.2568 4.89062H22.3044C22.6367 4.89062 22.906 4.62129 22.906 4.28906C22.906 3.95684 22.6367 3.6875 22.3044 3.6875Z" fill="#ED2A91"/>
<path d="M26.3518 3.6875H25.3042C24.972 3.6875 24.7026 3.95684 24.7026 4.28906C24.7026 4.62129 24.972 4.89062 25.3042 4.89062H26.3518C26.684 4.89062 26.9534 4.62129 26.9534 4.28906C26.9534 3.95684 26.6841 3.6875 26.3518 3.6875Z" fill="#ED2A91"/>
<path d="M3.14896 1.13965C2.81673 1.13965 2.54739 1.40898 2.54739 1.74121V2.78886C2.54739 3.12109 2.81673 3.39042 3.14896 3.39042C3.48118 3.39042 3.75052 3.12109 3.75052 2.78886V1.74121C3.75052 1.40898 3.48118 1.13965 3.14896 1.13965Z" fill="#ED2A91"/>
<path d="M3.14893 5.18652C2.8167 5.18652 2.54736 5.45586 2.54736 5.78809V6.83568C2.54736 7.16791 2.8167 7.43724 3.14893 7.43724C3.48115 7.43724 3.75049 7.16791 3.75049 6.83568V5.78809C3.75049 5.4558 3.48115 5.18652 3.14893 5.18652Z" fill="#ED2A91"/>
<path d="M5.69652 3.6875H4.64893C4.3167 3.6875 4.04736 3.95684 4.04736 4.28906C4.04736 4.62129 4.3167 4.89062 4.64893 4.89062H5.69652C6.02875 4.89062 6.29808 4.62129 6.29808 4.28906C6.29808 3.95684 6.02875 3.6875 5.69652 3.6875Z" fill="#ED2A91"/>
<path d="M1.64916 3.6875H0.601562C0.269336 3.6875 0 3.95684 0 4.28906C0 4.62129 0.269336 4.89062 0.601562 4.89062H1.64916C1.98138 4.89062 2.25072 4.62129 2.25072 4.28906C2.25072 3.95684 1.98138 3.6875 1.64916 3.6875Z" fill="#ED2A91"/>
<path d="M13.5599 16.8418C11.1517 16.8418 9.19238 18.8011 9.19238 21.2093C9.19238 23.6176 11.1517 25.5769 13.5599 25.5769C15.9682 25.5769 17.9275 23.6176 17.9275 21.2093C17.9275 18.8011 15.9682 16.8418 13.5599 16.8418ZM13.5599 24.3737C11.8151 24.3737 10.3955 22.9542 10.3955 21.2093C10.3955 19.4644 11.8151 18.0449 13.5599 18.0449C15.3048 18.0449 16.7244 19.4645 16.7244 21.2093C16.7244 22.9542 15.3048 24.3737 13.5599 24.3737Z" fill="#ED2A91"/>
</svg>
