<svg width="26" height="28" viewBox="0 0 26 28" fill="none" xmlns="http://www.w3.org/2000/svg">
<path d="M5.91332 5.3671C5.03848 4.86206 3.91591 5.16295 3.41071 6.03774C3.0215 6.71198 3.11091 7.53328 3.57275 8.10574L2.13113 10.0714C2.05545 10.1746 2.01465 10.2992 2.01465 10.4272V17.4434C2.01465 17.7756 2.28398 18.045 2.61621 18.045C2.94844 18.045 3.21777 17.7756 3.21777 17.4434V10.6241L4.59765 8.74258C4.7278 8.77184 4.8607 8.78655 4.99435 8.78655C5.15344 8.78655 5.31367 8.76566 5.4715 8.72338C5.94422 8.59678 6.33928 8.2936 6.58395 7.86982C7.08899 6.99488 6.78816 5.87225 5.91332 5.3671ZM5.54199 7.26815C5.45799 7.41362 5.32237 7.51763 5.16016 7.56111C4.99774 7.60453 4.82838 7.58233 4.68291 7.49833C4.38256 7.32492 4.27931 6.93953 4.45267 6.63924C4.56905 6.43767 4.78091 6.3249 4.9984 6.3249C5.10498 6.3249 5.21299 6.35197 5.3117 6.40901C5.61205 6.58242 5.71535 6.96786 5.54199 7.26815Z" fill="#ED2A91"/>
<path d="M23.1344 10.0714L21.6928 8.10568C22.1546 7.53321 22.244 6.71192 21.8548 6.03768C21.3498 5.16284 20.2269 4.86217 19.3522 5.36704C18.4773 5.87214 18.1765 6.99487 18.6816 7.86971C19.0205 8.45678 19.6375 8.78534 20.2712 8.78534C20.4033 8.78534 20.5361 8.77107 20.6673 8.74186L22.0477 10.624V17.4433C22.0477 17.7755 22.317 18.0449 22.6493 18.0449C22.9815 18.0449 23.2508 17.7755 23.2508 17.4433V10.4271C23.2509 10.2991 23.2101 10.1746 23.1344 10.0714ZM20.1054 7.56121C19.9432 7.51774 19.8076 7.41367 19.7236 7.2682C19.5502 6.96791 19.6535 6.58247 19.9538 6.40906C20.0526 6.35202 20.1605 6.32495 20.2671 6.32495C20.4846 6.32495 20.6965 6.43771 20.8129 6.63929C20.9863 6.93958 20.883 7.32502 20.5827 7.49838C20.4372 7.58232 20.2676 7.60453 20.1054 7.56121Z" fill="#ED2A91"/>
<path d="M15.0938 10.8262H10.1719C9.83971 10.8262 9.57037 11.0955 9.57037 11.4277V14.4355C9.57037 14.7678 9.83971 15.0371 10.1719 15.0371C10.5042 15.0371 10.7735 14.7678 10.7735 14.4355V12.0293H14.4922V14.4355C14.4922 14.7678 14.7616 15.0371 15.0938 15.0371C15.426 15.0371 15.6954 14.7678 15.6954 14.4355V11.4277C15.6954 11.0955 15.426 10.8262 15.0938 10.8262Z" fill="#ED2A91"/>
<path d="M25.1655 17.3843C25.054 17.2162 24.8658 17.1152 24.6641 17.1152H20.2016C20.3319 16.8415 20.405 16.5355 20.405 16.2128V14.9824C20.405 11.5434 18.1599 8.61908 15.0585 7.59773C16.1238 6.83791 16.8197 5.59218 16.8197 4.18693C16.8197 1.87824 14.9415 0 12.6328 0C10.3242 0 8.44595 1.87824 8.44595 4.18693C8.44595 5.59218 9.1418 6.83796 10.2071 7.59773C7.10562 8.61902 4.86053 11.5434 4.86053 14.9824V16.2128C4.86053 16.5355 4.93354 16.8415 5.06392 17.1152H0.601579C0.399892 17.1152 0.211657 17.2162 0.100204 17.3843C-0.011249 17.5523 -0.0310458 17.7651 0.0474307 17.9508L1.43392 21.2321C1.52804 21.4548 1.7463 21.5995 1.98807 21.5995H3.28127V27.3984C3.28127 27.7307 3.5506 28 3.88283 28C4.21506 28 4.48439 27.7307 4.48439 27.3984V21.5995H20.7812V27.3984C20.7812 27.7307 21.0505 28 21.3828 28C21.715 28 21.9843 27.7307 21.9843 27.3984V21.5995H23.2776C23.5194 21.5995 23.7376 21.4548 23.8317 21.2321L25.2183 17.9508C25.2968 17.7651 25.277 17.5524 25.1655 17.3843ZM9.64913 4.18693C9.64913 2.54166 10.9877 1.20312 12.6328 1.20312C14.278 1.20312 15.6166 2.54166 15.6166 4.18693C15.6166 5.8322 14.278 7.17073 12.6328 7.17073C10.9876 7.17073 9.64913 5.8322 9.64913 4.18693ZM6.06371 16.2128V14.9824C6.06371 11.3602 9.0106 8.41329 12.6328 8.41329C16.2549 8.41329 19.2018 11.3602 19.2018 14.9824V16.2128C19.2018 16.7104 18.797 17.1152 18.2995 17.1152H16.7207V14.7089C16.7207 14.3767 16.4514 14.1074 16.1192 14.1074H14.1367C13.5482 14.1074 13.0153 14.3501 12.6328 14.7407C12.2504 14.3501 11.7175 14.1074 11.1289 14.1074H9.14639C8.81417 14.1074 8.54483 14.3767 8.54483 14.7089V17.1152H6.966C6.46851 17.1152 6.06371 16.7104 6.06371 16.2128ZM14.1367 17.1152C13.6392 17.1152 13.2344 16.7104 13.2344 16.2128C13.2344 15.7153 13.6392 15.3105 14.1367 15.3105H15.5176V17.1152H14.1367ZM9.74801 17.1152V15.3105H11.1289C11.6265 15.3105 12.0312 15.7153 12.0312 16.2128C12.0312 16.7104 11.6265 17.1152 11.1289 17.1152H9.74801ZM22.8787 20.3964H2.38691L1.50879 18.3183H23.7568L22.8787 20.3964Z" fill="#F7F9FB"/>
</svg>
