<svg width="28" height="28" viewBox="0 0 28 28" fill="none" xmlns="http://www.w3.org/2000/svg">
<path d="M14.6875 3.3125H4.19421V4.51563H14.6875V3.3125Z" fill="#ED2A91"/>
<path d="M16.5222 6.11133H2.36035V7.31446H16.5222V6.11133Z" fill="#ED2A91"/>
<path d="M14.5311 23.4834H4.19421V24.6865H14.5311V23.4834Z" fill="#ED2A91"/>
<path d="M14.6163 20.6855H2.36035V21.8887H14.6163V20.6855Z" fill="#ED2A91"/>
<path d="M10.5802 10.9922C10.9124 10.9922 11.1817 10.7229 11.1817 10.3906C11.1817 10.0584 10.9124 9.78907 10.5802 9.78907H10.042V9.1875C10.042 8.85528 9.77271 8.58594 9.44048 8.58594C9.10825 8.58594 8.83891 8.85528 8.83891 9.1875V9.78907H8.30079C7.96856 9.78907 7.69922 10.0584 7.69922 10.3906C7.69922 10.7229 7.96856 10.9922 8.30079 10.9922H8.83891V12.1953H8.30079C7.96856 12.1953 7.69922 12.4647 7.69922 12.7969C7.69922 13.1291 7.96856 13.3985 8.30079 13.3985H8.83891V14.6016H8.30079C7.96856 14.6016 7.69922 14.8709 7.69922 15.2032C7.69922 15.5354 7.96856 15.8047 8.30079 15.8047H8.83891V17.0079H8.30079C7.96856 17.0079 7.69922 17.2772 7.69922 17.6094C7.69922 17.9417 7.96856 18.211 8.30079 18.211H8.83891V18.8126C8.83891 19.1448 9.10825 19.4141 9.44048 19.4141C9.77271 19.4141 10.042 19.1448 10.042 18.8126V18.211H10.5802C10.9124 18.211 11.1817 17.9417 11.1817 17.6094C11.1817 17.2772 10.9124 17.0079 10.5802 17.0079H10.042V15.8047H10.5802C10.9124 15.8047 11.1817 15.5354 11.1817 15.2032C11.1817 14.8709 10.9124 14.6016 10.5802 14.6016H10.042V13.3985H10.5802C10.9124 13.3985 11.1817 13.1291 11.1817 12.7969C11.1817 12.4647 10.9124 12.1953 10.5802 12.1953H10.042V10.9922H10.5802Z" fill="#F7F9FB"/>
<path d="M12.0879 25.8487C10.5541 27.1137 8.32754 27.1137 6.79376 25.8487C3.24086 22.9184 1.20313 18.5997 1.20313 14C1.20313 9.40028 3.24086 5.08158 6.79376 2.15124C8.32759 0.886203 10.5541 0.886203 12.0879 2.15124C15.6408 5.08158 17.6786 9.40023 17.6786 14C17.6786 14.3929 17.6632 14.7929 17.6328 15.1892L18.8325 15.281C18.8652 14.8544 18.8817 14.4234 18.8817 14C18.8817 9.03983 16.6845 4.38283 12.8535 1.22313C10.8761 -0.407712 8.00564 -0.407712 6.0283 1.22313C2.19719 4.38278 0 9.03978 0 14C0 18.9602 2.19719 23.6172 6.02824 26.7769C7.01694 27.5922 8.22888 28 9.44082 28C10.6528 28 11.8647 27.5922 12.8534 26.7769C13.8872 25.9243 14.8167 24.9472 15.6163 23.8727L14.6511 23.1544C13.9094 24.1512 13.0469 25.0577 12.0879 25.8487Z" fill="#F7F9FB"/>
<path d="M15.1066 18.2529L14.8691 19.4324C16.5195 19.7646 17.9408 20.7948 18.7687 22.2586C19.5966 23.7225 19.7471 25.4714 19.1814 27.0569L20.3146 27.4612C20.9977 25.5465 20.816 23.4344 19.8159 21.6663C18.816 19.8983 17.0995 18.6541 15.1066 18.2529Z" fill="#F7F9FB"/>
<path d="M23.2453 19.727C22.4174 18.2631 22.267 16.5142 22.8326 14.9287L21.6994 14.5244C21.0164 16.4391 21.1981 18.5512 22.1981 20.3192C23.198 22.0873 24.9145 23.3315 26.9074 23.7327L27.1449 22.5532C25.4946 22.221 24.0733 21.1909 23.2453 19.727Z" fill="#F7F9FB"/>
<path d="M21.0075 27.9859C19.1397 27.9859 17.3836 27.2585 16.0628 25.9377C14.742 24.6169 14.0146 22.8608 14.0146 20.9929C14.0146 17.137 17.1517 14 21.0076 14C24.8635 14 28.0005 17.137 28.0005 20.9929C28.0005 24.8489 24.8635 27.9859 21.0075 27.9859ZM21.0075 15.2031C17.815 15.2031 15.2177 17.8004 15.2177 20.9929C15.2177 22.5395 15.82 23.9934 16.9135 25.0869C18.007 26.1805 19.461 26.7827 21.0075 26.7827C24.2 26.7827 26.7973 24.1854 26.7973 20.9929C26.7973 17.8004 24.2 15.2031 21.0075 15.2031Z" fill="#ED2A91"/>
</svg>
