<svg width="31" height="28" viewBox="0 0 31 28" fill="none" xmlns="http://www.w3.org/2000/svg">
<path d="M29.0451 22.9356H28.7246V7.57855C28.7246 6.44965 27.8062 5.53125 26.6772 5.53125H24.3742C24.0114 5.53125 23.7173 5.82536 23.7173 6.18815C23.7173 6.55093 24.0114 6.84504 24.3742 6.84504H26.6772C27.0817 6.84504 27.4108 7.17409 27.4108 7.57855V22.9356H3.16474V7.57855C3.16474 7.17409 3.49379 6.84504 3.89826 6.84504H6.35164C6.71443 6.84504 7.00854 6.55093 7.00854 6.18815C7.00854 5.82536 6.71443 5.53125 6.35164 5.53125H3.89826C2.76935 5.53125 1.85095 6.44965 1.85095 7.57855V22.9356H1.53045C0.686575 22.9356 0 23.6222 0 24.466V24.4746C0 26.4187 1.58163 28.0004 3.52574 28.0004H27.0498C28.9939 28.0004 30.5755 26.4188 30.5755 24.4746V24.466C30.5755 23.6222 29.8889 22.9356 29.0451 22.9356ZM29.2617 24.4747C29.2617 25.6944 28.2694 26.6867 27.0498 26.6867H3.52574C2.30606 26.6867 1.31379 25.6944 1.31379 24.4747V24.4661C1.31379 24.3467 1.41101 24.2495 1.53045 24.2495H29.0451C29.1645 24.2495 29.2617 24.3467 29.2617 24.4661V24.4747Z" fill="#F7F9FB"/>
<path d="M22.6247 13.8515C22.9875 13.8515 23.2816 13.5574 23.2816 13.1946V8.25065C23.2816 7.88786 22.9875 7.59375 22.6247 7.59375C22.2619 7.59375 21.9678 7.88786 21.9678 8.25065V13.1946C21.9678 13.5574 22.2619 13.8515 22.6247 13.8515Z" fill="#F7F9FB"/>
<path d="M16.7348 19.1406C16.8462 19.1406 16.9591 19.1122 17.0626 19.0525L21.4594 16.514C21.7736 16.3326 21.8812 15.9308 21.6998 15.6167C21.5185 15.3025 21.1169 15.1948 20.8025 15.3762L16.4057 17.9147C16.0915 18.0961 15.9839 18.4979 16.1653 18.812C16.2869 19.0228 16.5077 19.1406 16.7348 19.1406Z" fill="#F7F9FB"/>
<path d="M9.49449 6.25748C9.60592 6.25748 9.71891 6.22905 9.82234 6.16933L14.0174 3.74736C14.3316 3.56594 14.4392 3.16421 14.2578 2.85004C14.0765 2.53598 13.6749 2.42813 13.3605 2.60961L9.16544 5.03159C8.85127 5.21301 8.74365 5.61473 8.92502 5.92891C9.04666 6.13965 9.2675 6.25748 9.49449 6.25748Z" fill="#F7F9FB"/>
<path d="M16.4731 3.69849L20.7534 6.16973C20.8568 6.22945 20.9698 6.25787 21.0812 6.25787C21.3083 6.25787 21.5291 6.14005 21.6507 5.92931C21.8321 5.61513 21.7244 5.21335 21.4103 5.03199L17.13 2.56075C16.8158 2.37938 16.414 2.48705 16.2327 2.80117C16.0512 3.11529 16.1589 3.51707 16.4731 3.69849Z" fill="#F7F9FB"/>
<path d="M16.8022 10.5118C16.9135 10.5118 17.0265 10.4834 17.13 10.4237L21.4103 7.95246C21.7245 7.77104 21.8321 7.36932 21.6507 7.05514C21.4694 6.74097 21.0677 6.63324 20.7534 6.81472L16.4731 9.28596C16.1589 9.46738 16.0513 9.86911 16.2326 10.1833C16.3543 10.394 16.5751 10.5118 16.8022 10.5118Z" fill="#F7F9FB"/>
<path d="M7.95084 13.7929C8.31363 13.7929 8.60774 13.4988 8.60774 13.136V8.26432C8.60774 7.90153 8.31363 7.60742 7.95084 7.60742C7.58806 7.60742 7.29395 7.90153 7.29395 8.26432V13.136C7.29395 13.4988 7.58806 13.7929 7.95084 13.7929Z" fill="#F7F9FB"/>
<path d="M9.16543 7.95142L13.2797 10.3268C13.3831 10.3865 13.496 10.4149 13.6075 10.4149C13.8345 10.4149 14.0554 10.2971 14.177 10.0863C14.3584 9.77216 14.2507 9.37037 13.9366 9.18901L9.82232 6.81368C9.50815 6.63231 9.10637 6.73998 8.925 7.0541C8.74364 7.36828 8.85131 7.77006 9.16543 7.95142Z" fill="#F7F9FB"/>
<path d="M15.2878 18.1522C15.6505 18.1522 15.9447 17.8581 15.9447 17.4953V12.4264C15.9447 12.0636 15.6505 11.7695 15.2878 11.7695C14.925 11.7695 14.6309 12.0636 14.6309 12.4264V17.4953C14.6309 17.8581 14.925 18.1522 15.2878 18.1522Z" fill="#F7F9FB"/>
<path d="M9.0297 16.4631L13.4512 19.0159C13.5546 19.0756 13.6676 19.104 13.779 19.104C14.006 19.104 14.2269 18.9862 14.3485 18.7754C14.5299 18.4613 14.4222 18.0595 14.1081 17.8781L9.68659 15.3254C9.37242 15.1441 8.97064 15.2517 8.78928 15.5658C8.60791 15.88 8.71552 16.2817 9.0297 16.4631Z" fill="#F7F9FB"/>
<path d="M15.2878 0C14.044 0 13.0321 1.01192 13.0321 2.25566C13.0321 3.49946 14.044 4.51138 15.2878 4.51138C16.5316 4.51138 17.5435 3.49946 17.5435 2.25566C17.5435 1.01192 16.5316 0 15.2878 0ZM15.2878 3.19759C14.7684 3.19759 14.3459 2.77503 14.3459 2.25566C14.3459 1.73629 14.7684 1.31379 15.2878 1.31379C15.8072 1.31379 16.2297 1.73635 16.2297 2.25566C16.2297 2.77509 15.8072 3.19759 15.2878 3.19759Z" fill="#ED2A91"/>
<path d="M15.2878 8.29785C14.044 8.29785 13.0321 9.30977 13.0321 10.5536C13.0321 11.7974 14.044 12.8092 15.2878 12.8092C16.5316 12.8092 17.5435 11.7973 17.5435 10.5536C17.5435 9.30977 16.5316 8.29785 15.2878 8.29785ZM15.2878 11.4955C14.7684 11.4955 14.3459 11.0729 14.3459 10.5536C14.3459 10.0343 14.7684 9.6117 15.2878 9.6117C15.8072 9.6117 16.2297 10.0343 16.2297 10.5536C16.2297 11.0729 15.8072 11.4955 15.2878 11.4955Z" fill="#ED2A91"/>
<path d="M7.95097 4.23633C6.70717 4.23633 5.69531 5.24825 5.69531 6.49199C5.69531 7.73579 6.70717 8.74771 7.95097 8.74771C9.19478 8.74771 10.2066 7.73579 10.2066 6.49199C10.2066 5.24825 9.19478 4.23633 7.95097 4.23633ZM7.95097 7.43392C7.43161 7.43392 7.0091 7.01135 7.0091 6.49199C7.0091 5.97262 7.43161 5.55012 7.95097 5.55012C8.47034 5.55012 8.89284 5.97268 8.89284 6.49199C8.89284 7.01141 8.47034 7.43392 7.95097 7.43392Z" fill="#ED2A91"/>
<path d="M22.6248 8.74771C23.8686 8.74771 24.8805 7.73579 24.8805 6.49199C24.8805 5.24819 23.8686 4.23633 22.6248 4.23633C21.381 4.23633 20.3691 5.24825 20.3691 6.49199C20.3691 7.73585 21.381 8.74771 22.6248 8.74771ZM22.6248 5.55012C23.1442 5.55012 23.5667 5.97268 23.5667 6.49199C23.5667 7.01135 23.1442 7.43392 22.6248 7.43392C22.1054 7.43392 21.6829 7.01135 21.6829 6.49199C21.6829 5.97268 22.1054 5.55012 22.6248 5.55012Z" fill="#ED2A91"/>
<path d="M7.95097 12.6797C6.70717 12.6797 5.69531 13.6916 5.69531 14.9353C5.69531 16.1792 6.70717 17.1911 7.95097 17.1911C9.19478 17.1911 10.2066 16.1792 10.2066 14.9353C10.2066 13.6916 9.19478 12.6797 7.95097 12.6797ZM7.95097 15.8773C7.43161 15.8773 7.0091 15.4547 7.0091 14.9353C7.0091 14.416 7.43161 13.9935 7.95097 13.9935C8.47034 13.9935 8.89284 14.416 8.89284 14.9353C8.89284 15.4548 8.47034 15.8773 7.95097 15.8773Z" fill="#ED2A91"/>
<path d="M22.6248 12.6797C21.381 12.6797 20.3691 13.6916 20.3691 14.9353C20.3691 16.1792 21.381 17.1911 22.6248 17.1911C23.8686 17.1911 24.8805 16.1792 24.8805 14.9353C24.8805 13.6916 23.8686 12.6797 22.6248 12.6797ZM22.6248 15.8773C22.1054 15.8773 21.6829 15.4547 21.6829 14.9353C21.6829 14.416 22.1054 13.9935 22.6248 13.9935C23.1442 13.9935 23.5667 14.416 23.5667 14.9353C23.5667 15.4548 23.1442 15.8773 22.6248 15.8773Z" fill="#ED2A91"/>
<path d="M15.2878 17.0625C14.044 17.0625 13.0321 18.0744 13.0321 19.3182C13.0321 20.562 14.044 21.5739 15.2878 21.5739C16.5316 21.5739 17.5435 20.562 17.5435 19.3182C17.5435 18.0744 16.5316 17.0625 15.2878 17.0625ZM15.2878 20.2601C14.7684 20.2601 14.3459 19.8375 14.3459 19.3182C14.3459 18.7988 14.7684 18.3763 15.2878 18.3763C15.8072 18.3763 16.2297 18.7989 16.2297 19.3182C16.2297 19.8375 15.8072 20.2601 15.2878 20.2601Z" fill="#ED2A91"/>
</svg>
