<svg width="24" height="28" viewBox="0 0 24 28" fill="none" xmlns="http://www.w3.org/2000/svg">
<path d="M11.5391 0C5.17639 0 0 5.17639 0 11.5391C0 17.9017 5.17639 23.0781 11.5391 23.0781C11.751 23.0781 11.9656 23.0722 12.1768 23.0605C12.5085 23.0421 12.7625 22.7584 12.7442 22.4266C12.7258 22.0949 12.4404 21.8408 12.1103 21.8592C11.9212 21.8696 11.729 21.875 11.5391 21.875C6.04171 21.875 1.533 17.561 1.22046 12.1406H8.60579C9.57988 12.1405 10.3724 11.3479 10.3724 10.3739C10.3724 10.0632 10.6252 9.81039 10.9359 9.81039C12.3161 9.81039 13.439 8.68749 13.439 7.30723C13.439 5.92703 12.3162 4.80413 10.9359 4.80413H9.22502C8.83389 4.80408 8.51566 4.48585 8.51566 4.09478C8.51566 3.1914 7.88605 2.43239 7.04255 2.23338C8.40273 1.57347 9.92846 1.20312 11.5391 1.20312C17.2383 1.20312 21.875 5.8398 21.875 11.5391C21.875 13.1687 21.4826 14.7969 20.7403 16.2475C20.5889 16.5432 20.706 16.9057 21.0018 17.0571C21.2976 17.2084 21.66 17.0913 21.8113 16.7956C22.6401 15.1761 23.0781 13.3584 23.0781 11.5391C23.0781 5.17639 17.9017 0 11.5391 0ZM6.60324 3.38559C6.99431 3.38559 7.31248 3.70371 7.31248 4.09478C7.31248 5.14916 8.17037 6.00709 9.22485 6.00726H10.9359C11.6526 6.00726 12.2358 6.59045 12.2358 7.30723C12.2358 8.02408 11.6527 8.60727 10.9359 8.60727C9.96171 8.60727 9.16918 9.39974 9.16918 10.3739C9.16918 10.6846 8.91636 10.9375 8.60568 10.9375H1.22046C1.39716 7.87352 2.91462 5.16316 5.19351 3.38559H6.60324Z" fill="#F7F9FB"/>
<path d="M18.9214 10.3555H14.6465C14.3143 10.3555 14.0449 10.6248 14.0449 10.957C14.0449 11.2893 14.3143 11.5586 14.6465 11.5586H14.7026V14.3007C14.7026 14.633 14.9719 14.9023 15.3042 14.9023C15.6364 14.9023 15.9057 14.633 15.9057 14.3007V11.5586H17.6621V14.3007C17.6621 14.633 17.9315 14.9023 18.2637 14.9023C18.5959 14.9023 18.8652 14.633 18.8652 14.3007V11.5586H18.9214C19.2536 11.5586 19.523 11.2893 19.523 10.957C19.523 10.6248 19.2536 10.3555 18.9214 10.3555Z" fill="#F7F9FB"/>
<path d="M19.908 14.0273H13.6601C12.6031 14.0273 11.7432 14.8873 11.7432 15.9443V25.1517C11.7432 25.9986 12.2953 26.7189 13.0585 26.9718V27.3981C13.0585 27.7303 13.3278 27.9997 13.6601 27.9997C13.9923 27.9997 14.2616 27.7303 14.2616 27.3981V27.0686H19.3064V27.3981C19.3064 27.7303 19.5758 27.9997 19.908 27.9997C20.2402 27.9997 20.5096 27.7303 20.5096 27.3981V26.9718C21.2727 26.7189 21.8249 25.9985 21.8249 25.1517V15.9443C21.8249 14.8873 20.9649 14.0273 19.908 14.0273ZM20.6217 25.1517C20.6217 25.5452 20.3015 25.8654 19.908 25.8654H13.6601C13.2665 25.8654 12.9463 25.5452 12.9463 25.1517V15.9443C12.9463 15.5507 13.2665 15.2305 13.6601 15.2305H19.908C20.3015 15.2305 20.6217 15.5507 20.6217 15.9443V25.1517Z" fill="#ED2A91"/>
<path d="M15.3047 16.9873C14.9725 16.9873 14.7031 17.2566 14.7031 17.5889V23.5079C14.7031 23.8401 14.9725 24.1095 15.3047 24.1095C15.6369 24.1095 15.9062 23.8401 15.9062 23.5079V17.5889C15.9062 17.2566 15.637 16.9873 15.3047 16.9873Z" fill="#ED2A91"/>
<path d="M18.2646 16.9873C17.9324 16.9873 17.6631 17.2566 17.6631 17.5889V23.5079C17.6631 23.8401 17.9324 24.1095 18.2646 24.1095C18.5969 24.1095 18.8662 23.8401 18.8662 23.5079V17.5889C18.8662 17.2566 18.5969 16.9873 18.2646 16.9873Z" fill="#ED2A91"/>
</svg>
