<svg width="36" height="36" viewBox="0 0 36 36" fill="none" xmlns="http://www.w3.org/2000/svg">
<foreignObject x="-15" y="-15" width="66" height="66"><div xmlns="http://www.w3.org/1999/xhtml" style="backdrop-filter:blur(7.5px);clip-path:url(#bgblur_0_4770_5352_clip_path);height:100%;width:100%"></div></foreignObject><g data-figma-bg-blur-radius="15">
<mask id="path-1-inside-1_4770_5352" fill="white">
<path d="M36 18C36 27.9411 27.9411 36 18 36C8.05887 36 0 27.9411 0 18C0 8.05887 8.05887 0 18 0C27.9411 0 36 8.05887 36 18Z"/>
</mask>
<path d="M36 18C36 27.9411 27.9411 36 18 36C8.05887 36 0 27.9411 0 18C0 8.05887 8.05887 0 18 0C27.9411 0 36 8.05887 36 18Z" fill="white" fill-opacity="0.1"/>
<g clip-path="url(#paint0_angular_4770_5352_clip_path)" data-figma-skip-parse="true" mask="url(#path-1-inside-1_4770_5352)"><g transform="matrix(0.01872 0.00405 -0.00353653 0.0163466 18.99 13.95)"><foreignObject x="-1599.76" y="-1599.76" width="3199.53" height="3199.53"><div xmlns="http://www.w3.org/1999/xhtml" style="background:conic-gradient(from 90deg,rgba(108, 108, 108, 0.5) 0deg,rgba(64, 64, 64, 0.5) 10.5206deg,rgba(64, 64, 64, 0.35) 32.1212deg,rgba(255, 255, 255, 0.5) 60.2813deg,rgba(255, 255, 255, 0.5) 107.788deg,rgba(64, 64, 64, 0.35) 187.591deg,rgba(249, 249, 249, 1) 207.58deg,rgba(255, 255, 255, 0.5) 287.308deg,rgba(249, 249, 249, 0.5) 327.047deg,rgba(108, 108, 108, 0.5) 360deg);height:100%;width:100%;opacity:0.5"></div></foreignObject></g></g><path d="M36 18H35C35 27.3888 27.3888 35 18 35V36V37C28.4934 37 37 28.4934 37 18H36ZM18 36V35C8.61116 35 1 27.3888 1 18H0H-1C-1 28.4934 7.50659 37 18 37V36ZM0 18H1C1 8.61116 8.61116 1 18 1V0V-1C7.50659 -1 -1 7.50659 -1 18H0ZM18 0V1C27.3888 1 35 8.61116 35 18H36H37C37 7.50659 28.4934 -1 18 -1V0Z" data-figma-gradient-fill="{&#34;type&#34;:&#34;GRADIENT_ANGULAR&#34;,&#34;stops&#34;:[{&#34;color&#34;:{&#34;r&#34;:0.25098040699958801,&#34;g&#34;:0.25098040699958801,&#34;b&#34;:0.25098040699958801,&#34;a&#34;:0.50},&#34;position&#34;:0.029223963618278503},{&#34;color&#34;:{&#34;r&#34;:0.25262922048568726,&#34;g&#34;:0.25262922048568726,&#34;b&#34;:0.25262922048568726,&#34;a&#34;:0.34999999403953552},&#34;position&#34;:0.089225620031356812},{&#34;color&#34;:{&#34;r&#34;:1.0,&#34;g&#34;:1.0,&#34;b&#34;:1.0,&#34;a&#34;:0.50},&#34;position&#34;:0.16744795441627502},{&#34;color&#34;:{&#34;r&#34;:1.0,&#34;g&#34;:1.0,&#34;b&#34;:1.0,&#34;a&#34;:0.50},&#34;position&#34;:0.29941025376319885},{&#34;color&#34;:{&#34;r&#34;:0.25098040699958801,&#34;g&#34;:0.25098040699958801,&#34;b&#34;:0.25098040699958801,&#34;a&#34;:0.34999999403953552},&#34;position&#34;:0.52108556032180786},{&#34;color&#34;:{&#34;r&#34;:0.97664386034011841,&#34;g&#34;:0.97664386034011841,&#34;b&#34;:0.97664386034011841,&#34;a&#34;:1.0},&#34;position&#34;:0.57661086320877075},{&#34;color&#34;:{&#34;r&#34;:1.0,&#34;g&#34;:1.0,&#34;b&#34;:1.0,&#34;a&#34;:0.50},&#34;position&#34;:0.79807692766189575},{&#34;color&#34;:{&#34;r&#34;:0.97647058963775635,&#34;g&#34;:0.97647058963775635,&#34;b&#34;:0.97647058963775635,&#34;a&#34;:0.50},&#34;position&#34;:0.90846514701843262}],&#34;stopsVar&#34;:[{&#34;color&#34;:{&#34;r&#34;:0.25098040699958801,&#34;g&#34;:0.25098040699958801,&#34;b&#34;:0.25098040699958801,&#34;a&#34;:0.50},&#34;position&#34;:0.029223963618278503},{&#34;color&#34;:{&#34;r&#34;:0.25262922048568726,&#34;g&#34;:0.25262922048568726,&#34;b&#34;:0.25262922048568726,&#34;a&#34;:0.34999999403953552},&#34;position&#34;:0.089225620031356812},{&#34;color&#34;:{&#34;r&#34;:1.0,&#34;g&#34;:1.0,&#34;b&#34;:1.0,&#34;a&#34;:0.50},&#34;position&#34;:0.16744795441627502},{&#34;color&#34;:{&#34;r&#34;:1.0,&#34;g&#34;:1.0,&#34;b&#34;:1.0,&#34;a&#34;:0.50},&#34;position&#34;:0.29941025376319885},{&#34;color&#34;:{&#34;r&#34;:0.25098040699958801,&#34;g&#34;:0.25098040699958801,&#34;b&#34;:0.25098040699958801,&#34;a&#34;:0.34999999403953552},&#34;position&#34;:0.52108556032180786},{&#34;color&#34;:{&#34;r&#34;:0.97664386034011841,&#34;g&#34;:0.97664386034011841,&#34;b&#34;:0.97664386034011841,&#34;a&#34;:1.0},&#34;position&#34;:0.57661086320877075},{&#34;color&#34;:{&#34;r&#34;:1.0,&#34;g&#34;:1.0,&#34;b&#34;:1.0,&#34;a&#34;:0.50},&#34;position&#34;:0.79807692766189575},{&#34;color&#34;:{&#34;r&#34;:0.97647058963775635,&#34;g&#34;:0.97647058963775635,&#34;b&#34;:0.97647058963775635,&#34;a&#34;:0.50},&#34;position&#34;:0.90846514701843262}],&#34;transform&#34;:{&#34;m00&#34;:37.440002441406250,&#34;m01&#34;:-7.0730609893798828,&#34;m02&#34;:3.8065299987792969,&#34;m10&#34;:8.1000013351440430,&#34;m11&#34;:32.693260192871094,&#34;m12&#34;:-6.4466309547424316},&#34;opacity&#34;:0.50,&#34;blendMode&#34;:&#34;NORMAL&#34;,&#34;visible&#34;:true}" mask="url(#path-1-inside-1_4770_5352)"/>
</g>
<defs>
<clipPath id="bgblur_0_4770_5352_clip_path" transform="translate(15 15)"><path d="M36 18C36 27.9411 27.9411 36 18 36C8.05887 36 0 27.9411 0 18C0 8.05887 8.05887 0 18 0C27.9411 0 36 8.05887 36 18Z"/>
</clipPath><clipPath id="paint0_angular_4770_5352_clip_path"><path d="M36 18H35C35 27.3888 27.3888 35 18 35V36V37C28.4934 37 37 28.4934 37 18H36ZM18 36V35C8.61116 35 1 27.3888 1 18H0H-1C-1 28.4934 7.50659 37 18 37V36ZM0 18H1C1 8.61116 8.61116 1 18 1V0V-1C7.50659 -1 -1 7.50659 -1 18H0ZM18 0V1C27.3888 1 35 8.61116 35 18H36H37C37 7.50659 28.4934 -1 18 -1V0Z"/></clipPath></defs>
</svg>
