<svg width="438" height="472" viewBox="0 0 438 472" fill="none" xmlns="http://www.w3.org/2000/svg">
<foreignObject x="-9" y="-22" width="464" height="494"><div xmlns="http://www.w3.org/1999/xhtml" style="backdrop-filter:blur(12.5px);clip-path:url(#bgblur_0_1_5216_clip_path);height:100%;width:100%"></div></foreignObject><g filter="url(#filter0_dddd_1_5216)" data-figma-bg-blur-radius="25">
<mask id="path-1-inside-1_1_5216" fill="white">
<path d="M430 207C430 319.666 338.666 411 226 411C113.334 411 22 319.666 22 207C22 94.3339 113.334 3 226 3C338.666 3 430 94.3339 430 207ZM73.5263 207C73.5263 291.209 141.791 359.474 226 359.474C310.209 359.474 378.474 291.209 378.474 207C378.474 122.791 310.209 54.5263 226 54.5263C141.791 54.5263 73.5263 122.791 73.5263 207Z"/>
</mask>
<path d="M430 207C430 319.666 338.666 411 226 411C113.334 411 22 319.666 22 207C22 94.3339 113.334 3 226 3C338.666 3 430 94.3339 430 207ZM73.5263 207C73.5263 291.209 141.791 359.474 226 359.474C310.209 359.474 378.474 291.209 378.474 207C378.474 122.791 310.209 54.5263 226 54.5263C141.791 54.5263 73.5263 122.791 73.5263 207Z" fill="white" fill-opacity="0.1"/>
<g clip-path="url(#paint0_angular_1_5216_clip_path)" data-figma-skip-parse="true" mask="url(#path-1-inside-1_1_5216)"><g transform="matrix(0.21216 0.0459 -0.0400807 0.185262 237.22 161.1)"><foreignObject x="-1534.95" y="-1534.95" width="3069.91" height="3069.91"><div xmlns="http://www.w3.org/1999/xhtml" style="background:conic-gradient(from 90deg,rgba(108, 108, 108, 0.4516) 0deg,rgba(64, 64, 64, 0.5) 10.5206deg,rgba(64, 64, 64, 0.35) 32.1212deg,rgba(255, 255, 255, 0.3) 60.2813deg,rgba(255, 255, 255, 0.3) 107.788deg,rgba(64, 64, 64, 0.35) 187.591deg,rgba(249, 249, 249, 0.5) 207.58deg,rgba(255, 255, 255, 0.3) 287.308deg,rgba(249, 249, 249, 0.3) 327.047deg,rgba(108, 108, 108, 0.4516) 360deg);height:100%;width:100%;opacity:0.5"></div></foreignObject></g></g><path d="M430 207H429C429 319.114 338.114 410 226 410V411V412C339.218 412 431 320.218 431 207H430ZM226 411V410C113.886 410 23 319.114 23 207H22H21C21 320.218 112.782 412 226 412V411ZM22 207H23C23 94.8862 113.886 4 226 4V3V2C112.782 2 21 93.7816 21 207H22ZM226 3V4C338.114 4 429 94.8862 429 207H430H431C431 93.7816 339.218 2 226 2V3ZM73.5263 207H72.5263C72.5263 291.761 141.239 360.474 226 360.474V359.474V358.474C142.343 358.474 74.5263 290.657 74.5263 207H73.5263ZM226 359.474V360.474C310.761 360.474 379.474 291.761 379.474 207H378.474H377.474C377.474 290.657 309.657 358.474 226 358.474V359.474ZM378.474 207H379.474C379.474 122.239 310.761 53.5263 226 53.5263V54.5263V55.5263C309.657 55.5263 377.474 123.343 377.474 207H378.474ZM226 54.5263V53.5263C141.239 53.5263 72.5263 122.239 72.5263 207H73.5263H74.5263C74.5263 123.343 142.343 55.5263 226 55.5263V54.5263Z" data-figma-gradient-fill="{&#34;type&#34;:&#34;GRADIENT_ANGULAR&#34;,&#34;stops&#34;:[{&#34;color&#34;:{&#34;r&#34;:0.25098040699958801,&#34;g&#34;:0.25098040699958801,&#34;b&#34;:0.25098040699958801,&#34;a&#34;:0.50},&#34;position&#34;:0.029223963618278503},{&#34;color&#34;:{&#34;r&#34;:0.25262922048568726,&#34;g&#34;:0.25262922048568726,&#34;b&#34;:0.25262922048568726,&#34;a&#34;:0.34999999403953552},&#34;position&#34;:0.089225620031356812},{&#34;color&#34;:{&#34;r&#34;:1.0,&#34;g&#34;:1.0,&#34;b&#34;:1.0,&#34;a&#34;:0.30000001192092896},&#34;position&#34;:0.16744795441627502},{&#34;color&#34;:{&#34;r&#34;:1.0,&#34;g&#34;:1.0,&#34;b&#34;:1.0,&#34;a&#34;:0.30000001192092896},&#34;position&#34;:0.29941025376319885},{&#34;color&#34;:{&#34;r&#34;:0.25098040699958801,&#34;g&#34;:0.25098040699958801,&#34;b&#34;:0.25098040699958801,&#34;a&#34;:0.34999999403953552},&#34;position&#34;:0.52108556032180786},{&#34;color&#34;:{&#34;r&#34;:0.97664386034011841,&#34;g&#34;:0.97664386034011841,&#34;b&#34;:0.97664386034011841,&#34;a&#34;:0.50},&#34;position&#34;:0.57661086320877075},{&#34;color&#34;:{&#34;r&#34;:1.0,&#34;g&#34;:1.0,&#34;b&#34;:1.0,&#34;a&#34;:0.30000001192092896},&#34;position&#34;:0.79807692766189575},{&#34;color&#34;:{&#34;r&#34;:0.97647058963775635,&#34;g&#34;:0.97647058963775635,&#34;b&#34;:0.97647058963775635,&#34;a&#34;:0.30000001192092896},&#34;position&#34;:0.90846514701843262}],&#34;stopsVar&#34;:[{&#34;color&#34;:{&#34;r&#34;:0.25098040699958801,&#34;g&#34;:0.25098040699958801,&#34;b&#34;:0.25098040699958801,&#34;a&#34;:0.50},&#34;position&#34;:0.029223963618278503},{&#34;color&#34;:{&#34;r&#34;:0.25262922048568726,&#34;g&#34;:0.25262922048568726,&#34;b&#34;:0.25262922048568726,&#34;a&#34;:0.34999999403953552},&#34;position&#34;:0.089225620031356812},{&#34;color&#34;:{&#34;r&#34;:1.0,&#34;g&#34;:1.0,&#34;b&#34;:1.0,&#34;a&#34;:0.30000001192092896},&#34;position&#34;:0.16744795441627502},{&#34;color&#34;:{&#34;r&#34;:1.0,&#34;g&#34;:1.0,&#34;b&#34;:1.0,&#34;a&#34;:0.30000001192092896},&#34;position&#34;:0.29941025376319885},{&#34;color&#34;:{&#34;r&#34;:0.25098040699958801,&#34;g&#34;:0.25098040699958801,&#34;b&#34;:0.25098040699958801,&#34;a&#34;:0.34999999403953552},&#34;position&#34;:0.52108556032180786},{&#34;color&#34;:{&#34;r&#34;:0.97664386034011841,&#34;g&#34;:0.97664386034011841,&#34;b&#34;:0.97664386034011841,&#34;a&#34;:0.50},&#34;position&#34;:0.57661086320877075},{&#34;color&#34;:{&#34;r&#34;:1.0,&#34;g&#34;:1.0,&#34;b&#34;:1.0,&#34;a&#34;:0.30000001192092896},&#34;position&#34;:0.79807692766189575},{&#34;color&#34;:{&#34;r&#34;:0.97647058963775635,&#34;g&#34;:0.97647058963775635,&#34;b&#34;:0.97647058963775635,&#34;a&#34;:0.30000001192092896},&#34;position&#34;:0.90846514701843262}],&#34;transform&#34;:{&#34;m00&#34;:424.32000732421875,&#34;m01&#34;:-80.161361694335938,&#34;m02&#34;:65.140670776367188,&#34;m10&#34;:91.800018310546875,&#34;m11&#34;:370.52362060546875,&#34;m12&#34;:-70.061813354492188},&#34;opacity&#34;:0.50,&#34;blendMode&#34;:&#34;NORMAL&#34;,&#34;visible&#34;:true}" mask="url(#path-1-inside-1_1_5216)"/>
</g>
<foreignObject x="68" y="55" width="310" height="340"><div xmlns="http://www.w3.org/1999/xhtml" style="backdrop-filter:blur(12.5px);clip-path:url(#bgblur_1_1_5216_clip_path);height:100%;width:100%"></div></foreignObject><g filter="url(#filter1_dddd_1_5216)" data-figma-bg-blur-radius="25">
<mask id="path-3-inside-2_1_5216" fill="white">
<path d="M353 207C353 277.14 296.14 334 226 334C155.86 334 99 277.14 99 207C99 136.86 155.86 80 226 80C296.14 80 353 136.86 353 207ZM144.557 207C144.557 251.98 181.02 288.443 226 288.443C270.98 288.443 307.443 251.98 307.443 207C307.443 162.02 270.98 125.557 226 125.557C181.02 125.557 144.557 162.02 144.557 207Z"/>
</mask>
<path d="M353 207C353 277.14 296.14 334 226 334C155.86 334 99 277.14 99 207C99 136.86 155.86 80 226 80C296.14 80 353 136.86 353 207ZM144.557 207C144.557 251.98 181.02 288.443 226 288.443C270.98 288.443 307.443 251.98 307.443 207C307.443 162.02 270.98 125.557 226 125.557C181.02 125.557 144.557 162.02 144.557 207Z" fill="white" fill-opacity="0.1"/>
<g clip-path="url(#paint1_angular_1_5216_clip_path)" data-figma-skip-parse="true" mask="url(#path-3-inside-2_1_5216)"><g transform="matrix(0.13208 0.028575 -0.0249522 0.115335 232.985 178.425)"><foreignObject x="-1538.76" y="-1538.76" width="3077.51" height="3077.51"><div xmlns="http://www.w3.org/1999/xhtml" style="background:conic-gradient(from 90deg,rgba(108, 108, 108, 0.4516) 0deg,rgba(64, 64, 64, 0.5) 10.5206deg,rgba(64, 64, 64, 0.35) 32.1212deg,rgba(255, 255, 255, 0.3) 60.2813deg,rgba(255, 255, 255, 0.3) 107.788deg,rgba(64, 64, 64, 0.35) 187.591deg,rgba(249, 249, 249, 0.5) 207.58deg,rgba(255, 255, 255, 0.3) 287.308deg,rgba(249, 249, 249, 0.3) 327.047deg,rgba(108, 108, 108, 0.4516) 360deg);height:100%;width:100%;opacity:0.5"></div></foreignObject></g></g><path d="M353 207H352C352 276.588 295.588 333 226 333V334V335C296.692 335 354 277.692 354 207H353ZM226 334V333C156.412 333 100 276.588 100 207H99H98C98 277.692 155.308 335 226 335V334ZM99 207H100C100 137.412 156.412 81 226 81V80V79C155.308 79 98 136.308 98 207H99ZM226 80V81C295.588 81 352 137.412 352 207H353H354C354 136.308 296.692 79 226 79V80ZM144.557 207H143.557C143.557 252.532 180.468 289.443 226 289.443V288.443V287.443C181.573 287.443 145.557 251.427 145.557 207H144.557ZM226 288.443V289.443C271.532 289.443 308.443 252.532 308.443 207H307.443H306.443C306.443 251.427 270.427 287.443 226 287.443V288.443ZM307.443 207H308.443C308.443 161.468 271.532 124.557 226 124.557V125.557V126.557C270.427 126.557 306.443 162.573 306.443 207H307.443ZM226 125.557V124.557C180.468 124.557 143.557 161.468 143.557 207H144.557H145.557C145.557 162.573 181.573 126.557 226 126.557V125.557Z" data-figma-gradient-fill="{&#34;type&#34;:&#34;GRADIENT_ANGULAR&#34;,&#34;stops&#34;:[{&#34;color&#34;:{&#34;r&#34;:0.25098040699958801,&#34;g&#34;:0.25098040699958801,&#34;b&#34;:0.25098040699958801,&#34;a&#34;:0.50},&#34;position&#34;:0.029223963618278503},{&#34;color&#34;:{&#34;r&#34;:0.25262922048568726,&#34;g&#34;:0.25262922048568726,&#34;b&#34;:0.25262922048568726,&#34;a&#34;:0.34999999403953552},&#34;position&#34;:0.089225620031356812},{&#34;color&#34;:{&#34;r&#34;:1.0,&#34;g&#34;:1.0,&#34;b&#34;:1.0,&#34;a&#34;:0.30000001192092896},&#34;position&#34;:0.16744795441627502},{&#34;color&#34;:{&#34;r&#34;:1.0,&#34;g&#34;:1.0,&#34;b&#34;:1.0,&#34;a&#34;:0.30000001192092896},&#34;position&#34;:0.29941025376319885},{&#34;color&#34;:{&#34;r&#34;:0.25098040699958801,&#34;g&#34;:0.25098040699958801,&#34;b&#34;:0.25098040699958801,&#34;a&#34;:0.34999999403953552},&#34;position&#34;:0.52108556032180786},{&#34;color&#34;:{&#34;r&#34;:0.97664386034011841,&#34;g&#34;:0.97664386034011841,&#34;b&#34;:0.97664386034011841,&#34;a&#34;:0.50},&#34;position&#34;:0.57661086320877075},{&#34;color&#34;:{&#34;r&#34;:1.0,&#34;g&#34;:1.0,&#34;b&#34;:1.0,&#34;a&#34;:0.30000001192092896},&#34;position&#34;:0.79807692766189575},{&#34;color&#34;:{&#34;r&#34;:0.97647058963775635,&#34;g&#34;:0.97647058963775635,&#34;b&#34;:0.97647058963775635,&#34;a&#34;:0.30000001192092896},&#34;position&#34;:0.90846514701843262}],&#34;stopsVar&#34;:[{&#34;color&#34;:{&#34;r&#34;:0.25098040699958801,&#34;g&#34;:0.25098040699958801,&#34;b&#34;:0.25098040699958801,&#34;a&#34;:0.50},&#34;position&#34;:0.029223963618278503},{&#34;color&#34;:{&#34;r&#34;:0.25262922048568726,&#34;g&#34;:0.25262922048568726,&#34;b&#34;:0.25262922048568726,&#34;a&#34;:0.34999999403953552},&#34;position&#34;:0.089225620031356812},{&#34;color&#34;:{&#34;r&#34;:1.0,&#34;g&#34;:1.0,&#34;b&#34;:1.0,&#34;a&#34;:0.30000001192092896},&#34;position&#34;:0.16744795441627502},{&#34;color&#34;:{&#34;r&#34;:1.0,&#34;g&#34;:1.0,&#34;b&#34;:1.0,&#34;a&#34;:0.30000001192092896},&#34;position&#34;:0.29941025376319885},{&#34;color&#34;:{&#34;r&#34;:0.25098040699958801,&#34;g&#34;:0.25098040699958801,&#34;b&#34;:0.25098040699958801,&#34;a&#34;:0.34999999403953552},&#34;position&#34;:0.52108556032180786},{&#34;color&#34;:{&#34;r&#34;:0.97664386034011841,&#34;g&#34;:0.97664386034011841,&#34;b&#34;:0.97664386034011841,&#34;a&#34;:0.50},&#34;position&#34;:0.57661086320877075},{&#34;color&#34;:{&#34;r&#34;:1.0,&#34;g&#34;:1.0,&#34;b&#34;:1.0,&#34;a&#34;:0.30000001192092896},&#34;position&#34;:0.79807692766189575},{&#34;color&#34;:{&#34;r&#34;:0.97647058963775635,&#34;g&#34;:0.97647058963775635,&#34;b&#34;:0.97647058963775635,&#34;a&#34;:0.30000001192092896},&#34;position&#34;:0.90846514701843262}],&#34;transform&#34;:{&#34;m00&#34;:264.16000366210938,&#34;m01&#34;:-49.904376983642578,&#34;m02&#34;:125.85718536376953,&#34;m10&#34;:57.150012969970703,&#34;m11&#34;:230.66911315917969,&#34;m12&#34;:34.515438079833984},&#34;opacity&#34;:0.50,&#34;blendMode&#34;:&#34;NORMAL&#34;,&#34;visible&#34;:true}" mask="url(#path-3-inside-2_1_5216)"/>
</g>
<foreignObject x="151" y="138" width="144" height="174"><div xmlns="http://www.w3.org/1999/xhtml" style="backdrop-filter:blur(12.5px);clip-path:url(#bgblur_2_1_5216_clip_path);height:100%;width:100%"></div></foreignObject><g filter="url(#filter2_dddd_1_5216)" data-figma-bg-blur-radius="25">
<mask id="path-5-inside-3_1_5216" fill="white">
<path d="M270 207C270 231.301 250.301 251 226 251C201.699 251 182 231.301 182 207C182 182.699 201.699 163 226 163C250.301 163 270 182.699 270 207ZM203.982 207C203.982 219.16 213.84 229.018 226 229.018C238.16 229.018 248.018 219.16 248.018 207C248.018 194.84 238.16 184.982 226 184.982C213.84 184.982 203.982 194.84 203.982 207Z"/>
</mask>
<path d="M270 207C270 231.301 250.301 251 226 251C201.699 251 182 231.301 182 207C182 182.699 201.699 163 226 163C250.301 163 270 182.699 270 207ZM203.982 207C203.982 219.16 213.84 229.018 226 229.018C238.16 229.018 248.018 219.16 248.018 207C248.018 194.84 238.16 184.982 226 184.982C213.84 184.982 203.982 194.84 203.982 207Z" fill="white" fill-opacity="0.1"/>
<g clip-path="url(#paint2_angular_1_5216_clip_path)" data-figma-skip-parse="true" mask="url(#path-5-inside-3_1_5216)"><g transform="matrix(0.04576 0.0099 -0.00864485 0.0399584 228.42 197.1)"><foreignObject x="-1557.76" y="-1557.76" width="3115.52" height="3115.52"><div xmlns="http://www.w3.org/1999/xhtml" style="background:conic-gradient(from 90deg,rgba(108, 108, 108, 0.4516) 0deg,rgba(64, 64, 64, 0.5) 10.5206deg,rgba(64, 64, 64, 0.35) 32.1212deg,rgba(255, 255, 255, 0.3) 60.2813deg,rgba(255, 255, 255, 0.3) 107.788deg,rgba(64, 64, 64, 0.35) 187.591deg,rgba(249, 249, 249, 0.5) 207.58deg,rgba(255, 255, 255, 0.3) 287.308deg,rgba(249, 249, 249, 0.3) 327.047deg,rgba(108, 108, 108, 0.4516) 360deg);height:100%;width:100%;opacity:0.5"></div></foreignObject></g></g><path d="M270 207H269C269 230.748 249.748 250 226 250V251V252C250.853 252 271 231.853 271 207H270ZM226 251V250C202.252 250 183 230.748 183 207H182H181C181 231.853 201.147 252 226 252V251ZM182 207H183C183 183.252 202.252 164 226 164V163V162C201.147 162 181 182.147 181 207H182ZM226 163V164C249.748 164 269 183.252 269 207H270H271C271 182.147 250.853 162 226 162V163ZM203.982 207H202.982C202.982 219.712 213.288 230.018 226 230.018V229.018V228.018C214.392 228.018 204.982 218.608 204.982 207H203.982ZM226 229.018V230.018C238.712 230.018 249.018 219.712 249.018 207H248.018H247.018C247.018 218.608 237.608 228.018 226 228.018V229.018ZM248.018 207H249.018C249.018 194.288 238.712 183.982 226 183.982V184.982V185.982C237.608 185.982 247.018 195.392 247.018 207H248.018ZM226 184.982V183.982C213.288 183.982 202.982 194.288 202.982 207H203.982H204.982C204.982 195.392 214.392 185.982 226 185.982V184.982Z" data-figma-gradient-fill="{&#34;type&#34;:&#34;GRADIENT_ANGULAR&#34;,&#34;stops&#34;:[{&#34;color&#34;:{&#34;r&#34;:0.25098040699958801,&#34;g&#34;:0.25098040699958801,&#34;b&#34;:0.25098040699958801,&#34;a&#34;:0.50},&#34;position&#34;:0.029223963618278503},{&#34;color&#34;:{&#34;r&#34;:0.25262922048568726,&#34;g&#34;:0.25262922048568726,&#34;b&#34;:0.25262922048568726,&#34;a&#34;:0.34999999403953552},&#34;position&#34;:0.089225620031356812},{&#34;color&#34;:{&#34;r&#34;:1.0,&#34;g&#34;:1.0,&#34;b&#34;:1.0,&#34;a&#34;:0.30000001192092896},&#34;position&#34;:0.16744795441627502},{&#34;color&#34;:{&#34;r&#34;:1.0,&#34;g&#34;:1.0,&#34;b&#34;:1.0,&#34;a&#34;:0.30000001192092896},&#34;position&#34;:0.29941025376319885},{&#34;color&#34;:{&#34;r&#34;:0.25098040699958801,&#34;g&#34;:0.25098040699958801,&#34;b&#34;:0.25098040699958801,&#34;a&#34;:0.34999999403953552},&#34;position&#34;:0.52108556032180786},{&#34;color&#34;:{&#34;r&#34;:0.97664386034011841,&#34;g&#34;:0.97664386034011841,&#34;b&#34;:0.97664386034011841,&#34;a&#34;:0.50},&#34;position&#34;:0.57661086320877075},{&#34;color&#34;:{&#34;r&#34;:1.0,&#34;g&#34;:1.0,&#34;b&#34;:1.0,&#34;a&#34;:0.30000001192092896},&#34;position&#34;:0.79807692766189575},{&#34;color&#34;:{&#34;r&#34;:0.97647058963775635,&#34;g&#34;:0.97647058963775635,&#34;b&#34;:0.97647058963775635,&#34;a&#34;:0.30000001192092896},&#34;position&#34;:0.90846514701843262}],&#34;stopsVar&#34;:[{&#34;color&#34;:{&#34;r&#34;:0.25098040699958801,&#34;g&#34;:0.25098040699958801,&#34;b&#34;:0.25098040699958801,&#34;a&#34;:0.50},&#34;position&#34;:0.029223963618278503},{&#34;color&#34;:{&#34;r&#34;:0.25262922048568726,&#34;g&#34;:0.25262922048568726,&#34;b&#34;:0.25262922048568726,&#34;a&#34;:0.34999999403953552},&#34;position&#34;:0.089225620031356812},{&#34;color&#34;:{&#34;r&#34;:1.0,&#34;g&#34;:1.0,&#34;b&#34;:1.0,&#34;a&#34;:0.30000001192092896},&#34;position&#34;:0.16744795441627502},{&#34;color&#34;:{&#34;r&#34;:1.0,&#34;g&#34;:1.0,&#34;b&#34;:1.0,&#34;a&#34;:0.30000001192092896},&#34;position&#34;:0.29941025376319885},{&#34;color&#34;:{&#34;r&#34;:0.25098040699958801,&#34;g&#34;:0.25098040699958801,&#34;b&#34;:0.25098040699958801,&#34;a&#34;:0.34999999403953552},&#34;position&#34;:0.52108556032180786},{&#34;color&#34;:{&#34;r&#34;:0.97664386034011841,&#34;g&#34;:0.97664386034011841,&#34;b&#34;:0.97664386034011841,&#34;a&#34;:0.50},&#34;position&#34;:0.57661086320877075},{&#34;color&#34;:{&#34;r&#34;:1.0,&#34;g&#34;:1.0,&#34;b&#34;:1.0,&#34;a&#34;:0.30000001192092896},&#34;position&#34;:0.79807692766189575},{&#34;color&#34;:{&#34;r&#34;:0.97647058963775635,&#34;g&#34;:0.97647058963775635,&#34;b&#34;:0.97647058963775635,&#34;a&#34;:0.30000001192092896},&#34;position&#34;:0.90846514701843262}],&#34;transform&#34;:{&#34;m00&#34;:91.520004272460938,&#34;m01&#34;:-17.289705276489258,&#34;m02&#34;:191.30485534667969,&#34;m10&#34;:19.800003051757812,&#34;m11&#34;:79.916854858398438,&#34;m12&#34;:147.24156188964844},&#34;opacity&#34;:0.50,&#34;blendMode&#34;:&#34;NORMAL&#34;,&#34;visible&#34;:true}" mask="url(#path-5-inside-3_1_5216)"/>
</g>
<defs>
<filter id="filter0_dddd_1_5216" x="-9" y="-22" width="464" height="494" filterUnits="userSpaceOnUse" color-interpolation-filters="sRGB">
<feFlood flood-opacity="0" result="BackgroundImageFix"/>
<feColorMatrix in="SourceAlpha" type="matrix" values="0 0 0 0 0 0 0 0 0 0 0 0 0 0 0 0 0 0 127 0" result="hardAlpha"/>
<feOffset dx="-1" dy="3"/>
<feGaussianBlur stdDeviation="3"/>
<feColorMatrix type="matrix" values="0 0 0 0 0 0 0 0 0 0 0 0 0 0 0 0 0 0 0.08 0"/>
<feBlend mode="normal" in2="BackgroundImageFix" result="effect1_dropShadow_1_5216"/>
<feColorMatrix in="SourceAlpha" type="matrix" values="0 0 0 0 0 0 0 0 0 0 0 0 0 0 0 0 0 0 127 0" result="hardAlpha"/>
<feOffset dx="-3" dy="11"/>
<feGaussianBlur stdDeviation="5.5"/>
<feColorMatrix type="matrix" values="0 0 0 0 0 0 0 0 0 0 0 0 0 0 0 0 0 0 0.07 0"/>
<feBlend mode="normal" in2="effect1_dropShadow_1_5216" result="effect2_dropShadow_1_5216"/>
<feColorMatrix in="SourceAlpha" type="matrix" values="0 0 0 0 0 0 0 0 0 0 0 0 0 0 0 0 0 0 127 0" result="hardAlpha"/>
<feOffset dx="-7" dy="24"/>
<feGaussianBlur stdDeviation="7.5"/>
<feColorMatrix type="matrix" values="0 0 0 0 0 0 0 0 0 0 0 0 0 0 0 0 0 0 0.04 0"/>
<feBlend mode="normal" in2="effect2_dropShadow_1_5216" result="effect3_dropShadow_1_5216"/>
<feColorMatrix in="SourceAlpha" type="matrix" values="0 0 0 0 0 0 0 0 0 0 0 0 0 0 0 0 0 0 127 0" result="hardAlpha"/>
<feOffset dx="-13" dy="43"/>
<feGaussianBlur stdDeviation="9"/>
<feColorMatrix type="matrix" values="0 0 0 0 0 0 0 0 0 0 0 0 0 0 0 0 0 0 0.01 0"/>
<feBlend mode="normal" in2="effect3_dropShadow_1_5216" result="effect4_dropShadow_1_5216"/>
<feBlend mode="normal" in="SourceGraphic" in2="effect4_dropShadow_1_5216" result="shape"/>
</filter>
<clipPath id="bgblur_0_1_5216_clip_path" transform="translate(9 22)"><path d="M430 207C430 319.666 338.666 411 226 411C113.334 411 22 319.666 22 207C22 94.3339 113.334 3 226 3C338.666 3 430 94.3339 430 207ZM73.5263 207C73.5263 291.209 141.791 359.474 226 359.474C310.209 359.474 378.474 291.209 378.474 207C378.474 122.791 310.209 54.5263 226 54.5263C141.791 54.5263 73.5263 122.791 73.5263 207Z"/>
</clipPath><clipPath id="paint0_angular_1_5216_clip_path"><path d="M430 207H429C429 319.114 338.114 410 226 410V411V412C339.218 412 431 320.218 431 207H430ZM226 411V410C113.886 410 23 319.114 23 207H22H21C21 320.218 112.782 412 226 412V411ZM22 207H23C23 94.8862 113.886 4 226 4V3V2C112.782 2 21 93.7816 21 207H22ZM226 3V4C338.114 4 429 94.8862 429 207H430H431C431 93.7816 339.218 2 226 2V3ZM73.5263 207H72.5263C72.5263 291.761 141.239 360.474 226 360.474V359.474V358.474C142.343 358.474 74.5263 290.657 74.5263 207H73.5263ZM226 359.474V360.474C310.761 360.474 379.474 291.761 379.474 207H378.474H377.474C377.474 290.657 309.657 358.474 226 358.474V359.474ZM378.474 207H379.474C379.474 122.239 310.761 53.5263 226 53.5263V54.5263V55.5263C309.657 55.5263 377.474 123.343 377.474 207H378.474ZM226 54.5263V53.5263C141.239 53.5263 72.5263 122.239 72.5263 207H73.5263H74.5263C74.5263 123.343 142.343 55.5263 226 55.5263V54.5263Z" mask="url(#path-1-inside-1_1_5216)"/></clipPath><filter id="filter1_dddd_1_5216" x="68" y="55" width="310" height="340" filterUnits="userSpaceOnUse" color-interpolation-filters="sRGB">
<feFlood flood-opacity="0" result="BackgroundImageFix"/>
<feColorMatrix in="SourceAlpha" type="matrix" values="0 0 0 0 0 0 0 0 0 0 0 0 0 0 0 0 0 0 127 0" result="hardAlpha"/>
<feOffset dx="-1" dy="3"/>
<feGaussianBlur stdDeviation="3"/>
<feColorMatrix type="matrix" values="0 0 0 0 0 0 0 0 0 0 0 0 0 0 0 0 0 0 0.08 0"/>
<feBlend mode="normal" in2="BackgroundImageFix" result="effect1_dropShadow_1_5216"/>
<feColorMatrix in="SourceAlpha" type="matrix" values="0 0 0 0 0 0 0 0 0 0 0 0 0 0 0 0 0 0 127 0" result="hardAlpha"/>
<feOffset dx="-3" dy="11"/>
<feGaussianBlur stdDeviation="5.5"/>
<feColorMatrix type="matrix" values="0 0 0 0 0 0 0 0 0 0 0 0 0 0 0 0 0 0 0.07 0"/>
<feBlend mode="normal" in2="effect1_dropShadow_1_5216" result="effect2_dropShadow_1_5216"/>
<feColorMatrix in="SourceAlpha" type="matrix" values="0 0 0 0 0 0 0 0 0 0 0 0 0 0 0 0 0 0 127 0" result="hardAlpha"/>
<feOffset dx="-7" dy="24"/>
<feGaussianBlur stdDeviation="7.5"/>
<feColorMatrix type="matrix" values="0 0 0 0 0 0 0 0 0 0 0 0 0 0 0 0 0 0 0.04 0"/>
<feBlend mode="normal" in2="effect2_dropShadow_1_5216" result="effect3_dropShadow_1_5216"/>
<feColorMatrix in="SourceAlpha" type="matrix" values="0 0 0 0 0 0 0 0 0 0 0 0 0 0 0 0 0 0 127 0" result="hardAlpha"/>
<feOffset dx="-13" dy="43"/>
<feGaussianBlur stdDeviation="9"/>
<feColorMatrix type="matrix" values="0 0 0 0 0 0 0 0 0 0 0 0 0 0 0 0 0 0 0.01 0"/>
<feBlend mode="normal" in2="effect3_dropShadow_1_5216" result="effect4_dropShadow_1_5216"/>
<feBlend mode="normal" in="SourceGraphic" in2="effect4_dropShadow_1_5216" result="shape"/>
</filter>
<clipPath id="bgblur_1_1_5216_clip_path" transform="translate(-68 -55)"><path d="M353 207C353 277.14 296.14 334 226 334C155.86 334 99 277.14 99 207C99 136.86 155.86 80 226 80C296.14 80 353 136.86 353 207ZM144.557 207C144.557 251.98 181.02 288.443 226 288.443C270.98 288.443 307.443 251.98 307.443 207C307.443 162.02 270.98 125.557 226 125.557C181.02 125.557 144.557 162.02 144.557 207Z"/>
</clipPath><clipPath id="paint1_angular_1_5216_clip_path"><path d="M353 207H352C352 276.588 295.588 333 226 333V334V335C296.692 335 354 277.692 354 207H353ZM226 334V333C156.412 333 100 276.588 100 207H99H98C98 277.692 155.308 335 226 335V334ZM99 207H100C100 137.412 156.412 81 226 81V80V79C155.308 79 98 136.308 98 207H99ZM226 80V81C295.588 81 352 137.412 352 207H353H354C354 136.308 296.692 79 226 79V80ZM144.557 207H143.557C143.557 252.532 180.468 289.443 226 289.443V288.443V287.443C181.573 287.443 145.557 251.427 145.557 207H144.557ZM226 288.443V289.443C271.532 289.443 308.443 252.532 308.443 207H307.443H306.443C306.443 251.427 270.427 287.443 226 287.443V288.443ZM307.443 207H308.443C308.443 161.468 271.532 124.557 226 124.557V125.557V126.557C270.427 126.557 306.443 162.573 306.443 207H307.443ZM226 125.557V124.557C180.468 124.557 143.557 161.468 143.557 207H144.557H145.557C145.557 162.573 181.573 126.557 226 126.557V125.557Z" mask="url(#path-3-inside-2_1_5216)"/></clipPath><filter id="filter2_dddd_1_5216" x="151" y="138" width="144" height="174" filterUnits="userSpaceOnUse" color-interpolation-filters="sRGB">
<feFlood flood-opacity="0" result="BackgroundImageFix"/>
<feColorMatrix in="SourceAlpha" type="matrix" values="0 0 0 0 0 0 0 0 0 0 0 0 0 0 0 0 0 0 127 0" result="hardAlpha"/>
<feOffset dx="-1" dy="3"/>
<feGaussianBlur stdDeviation="3"/>
<feColorMatrix type="matrix" values="0 0 0 0 0 0 0 0 0 0 0 0 0 0 0 0 0 0 0.08 0"/>
<feBlend mode="normal" in2="BackgroundImageFix" result="effect1_dropShadow_1_5216"/>
<feColorMatrix in="SourceAlpha" type="matrix" values="0 0 0 0 0 0 0 0 0 0 0 0 0 0 0 0 0 0 127 0" result="hardAlpha"/>
<feOffset dx="-3" dy="11"/>
<feGaussianBlur stdDeviation="5.5"/>
<feColorMatrix type="matrix" values="0 0 0 0 0 0 0 0 0 0 0 0 0 0 0 0 0 0 0.07 0"/>
<feBlend mode="normal" in2="effect1_dropShadow_1_5216" result="effect2_dropShadow_1_5216"/>
<feColorMatrix in="SourceAlpha" type="matrix" values="0 0 0 0 0 0 0 0 0 0 0 0 0 0 0 0 0 0 127 0" result="hardAlpha"/>
<feOffset dx="-7" dy="24"/>
<feGaussianBlur stdDeviation="7.5"/>
<feColorMatrix type="matrix" values="0 0 0 0 0 0 0 0 0 0 0 0 0 0 0 0 0 0 0.04 0"/>
<feBlend mode="normal" in2="effect2_dropShadow_1_5216" result="effect3_dropShadow_1_5216"/>
<feColorMatrix in="SourceAlpha" type="matrix" values="0 0 0 0 0 0 0 0 0 0 0 0 0 0 0 0 0 0 127 0" result="hardAlpha"/>
<feOffset dx="-13" dy="43"/>
<feGaussianBlur stdDeviation="9"/>
<feColorMatrix type="matrix" values="0 0 0 0 0 0 0 0 0 0 0 0 0 0 0 0 0 0 0.01 0"/>
<feBlend mode="normal" in2="effect3_dropShadow_1_5216" result="effect4_dropShadow_1_5216"/>
<feBlend mode="normal" in="SourceGraphic" in2="effect4_dropShadow_1_5216" result="shape"/>
</filter>
<clipPath id="bgblur_2_1_5216_clip_path" transform="translate(-151 -138)"><path d="M270 207C270 231.301 250.301 251 226 251C201.699 251 182 231.301 182 207C182 182.699 201.699 163 226 163C250.301 163 270 182.699 270 207ZM203.982 207C203.982 219.16 213.84 229.018 226 229.018C238.16 229.018 248.018 219.16 248.018 207C248.018 194.84 238.16 184.982 226 184.982C213.84 184.982 203.982 194.84 203.982 207Z"/>
</clipPath><clipPath id="paint2_angular_1_5216_clip_path"><path d="M270 207H269C269 230.748 249.748 250 226 250V251V252C250.853 252 271 231.853 271 207H270ZM226 251V250C202.252 250 183 230.748 183 207H182H181C181 231.853 201.147 252 226 252V251ZM182 207H183C183 183.252 202.252 164 226 164V163V162C201.147 162 181 182.147 181 207H182ZM226 163V164C249.748 164 269 183.252 269 207H270H271C271 182.147 250.853 162 226 162V163ZM203.982 207H202.982C202.982 219.712 213.288 230.018 226 230.018V229.018V228.018C214.392 228.018 204.982 218.608 204.982 207H203.982ZM226 229.018V230.018C238.712 230.018 249.018 219.712 249.018 207H248.018H247.018C247.018 218.608 237.608 228.018 226 228.018V229.018ZM248.018 207H249.018C249.018 194.288 238.712 183.982 226 183.982V184.982V185.982C237.608 185.982 247.018 195.392 247.018 207H248.018ZM226 184.982V183.982C213.288 183.982 202.982 194.288 202.982 207H203.982H204.982C204.982 195.392 214.392 185.982 226 185.982V184.982Z" mask="url(#path-5-inside-3_1_5216)"/></clipPath></defs>
</svg>
